<?xml version="1.0" standalone="no"?>
<!DOCTYPE svg PUBLIC "-//W3C//DTD SVG 20010904//EN"
 "http://www.w3.org/TR/2001/REC-SVG-20010904/DTD/svg10.dtd">
<svg version="1.0" xmlns="http://www.w3.org/2000/svg"
 width="351.000000pt" height="351.000000pt" viewBox="0 0 351.000000 351.000000"
 preserveAspectRatio="xMidYMid meet">
<metadata>
Created by potrace 1.14, written by Peter Selinger 2001-2017
</metadata>
<g transform="translate(0.000000,351.000000) scale(0.100000,-0.100000)"
fill="#000000" stroke="none">
<path d="M1565 3499 c-27 -4 -70 -10 -95 -14 -226 -34 -495 -140 -693 -273
-388 -263 -647 -654 -748 -1132 -28 -132 -35 -415 -14 -560 57 -394 223 -727
498 -1002 279 -278 619 -447 1014 -502 126 -18 397 -13 518 8 654 117 1165
559 1381 1191 95 281 106 675 28 980 -109 422 -371 787 -736 1028 -215 141
-463 233 -733 273 -62 9 -364 11 -420 3z"/>
</g>
</svg>
