<?xml version="1.0" encoding="iso-8859-1"?>
<!-- Uploaded to: SVG Repo, www.svgrepo.com, Generator: SVG Repo Mixer Tools -->
<svg version="1.1" id="Layer_1" xmlns="http://www.w3.org/2000/svg" xmlns:xlink="http://www.w3.org/1999/xlink" 
	 viewBox="0 0 512 512" xml:space="preserve">
<g>
	<rect x="170.667" y="55.467" style="fill:#7D4641;" width="17.067" height="59.733"/>
	<rect x="324.267" y="55.467" style="fill:#7D4641;" width="17.067" height="59.733"/>
</g>
<path style="fill:#915046;" d="M7.115,123.733v315.733c0,23.564,19.103,42.667,42.667,42.667h412.437
	c23.564,0,42.667-19.103,42.667-42.667V123.733H7.115z"/>
<path style="fill:#AA6455;" d="M494.932,106.667H17.068c-9.962,0-17.807,8.497-17.012,18.428L11.251,265.03
	c2.483,31.043,28.4,54.97,59.542,54.97h370.413c31.142,0,57.059-23.926,59.542-54.97l11.196-139.936
	C512.739,115.164,504.894,106.667,494.932,106.667z"/>
<path style="fill:#EBC9A0;" d="M145.067,354.133L145.067,354.133c-9.426,0-17.067-7.641-17.067-17.067V294.4
	c0-4.713,3.821-8.533,8.533-8.533H153.6c4.713,0,8.533,3.821,8.533,8.533v42.667C162.133,346.493,154.493,354.133,145.067,354.133z"
	/>
<path style="fill:#9B5A50;" d="M332.813,72.533c-1.366,0-2.754-0.158-4.138-0.509C307.596,66.775,282.463,64,256,64
	s-51.596,2.775-72.675,8.025c-9.113,2.317-18.4-3.292-20.688-12.433c-2.275-9.141,3.292-18.409,12.437-20.684
	c23.739-5.916,51.722-9.041,80.926-9.041c29.204,0,57.187,3.125,80.925,9.042c9.146,2.275,14.713,11.541,12.437,20.684
	C347.429,67.35,340.467,72.533,332.813,72.533z"/>
<path style="fill:#F5DCB4;" d="M145.067,328.533L145.067,328.533c-9.426,0-17.067-7.641-17.067-17.067v-18.853
	c0-3.726,3.021-6.747,6.747-6.747h20.641c3.726,0,6.747,3.021,6.747,6.747v18.853C162.133,320.893,154.493,328.533,145.067,328.533z
	"/>
<path style="fill:#EBC9A0;" d="M366.933,354.133L366.933,354.133c-9.426,0-17.067-7.641-17.067-17.067V294.4
	c0-4.713,3.821-8.533,8.533-8.533h17.067c4.713,0,8.533,3.821,8.533,8.533v42.667C384,346.493,376.359,354.133,366.933,354.133z"/>
<path style="fill:#F5DCB4;" d="M366.933,328.533L366.933,328.533c-9.426,0-17.067-7.641-17.067-17.067v-18.853
	c0-3.726,3.021-6.747,6.747-6.747h20.641c3.726,0,6.747,3.021,6.747,6.747v18.853C384,320.893,376.359,328.533,366.933,328.533z"/>
<path style="fill:#9B5A50;" d="M441.206,337.067h-40.14c0,18.851-15.282,34.133-34.133,34.133S332.8,355.918,332.8,337.067H179.2
	c0,18.851-15.282,34.133-34.133,34.133s-34.133-15.282-34.133-34.133h-40.14c-10.293,0-20.165-2.091-29.202-5.874
	c-4.221-1.766-8.877,1.317-8.877,5.893v102.381c0,9.426,7.641,17.067,17.067,17.067h412.437c9.426,0,17.067-7.641,17.067-17.067
	V337.086c0-4.575-4.656-7.66-8.877-5.893C461.372,334.976,451.501,337.067,441.206,337.067z"/>
</svg>