<?xml version="1.0" encoding="utf-8"?>
<!-- Generator: Adobe Illustrator 26.0.3, SVG Export Plug-In . SVG Version: 6.00 Build 0)  -->
<svg version="1.1" id="Layer_1" xmlns="http://www.w3.org/2000/svg" xmlns:xlink="http://www.w3.org/1999/xlink" x="0px" y="0px"
	 viewBox="0 0 800 1598.3" style="enable-background:new 0 0 800 1598.3;" xml:space="preserve">
<style type="text/css">
	.st0{fill:#FFFFFF;}
	.st1{fill:#B20000;}
</style>
<ellipse class="st0" cx="400" cy="364.2" rx="135" ry="129"/>
<path class="st1" d="M398.9,130.9c-128.9,0-233.3,104.5-233.3,233.3c0,128.9,233.3,433.3,233.3,433.3s233.3-304.5,233.3-433.3
	C632.2,235.3,527.8,130.9,398.9,130.9L398.9,130.9z M398.9,480.9c-64.4,0-116.7-52.2-116.7-116.7s52.2-116.7,116.7-116.7
	c0,0,0,0,0,0c64.4,0,116.7,52.2,116.7,116.7C515.5,428.6,463.3,480.9,398.9,480.9z"/>
</svg>
