<?xml version="1.0" standalone="no"?>
<!DOCTYPE svg PUBLIC "-//W3C//DTD SVG 20010904//EN"
 "http://www.w3.org/TR/2001/REC-SVG-20010904/DTD/svg10.dtd">
<svg version="1.0" xmlns="http://www.w3.org/2000/svg"
 width="700.000000pt" height="700.000000pt" viewBox="0 0 700.000000 700.000000"
 preserveAspectRatio="xMidYMid meet">
<metadata>
Created by potrace 1.14, written by Peter Selinger 2001-2017
</metadata>
<g transform="translate(0.000000,700.000000) scale(0.100000,-0.100000)"
fill="#000000" stroke="none">
<path d="M3278 6995 c-1 -1 -42 -5 -89 -9 -47 -4 -95 -8 -106 -10 -11 -3 -44
-7 -74 -11 -312 -37 -711 -158 -1024 -311 -180 -87 -448 -247 -555 -331 -8 -6
-51 -40 -95 -74 -342 -266 -650 -623 -875 -1014 -47 -83 -170 -327 -170 -340
0 -3 -9 -24 -20 -48 -56 -121 -156 -431 -185 -578 -2 -9 -12 -59 -23 -110 -43
-199 -56 -351 -57 -639 0 -151 4 -309 8 -350 57 -542 215 -1021 485 -1470 78
-131 216 -328 284 -408 259 -303 489 -511 785 -708 77 -52 145 -94 149 -94 4
0 15 -6 23 -14 47 -41 413 -212 576 -270 79 -27 261 -84 291 -90 10 -2 57 -13
104 -25 109 -26 200 -43 299 -57 25 -3 57 -8 71 -10 162 -25 683 -25 842 1 13
2 46 7 73 10 71 10 87 13 115 18 14 3 43 8 65 12 115 21 314 74 455 122 188
64 473 192 614 278 32 19 62 35 67 35 5 0 9 5 9 10 0 6 4 10 10 10 14 0 220
141 320 219 157 122 333 287 460 430 36 41 70 79 76 85 6 6 48 61 94 121 152
200 276 403 388 638 29 59 52 110 52 113 0 3 8 24 19 47 53 118 147 417 177
562 17 81 54 301 59 350 4 33 9 71 11 85 9 47 11 525 4 605 -15 157 -21 210
-25 225 -2 8 -7 35 -10 60 -17 126 -78 375 -135 549 -310 942 -1031 1723
-1950 2114 -238 101 -594 203 -810 232 -19 3 -46 7 -60 10 -13 2 -52 7 -86 11
-33 3 -74 8 -90 10 -32 5 -540 14 -546 9z"/>
</g>
</svg>
