<?xml version="1.0" encoding="utf-8"?>
<svg version="1.1" id="svg2231" xmlns:svg="http://www.w3.org/2000/svg" xmlns="http://www.w3.org/2000/svg"
	xmlns:xlink="http://www.w3.org/1999/xlink" x="0px" y="0px" viewBox="0 0 779.5 195.2"
	style="enable-background:new 0 0 779.5 195.2;" xml:space="preserve">
	<style type="text/css">
		.air-one-0 {
			fill: #1C2565;
		}

		.air-one-1 {
			fill: #FCD213;
		}
	</style>
	<g id="layer1" transform="translate(-20.426489,-386.48551)">
		<g id="g2446" transform="translate(17.716536,17.712183)">
			<path id="path4644" class="air-one-0"
				d="M283.6,488.3c-8.7,0-17.1,3.3-25,5.7c-1.6,0-2.6-0.6-2.6-1.3c0-1,0.3-2.9,0.4-5
			c-0.4-0.7-2-1-3.4-1c-7.7,2-21.1,4.4-32.1,6c-1,0.6-1,2.1-0.3,2.5l3.1,0.8c6.3,1.7,6.3,3,6.3,8v16.2c0,8.2-1,9.4-9.7,9.9h-7
			c-8.7-0.6-9.7-1.8-9.7-9.9v-19.1c0-4.5,0.3-9.8,0.7-13.5c-0.7-0.6-2-0.8-3.6-0.9c-7.1,1.9-19.8,4.3-33.1,6c-1,0.6-1,2.1-0.1,2.5
			l3,0.8c6.4,1.7,6.4,3,6.4,8v16.2c0,8-1.6,9.9-9.3,9.9c-11.4,0-14-1.8-19.8-9.1l-36.7-46.3c-4-5-7.3-10.2-11.4-15.1
			c-1-0.6-2.3-0.9-4.3-0.9c-0.6,0-9,4.5-17.8,5.3c0.7,1.9-1.6,4.5-4.8,8.1l-34.8,39.3c-5.4,6-9.4,10.6-12.6,13.5
			c-3.9,3.7-6.6,4.3-14,4.7L4,530.1c-1.9,1-1.6,2.7,0.1,3.2h52.2c2.1-0.5,2.3-2.4,0.6-3.2l-7.4-0.6c-9.4-0.5-10.4-0.5-5.3-7.1
			l10.4-13.3c2.3-3,2-3,8.6-3h33.9c7.1,0,7.8,0,10.4,3l12,15c3.3,4.7,2.4,5.1-6.7,5.5l-5.7,0.3c-1.4,0.7-1.4,3.2,0.9,3.2h168.2
			c2-0.5,2.3-2.4,0.6-3.2l-10-0.4c-8.8-0.4-10-1.3-10-9.5v-15.1c0-5.4,1.6-7.9,7.4-7.9c1.6,0,5.8,0.2,12.3,2.1
			c2,0.6,4.3,0.9,6.8,0.9c6.8,0,14.3-2.1,14.3-6.4C297.5,490.8,292.4,488.3,283.6,488.3z M93.7,501.3H67.3c-6.1,0-6.8,0-4.1-3.2
			l10.7-12.9c4.6-5.2,6.7-7.9,7.7-8.7H82c1.3,0.8,2.9,2.9,7.1,8.7l10.7,13.3C101.8,501.1,100.8,501.3,93.7,501.3z M173.9,475.3
			c0-4,6.7-7,16.3-7c9.7,0,16.4,3,16.4,7c0,4-6.7,6.9-16.4,6.9C180.6,482.3,173.9,479.3,173.9,475.3z M620.5,530.1l-5.8-0.3
			c-8.7-0.6-9.7-1.4-9.7-9.6v-17.1c0-8.6-9.7-14.8-30.2-14.8c-15.8,0-23,2.7-34.9,5.5c-1.4-0.1-2.3-0.3-2.3-1.1c0-0.9,0-3,0.6-5.1
			c-0.6-0.4-1.6-0.9-3.3-0.9c-7.7,1.9-20.7,4.4-31.4,5.7c-4.3-18.2-34.2-33.8-88.4-33.8c-53.5,0-91.1,16.7-91.1,39.2
			c0,19.6,33.1,37.2,90.6,37.2c51.4,0,89.6-16.2,89.6-38c0-0.4,0-0.8,0-1.2l0.4,0.1c6.4,1.7,6.4,3,6.4,8v16.2c0,8.2-1,9-9.7,9.6
			l-5.6,0.3c-1.9,0.8-1.6,2.8,0.4,3.2h54.5c2.1-0.5,2.3-2.4,0.6-3.2l-3.9-0.2c-8.6-0.7-9.7-1.6-9.7-9.7v-14.8c0-4.1,0.3-5.1,3.6-7.1
			c2.6-1.7,9-3.4,16.8-3.4c15.3,0,20.4,4.4,20.4,10v15.2c0,8.2-1,9-9.7,9.7l-3.9,0.2c-1.7,0.8-1.4,2.8,0.6,3.2h54.6
			C622,532.9,622.3,530.9,620.5,530.1z M416.9,530.7c-43.5,0-58.5-20.8-58.5-36c0-23.5,27.7-31.6,53.2-31.6
			c40.4,0,57.6,19.3,57.6,36C469.3,521.3,445.9,530.7,416.9,530.7z M640.9,507.2c-4.8,0-5.3,0.1-5.3,1.4c0,9.9,15.7,17.9,38.4,17.9
			c10.1,0,18.5-1.4,24.4-5.5c2.6-0.3,5.4,0.8,5.7,1.8c-8.7,8.8-27.5,12.2-43.1,12.2c-29.5,0-49.1-9.5-49.1-22.1
			c0-12.5,19.5-24.5,53.6-24.5c18.8,0,38.2,5.3,38.2,14.9c0,1-0.3,1.7-1.3,2.5c-1.6,1-7.4,1.4-17.5,1.4H640.9z M664.3,502.8
			c7.4,0,10.7-0.3,12.6-0.8c1.4-0.4,2.6-1.3,2.6-2.3c0-4-5.8-7.2-16.8-7.2c-17.1,0-25,7.2-25,9.5c0,0.5,0.6,0.8,3.6,0.8H664.3" />
			<path id="path4646" class="air-one-0" d="M715.6,413.4c-0.4,1.8-0.7,4.8-1.4,8.4c-0.6,2.9-1.1,7-2.9,11c-1.6,4.1-3.7,6.6-4.3,6.9
			c-2.1-0.2-5.4,0-5.4,0s3.1-5.8,3.7-10.9c0.4-3.4,0.4-7.7,1.6-10.4C708,415.6,712.5,413.8,715.6,413.4z M755,548.5
			c-0.4-3.4,0.6-5.9,5.4-4.3c-4.3-3.2-6.8-6.1-8.8-9.8c-3.9-6.8-3.4-19.2-6.1-27.6c-2.7-8.7-14.8-16.8-18.1-23.5
			c3.7,0.9,9,1.2,12.1,2.7c4.7,2.3,9.3,8.3,11.3,10.4c0.6,0.7,2.1,1,2.1,0.1c0.4-0.2,1-0.7,1.1-1.2c0.3-0.6-0.4-0.4-0.1-1
			c0.1-0.1,1,0,1.4-0.9c1.1-1.8-0.3-2,0-2.3c0.1-0.3,1.6,0.6,2.3-0.7c0-0.3,0.1-0.7,0.3-1.1c0-0.2,0.6-0.7,0.4-1.5
			c-0.1-0.9-1.4-0.8-1.3-1.1c0.1-0.4,1.3,0.5,1.7-0.2c0.9-1.3,0.9-1.9,0.6-2.4c-0.6-1.3-11.1-5.7-14.7-7.9c4.7-1.3,17,5.1,29.4,1.9
			c-9.6,0.7-18.5-1.2-26.4-4.5c7.6,2.7,21.4,5,27.8,1c-5,2.2-17,2.4-27.5-3.9c-3.1-6.4-0.3-4.4-0.3-4.4s0.7,0.1,1.3-0.3
			c1.1-0.9,0-2.9,1-3.7c0.7,1,2,0.8,2,0.8s2.1-0.7,3.3-3.2c-1.7-1.1-1.3-1.2-1.3-1.8c1-1.2,2.3-0.4,3.6-2.4c0.6-0.8,0.3-2.8,0.6-3.8
			c0.6-0.8,1.4-0.7,1.7-1.5c0.3-0.8,0.1-3.7,0.7-4.8c0.7-1,1.7-0.4,2.4-2c0.9-1.9-0.3-2.4-0.1-3.1c0.3-0.5,1.1-0.6,1.4-1.4
			c0.4-1.2-0.1-1.1,0.1-1.8c0.1-0.6,1.1-0.2,1.9-1.8c0-0.9-0.1-0.6-0.1-1.3c0-0.7,1-1,1.4-2.5c0.6-2-1.3-2.6-1.3-2.6
			c1.7-0.4,1.6-1,1.7-1.6c0.3-0.6-0.3-1.2-0.1-1.7c0.1-0.5,1-0.7,1.3-1.2c0.3-0.6-0.1-2-0.1-2.7c1.7-0.2,2.4-1.3,2.7-1.8
			c0.3-0.6,0-2.3,0.4-3.4c0.4-1.1,1.6-1.1,2.6-1.8c0.9-0.7,0.6-2,1-2.8c0.6-0.6,1.3-0.2,1.9-0.9c0.3-0.3,0.1-0.9,0.3-1.4
			c0-0.2,0.4-0.5,0.4-1.1c-0.1-0.6-0.7-0.6-1-1.4c0.1,0,0.7,0,1-0.3c0.6,0.5,1.3-0.3,1.3-0.3s-0.3-0.5,0-0.8
			c0.6-0.7,0.9-1.8,0.7-2.3c-0.1-0.5-0.6-0.6-1.1-0.8c0.3-0.7,0.9-0.5,1.7-1.2c0.6-0.5,0.9-3.1,0.6-4.2c-0.9,0.2-2.4-0.8-2.4-0.8
			s2.4-0.3,3.3-1.9c0.6-1.2-0.6-3.9-0.6-3.9s-0.7-0.5-1.4-0.5c-0.7,0-0.9,0.3-2,0.1c0.9-0.7,2.3-1.2,2.7-2.5
			c0.6-1.7,0.3-3.5-0.4-3.8c-0.6-0.2-0.9,0.1-1.1,0.1c-0.4,0-0.7-0.3-1.4,0.1c3.1-2.9,2.9-5.1,1.9-5.6c-1,0.1-3.7,2.3-9.1,3.5
			c0.3-0.4,0.6-0.9,1.1-1.2c3.3-1.7,4.7-6.6,3.3-7.1c-0.6-0.2-6.8,4.4-9.4,5.3c1-1.2,5.3-7.6,4-9.8c-1.4-0.1-7.8,7.5-7.8,7.5
			s2.9-7.2,1.3-7.8c-0.7,0-1.9,2.4-4.1,5.6c-1.6,2.1-4,4.8-5.8,6.3c-4.4,3.4-12.6,6.9-16.5,11.3c-0.1,0-0.7-0.1-1.6-0.9
			c-22.5,12.2-12.6,38.1-25.5,52c-9.8-0.6-14.8,0.6-22,3.9c-5.4,2.5-14,2.6-18.3,0.5c-7.3-3.6-8.7-5.7-9.7-9.5
			c-1.1-3.8,2.3-5.7,5.1-10.8c2.7-5.1-2.1-15.6-4.4-17.7c-3.6-8.9-14.1-9.2-17-9.6c-0.3,0.1-19.3-7.1-19.1-7.2
			c12.7,8.1,25.7,17.4,27.7,19.2c2,1.8,5.7,6.4,6,9.3c0.4,4.2-6.4,5.7-7.7,11.9c0.1-0.8-4.7,22,34.7,27.8c7.8,4.5,12.7,11.9,23.8,16
			c3,3.5,4.3,9,11.7,13.4c3,3.8,11.6,12.8,17.1,22c4.1,6.9,5.6,24.7,5.6,24.7c0.6,4.9,1.1,12.7,7.8,21.7c0.1,0.2,0.4,0.7,0.9,1.3
			c0.9,1.2,1.7,2.5,2.7,4c0-0.1,0-0.2-0.1-0.3c0.3,0.3,0.4,0.4,0.4,0.4c-0.3-0.4-1.4-2.5-2.4-5.1c-0.4-1.5-1-3.1-1.1-4.4
			c-0.3-1.7-0.3-3.3,0.3-4.3c0.6-0.2,1.7,0.7,3.6,3.2c0.6,0.8,3.9,5.4,3.9,5.4c-0.4-0.6-2.9-5.6-3.6-9.6L755,548.5z M741.6,506.4
			c3.6,5.8,3.3,16,5.6,26.6c1.4,6.5,3.3,12.2,4.1,14.1c-7.1-6.5-4.4-20.4-11.1-37.5c-2-4.9-8.1-12.8-11.8-17.9
			C728.3,491.8,737.9,500.6,741.6,506.4" />
			<path id="path4648" class="air-one-1" d="M416.5,523.6c-37.8,0-50.9-16.4-50.9-28.4c0-18.6,24.1-24.9,46.4-24.9
			c35.1,0,50.2,15.3,50.2,28.4C462.1,516.2,441.7,523.6,416.5,523.6" />
		</g>
	</g>
</svg>