<?xml version="1.0" encoding="utf-8"?>
<!-- Generator: Adobe Illustrator 26.0.3, SVG Export Plug-In . SVG Version: 6.00 Build 0)  -->
<svg version="1.1" id="Layer_1" xmlns="http://www.w3.org/2000/svg" xmlns:xlink="http://www.w3.org/1999/xlink" x="0px"
	y="0px" viewBox="0 0 923.1 213.3" style="enable-background:new 0 0 923.1 213.3;" xml:space="preserve">
	<style type="text/css">
		.alitalia-0 {
			fill: #BE210C;
		}

		.alitalia-1 {
			fill: #00663F;
		}
	</style>
	<path class="alitalia-0" d="M195.8,213.3l17.3-122.8l-118,122.8" />
	<path class="alitalia-1" d="M236.3,0c-22.5,0-38.2,5.8-58.5,27.8L0,213.3h67.7L243.1,30.7l-25.7,182.6h52L299.4,0 M561.5,184.6
	c-2.6-2-4-5-4-9c0-9.5,5.8-16.6,17-18.5c2.3-0.4,7.4-0.6,10.3-0.6h14.9l-4.4,31.2h-21.9C568,187.6,564.2,186.6,561.5,184.6
	 M550.5,84.9l-16.1,26.2h56.4c10.9,0,13.6,3.3,13.6,9.5c0,1.8-0.3,4.2-0.7,6.8c-0.2,0.6-0.3,1.8-0.5,3.4h-23.2
	c-24,0-39.5,3.1-51.7,15.5c-6.9,7.1-12.1,19.1-12.1,34.5c0,11.9,5.1,21.1,13.9,26.4c5.9,3.5,16.6,6.2,32.3,6.2h75l10.5-74.9
	c0.9-6.7,2-13.5,2-22.5c0-10.6-4.9-20.7-17.9-26.4c-7.3-3.1-17.1-4.6-30-4.6L550.5,84.9z M834.8,184.6c-2.7-2-4-5-4-9
	c0-9.5,5.8-16.6,17-18.5c2.3-0.4,7.4-0.6,10.3-0.6h14.9l-4.4,31.2h-21.9C841.3,187.6,837.5,186.6,834.8,184.6 M813.3,84.9l-3.7,26.2
	h54.5c10.8,0,13.6,3.3,13.6,9.5c0,1.8-0.3,4.2-0.7,6.8c-0.2,0.6-0.3,1.8-0.5,3.4h-23.2c-24,0-39.5,3.1-51.7,15.5
	c-6.9,7.1-12.1,19.1-12.1,34.5c0,11.9,5.1,21.1,13.8,26.4c5.9,3.5,16.6,6.2,32.3,6.2h75l10.5-74.9c1-6.7,2-13.5,2-22.5
	c0-10.6-4.9-20.7-17.9-26.4c-7.3-3.1-17.1-4.6-30-4.6L813.3,84.9z M376.6,84.9l-18,128.4h45.6l18-128.4L376.6,84.9z M743.3,84.9
	l-18,128.4h45.6l18-128.4L743.3,84.9z M313.7,53.5l-22.5,159.8h45.6l22.5-159.8L313.7,53.5z M381.1,53.5l-3.1,22h45.6l3.1-22
	L381.1,53.5z M448.1,53.5L431.5,172c-0.9,6.6-1.5,11.7-1.5,15c0,4.8,0.4,7.1,1.1,10c3,11.7,12.1,16.2,25.8,16.2h43.7l3.9-26.2h-18
	c-7.6,0-10.3-2.4-10.3-7.4c0-1.6,0.2-3.7,0.6-6.4l8.7-62.2h31l16.1-26.2h-43.4l4.4-31.4L448.1,53.5z M680.6,53.5l-22.5,159.8h45.6
	l22.5-159.8L680.6,53.5z M747.7,53.5l-3.1,22h45.6l3.1-22" />
</svg>