<?xml version="1.0" encoding="utf-8"?>
<!-- Generator: Adobe Illustrator 26.0.3, SVG Export Plug-In . SVG Version: 6.00 Build 0)  -->
<svg version="1.1" id="Layer_1" xmlns="http://www.w3.org/2000/svg" xmlns:xlink="http://www.w3.org/1999/xlink" x="0px"
	y="0px" viewBox="0 0 923.5 235.4" style="enable-background:new 0 0 923.5 235.4;" xml:space="preserve">
	<style type="text/css">
		.ana-0 {
			fill: #00B3F0;
		}

		.ana-1 {
			fill: #223F9A;
		}

		.ana-2 {
			clip-path: url(#SVGID_00000002359836277121872040000011363563491527986604_);
		}
	</style>
	<path class="ana-0" d="M885.7,0l-136,235.4h37.9L923.5,0H885.7z" />
	<path class="ana-1" d="M749.8,235.4L885.7,0H734.5L598.6,235.4L749.8,235.4z" />
	<g>
		<defs>
			<rect id="SVGID_1_" x="-51.3" y="-49.4" width="1021.1" height="349.3" />
		</defs>
		<clipPath id="SVGID_00000154424007500551876020000014835211649765591185_">
			<use xlink:href="#SVGID_1_" style="overflow:visible;" />
		</clipPath>

		<g transform="matrix(3.30136 0 0 -3.30136 -2374.0332 173.0809)"
			style="clip-path:url(#SVGID_00000154424007500551876020000014835211649765591185_);">
			<path class="ana-1" d="M799.1,28.7c0.1,0.6,0.7,1,1.3,1c0.5,0,1.1-0.4,1.2-0.9l13.1-47.7h21.5l10.9,62h-9.4l-8.4-47.7
			c-0.1-0.6-0.6-1.1-1.2-1.1c-0.6,0-1.1,0.4-1.2,1l-13.1,47.8h-21.4l-10.9-62h9.4L799.1,28.7 M762.4,2.2l-1.8,27.8
			c0,0.6-0.4,1.2-1,1.4c-0.7,0.2-1.4-0.2-1.6-0.8l-28-49.4h-10.7l35.1,62H775l4.1-62h-15.3l-0.4,6.8c-0.1,1.4-1.2,2.6-2.6,2.6h-23.2
			l5.2,9.2h17.4C761.5-0.3,762.5,0.8,762.4,2.2 M879,2l-2.4,27.5c-0.1,0.7-0.7,1.3-1.4,1.3c-0.5,0-0.9-0.3-1.2-0.6l-25.2-49h-10.4
			l31.8,62h20.6l5.5-62h-15.4l-0.6,6.8c-0.1,1.5-1.2,2.6-2.6,2.6h-21.7l4.7,9.2h16.1C878.1-0.3,879.1,0.9,879,2" />
		</g>
	</g>
</svg>