<?xml version="1.0" encoding="UTF-8" standalone="no"?>
<!-- Created with Inkscape (http://www.inkscape.org/) -->

<svg
   xmlns:dc="http://purl.org/dc/elements/1.1/"
   xmlns:cc="http://creativecommons.org/ns#"
   xmlns:rdf="http://www.w3.org/1999/02/22-rdf-syntax-ns#"
   xmlns:svg="http://www.w3.org/2000/svg"
   xmlns="http://www.w3.org/2000/svg"
   xmlns:sodipodi="http://sodipodi.sourceforge.net/DTD/sodipodi-0.dtd"
   xmlns:inkscape="http://www.inkscape.org/namespaces/inkscape"
   width="209.22014"
   height="45.824081"
   viewBox="0 0 55.356162 12.124288"
   version="1.1"
   id="svg3250"
   inkscape:version="0.92.0 r15299"
   sodipodi:docname="china eastern.svg">
  <defs
     id="defs3244">
    <polygon
       points="0,44.84202 0,0.018933297 52.141388,0.018933297 52.141388,44.84202 26.070694,44.84202 "
       id="path-1" />
    <polygon
       points="266.64433,0.018726708 0,0.018726708 0,44.841813 266.64433,44.841813 "
       id="path-3" />
  </defs>
  <sodipodi:namedview
     id="base"
     pagecolor="#ffffff"
     bordercolor="#666666"
     borderopacity="1.0"
     inkscape:pageopacity="0.0"
     inkscape:pageshadow="2"
     inkscape:zoom="4.3079405"
     inkscape:cx="103.89762"
     inkscape:cy="22.412059"
     inkscape:document-units="mm"
     inkscape:current-layer="layer1"
     showgrid="false"
     fit-margin-top="0"
     fit-margin-left="0"
     fit-margin-right="0"
     fit-margin-bottom="0"
     units="px"
     inkscape:window-width="1280"
     inkscape:window-height="744"
     inkscape:window-x="-4"
     inkscape:window-y="-4"
     inkscape:window-maximized="1" />
  <metadata
     id="metadata3247">
    <rdf:RDF>
      <cc:Work
         rdf:about="">
        <dc:format>image/svg+xml</dc:format>
        <dc:type
           rdf:resource="http://purl.org/dc/dcmitype/StillImage" />
        <dc:title></dc:title>
      </cc:Work>
    </rdf:RDF>
  </metadata>
  <g
     inkscape:label="Layer 1"
     inkscape:groupmode="layer"
     id="layer1"
     transform="translate(-203.77564,-320.28772)">
    <g
       id="g3454"
       transform="translate(0.13229037,-0.13228352)">
      <path
         style="fill:#1b1d80;fill-rule:evenodd;stroke:none;stroke-width:0.26458332"
         inkscape:connector-curvature="0"
         d="m 218.24841,324.78017 c -4.86888,0.135 -9.58093,1.23997 -10.01876,2.80687 -0.0401,0.14211 -0.0501,0.28264 -0.0501,0.4258 0,1.54317 3.2214,2.07101 6.70878,2.50577 0.0598,0.007 0.0572,-0.0406 0.0377,-0.0749 -0.0137,-0.0243 -0.0659,-0.11654 -0.10174,-0.18008 -0.014,-0.0248 -0.029,-0.0411 -0.0778,-0.0551 -1.9087,-0.48565 -3.8464,-1.19515 -3.8464,-1.85666 0,-1.2513 3.24671,-2.49074 6.94391,-3.05734 0.12205,-0.0235 0.1803,-0.0464 0.26228,-0.11152 0.10254,-0.0817 0.32818,-0.26603 0.4236,-0.34222 0.0622,-0.0517 0.0401,-0.068 0.0166,-0.0675 -0.0991,0.002 -0.19823,0.004 -0.29813,0.007 z"
         id="Fill-1" />
      <path
         transform="matrix(0.26458333,0,0,0.26458333,203.77572,320.54755)"
         mask="none"
         id="Fill-3"
         d="M 34.343074,44.548056 C 24.783877,42.152495 15.310358,34.12976 16.802768,26.696946 18.9836,15.852152 33.567977,5.3471618 51.768809,0.41055361 c 0.410463,-0.1215717 0.561896,-0.3926168 0.03587,-0.3926168 H 26.963712 c -4.300892,0 -5.233399,0.55604105 -6.89916,2.81009989 C 19.176876,4.0268134 11.74272,14.277699 8.3902758,18.89842 7.9588914,19.448482 7.349175,20.040397 5.9922571,20.040397 H -2.988806e-4 c 0,0.002 0,0.003 0.004981341,0.006 C 7.1060854,40.110689 14.734515,44.84202 22.375895,44.84202 h 12.064814 c 0.170361,0 0.340723,-0.183354 -0.09763,-0.293964"
         inkscape:connector-curvature="0"
         style="fill:#df0011;fill-rule:evenodd;stroke:none;stroke-width:1" />
      <path
         style="fill:#df0011;fill-rule:evenodd;stroke:none;stroke-width:0.26458332"
         inkscape:connector-curvature="0"
         d="m 243.15104,321.657 v 0.45507 h -1.9999 c -0.18715,0 -0.33978,0.15107 -0.33978,0.33932 0,0.18694 0.15263,0.33906 0.33978,0.33906 0,0 0.83797,-0.008 0.97768,-0.01 0,0.0409 -0.002,0.82866 -0.002,0.83025 -0.0474,1.31669 -0.66189,2.11503 -0.92522,2.45488 l -0.0712,0.0952 c -0.0815,0.0617 -0.12996,0.15925 -0.12996,0.26603 0,0.18667 0.15289,0.33959 0.33952,0.33959 0.10359,0 0.21799,-0.0488 0.27888,-0.11786 -0.003,10e-4 0.007,-0.004 0.007,-0.004 0.24066,-0.19062 1.03672,-0.94072 1.18987,-2.63628 h 2.15648 c 0,0.34618 -0.01,0.75247 -0.03,1.2455 -0.0351,0.85293 -0.62499,0.83289 -0.90967,0.82129 l -0.0171,-5.3e-4 c -0.24858,-0.0264 -0.62104,-0.11706 -0.62367,-0.11706 l -0.0915,-0.0111 c -0.18689,0 -0.33899,0.1516 -0.33899,0.33906 0,0.15635 0.10571,0.29187 0.25754,0.32904 0,0.004 0.35954,0.12761 0.69326,0.13262 l 0.0667,0.001 c 0.42544,0.006 0.90624,0.0132 1.24549,-0.3148 0.28653,-0.27868 0.42913,-0.753 0.43809,-1.44799 0.0153,-0.28738 0.0219,-0.74667 0.0219,-1.00874 0,-0.0817 0,-0.14422 -0.002,-0.17586 -0.0145,-0.26708 -0.21694,-0.46746 -0.46788,-0.46746 0,0 -2.14989,-0.003 -2.36341,-0.003 v -0.5492 c 0.0414,0 3.02898,0.01 3.02898,0.01 0.18637,0 0.33925,-0.15212 0.33925,-0.33906 0,-0.18825 -0.15288,-0.33932 -0.33925,-0.33932 h -2.01861 v -0.46456 c 0,-0.17849 -0.16633,-0.32904 -0.35981,-0.32904 -0.19032,0 -0.35032,0.15529 -0.35032,0.33853"
         id="Fill-6" />
      <path
         style="fill:#df0011;fill-rule:evenodd;stroke:none;stroke-width:0.26458332"
         inkscape:connector-curvature="0"
         d="m 254.16994,324.49026 c -0.18795,0 -0.33951,0.1516 -0.33951,0.33932 0,0.18746 0.15156,0.33985 0.33951,0.33985 h 1.68306 v 0.86295 h -2.00412 c -0.18636,0 -0.33951,0.15292 -0.33951,0.33932 0,0.18667 0.15315,0.33959 0.33951,0.33959 h 4.67936 c 0.18609,0 0.33898,-0.15292 0.33898,-0.33959 0,-0.1864 -0.15289,-0.33932 -0.33898,-0.33932 h -1.97776 v -0.86295 h 1.68411 c 0.18742,0 0.34004,-0.15239 0.34004,-0.33985 0,-0.18772 -0.15262,-0.33932 -0.34004,-0.33932 z"
         id="Fill-8" />
      <path
         style="fill:#df0011;fill-rule:evenodd;stroke:none;stroke-width:0.26458332"
         inkscape:connector-curvature="0"
         d="m 255.84973,321.66831 v 0.2278 h -1.74579 c -0.25938,0.003 -0.47,0.21409 -0.47,0.47168 l 8e-4,0.0119 v 0.6805 c 0,0.18745 0.15183,0.33932 0.33872,0.33932 0.1882,0 0.33898,-0.15187 0.33898,-0.33932 v -0.48592 h 0.79105 c 0.003,0.0214 0.007,0.0591 0.007,0.10942 0,0.0704 -0.007,0.16373 -0.0348,0.26075 -0.0981,0.34354 -0.44653,0.58268 -1.03725,0.71081 l -0.0227,0.005 c -0.17291,0.0185 -0.29971,0.15582 -0.29971,0.32772 0,0.18324 0.1637,0.33906 0.3577,0.33906 l 0.0374,-0.003 c 1.31613,-0.12128 1.66592,-0.80731 1.72998,-1.36283 0.0164,-0.15424 0.0192,-0.32298 0.0192,-0.38705 v -0.004 c 0.038,0 0.62525,0.004 0.66426,0.004 v 1.23338 c 0.002,0.25495 0.20218,0.45955 0.45761,0.46614 h 0.98743 c 0.51216,0 0.72858,-0.35699 0.73069,-0.3591 0.039,-0.057 0.059,-0.14606 0.0627,-0.21066 0.01,-0.1632 -0.0622,-0.2067 -0.13865,-0.25522 l -0.0174,-0.0119 c -0.12126,-0.0762 -0.25332,-0.0519 -0.39645,0.0709 -0.16844,0.14449 -0.31104,0.12234 -0.31289,0.12234 -0.003,0 -0.57806,-0.002 -0.57806,-0.002 0,0 -0.0535,10e-4 -0.0875,-0.0327 -0.0208,-0.0195 -0.0316,-0.0488 -0.0316,-0.087 0,0 0.002,-0.89326 0.002,-0.93412 h 0.9131 c -0.0119,0.0443 -0.0733,0.27314 -0.0733,0.27314 -0.006,0.0266 -0.0108,0.0535 -0.0108,0.0799 0,0.0588 0.0166,0.1168 0.049,0.169 0.0469,0.0762 0.12231,0.13051 0.21167,0.15134 0.18294,0.0432 0.39645,-0.086 0.43915,-0.26576 0.006,-0.0148 0.13654,-0.37518 0.13206,-0.58347 -0.005,-0.33115 -0.16501,-0.49646 -0.49029,-0.50411 -0.0124,0 -1.63403,0.002 -1.83515,0.002 v -0.22779 c 0,-0.18403 -0.16001,-0.33958 -0.34953,-0.33958 -0.18768,0 -0.33819,0.15239 -0.33819,0.33958"
         id="Fill-10" />
      <path
         style="fill:#df0011;fill-rule:evenodd;stroke:none;stroke-width:0.26458332"
         inkscape:connector-curvature="0"
         d="m 231.13578,322.30892 c -0.0472,0.0527 -0.0654,0.12629 -0.0577,0.21566 l 0.001,0.007 c 0,0.004 0.006,0.0596 0.009,0.0941 -0.0467,0 -1.56154,0.004 -1.56154,0.004 -0.13997,0 -0.29734,0.111 -0.29734,0.27024 0,0.14712 0.12916,0.26972 0.28284,0.26972 0,0 1.61453,0.004 1.64853,0.004 0.0988,0.61959 0.23012,1.14057 0.39935,1.59063 -0.21246,0.3322 -0.41121,0.59744 -0.49451,0.70237 -0.038,0.0398 -0.0701,0.16505 -0.0701,0.2597 0,0.0382 0.004,0.072 0.0169,0.0923 0.0443,0.0765 0.11229,0.12524 0.19321,0.13552 0.0894,0.0113 0.18188,-0.0248 0.25938,-0.10283 0.0751,-0.0751 0.11888,-0.14501 0.18478,-0.25205 0,0 0.14076,-0.21409 0.17239,-0.26234 0.15921,0.30901 0.29892,0.51387 0.30077,0.51598 0.0509,0.0833 0.14365,0.13578 0.23987,0.13578 0.10728,0 0.20534,-0.0627 0.25199,-0.15951 l 0.0126,-0.0256 c 0.0474,-0.0886 0.17134,-0.32614 0.2549,-0.81785 v -0.002 c 0.008,-0.10625 -0.0158,-0.19325 -0.0691,-0.25389 -0.0424,-0.0501 -0.10254,-0.0773 -0.17292,-0.0817 -0.10755,-0.004 -0.22907,0.0577 -0.25701,0.18825 0,0 -0.0456,0.20407 -0.0699,0.309 -0.0366,-0.0809 -0.13285,-0.30135 -0.1405,-0.31638 0.25859,-0.43028 0.43599,-0.82946 0.5438,-1.21835 0.001,-0.003 0.009,-0.10098 0.009,-0.10098 -0.005,-0.0743 -0.038,-0.14026 -0.0925,-0.18957 -0.0553,-0.0488 -0.12494,-0.073 -0.19691,-0.0677 -0.11387,0.006 -0.21272,0.0846 -0.24567,0.19484 -0.001,0.003 -0.14128,0.43344 -0.2686,0.69552 -0.0775,-0.25812 -0.14656,-0.56897 -0.2151,-0.9692 h 0.90862 c 0.14867,0 0.26913,-0.1226 0.26913,-0.27393 0,-0.15187 -0.12046,-0.27447 -0.26913,-0.27447 h -0.14392 c 7.9e-4,-0.0108 0.002,-0.0203 0.002,-0.0282 0,-0.0691 -0.0227,-0.13578 -0.0677,-0.18825 l -0.0329,-0.0396 c -0.0498,-0.0596 -0.1202,-0.0973 -0.1969,-0.10177 -0.078,-0.007 -0.15289,0.0169 -0.21299,0.0672 -0.0361,0.0309 -0.0551,0.0722 -0.0562,0.12129 v 0.004 c 0,0.0527 0.0295,0.10994 0.0691,0.15845 -0.0635,7.9e-4 -0.30419,0.003 -0.33345,0.003 -0.004,-0.0279 -0.0187,-0.1168 -0.0187,-0.1168 -0.0211,-0.18456 -0.11387,-0.27789 -0.2773,-0.27789 -0.0878,0 -0.16238,0.0293 -0.21141,0.0817"
         id="Fill-12" />
      <path
         style="fill:#df0011;fill-rule:evenodd;stroke:none;stroke-width:0.26458332"
         inkscape:connector-curvature="0"
         d="m 232.96216,325.97922 c -0.001,0.0556 -0.0285,0.0836 -0.0846,0.0836 l -1.5017,-0.003 -2.1433,-0.004 c -0.0496,0 -0.0741,-0.0261 -0.0741,-0.0815 l 0.002,-3.70119 c 0,-0.0264 0.006,-0.0456 0.019,-0.059 0.0129,-0.0124 0.0327,-0.0187 0.0604,-0.0187 l 3.64842,0.001 c 0.0306,0 0.0511,0.007 0.0662,0.0208 0.0111,0.0127 0.0174,0.0314 0.0174,0.0548 z m 0.18715,-4.42913 -7.9e-4,-5.3e-4 -4.1635,0.001 c -0.2578,0.004 -0.46709,0.21594 -0.46709,0.47273 v 4.20503 c 0.002,0.2597 0.21061,0.47221 0.46709,0.47721 h 4.1635 c 0.26043,-0.002 0.4721,-0.21408 0.4721,-0.47326 0.002,0 0.002,-4.20977 0.002,-4.20977 0,-0.26049 -0.2122,-0.47273 -0.4729,-0.47273 z"
         id="Fill-14" />
      <path
         transform="matrix(0.26458333,0,0,0.26458333,203.77572,320.5476)"
         style="fill:#df0011;fill-rule:evenodd;stroke:none;stroke-width:1"
         inkscape:connector-curvature="0"
         d="m 98.466213,14.465829 h 2.983827 V 12.468864 H 98.466213 Z M 103.26823,11.1246 c -0.14745,-0.364715 -0.48917,-0.600883 -0.87672,-0.600883 h -4.868764 c -0.287921,0 -0.558906,0.132533 -0.740227,0.35774 -0.139478,0.178372 -0.216191,0.39461 -0.216191,0.624799 v 3.928161 l 0.02092,0.196308 c 0.08767,0.454399 0.478209,0.780251 0.932507,0.780251 h 4.871755 l 0.28095,-0.04285 c 0.4005,-0.120575 0.67746,-0.504223 0.67746,-0.930721 v -3.93115 c 0,-0.129544 -0.0289,-0.262077 -0.0817,-0.381656 z"
         id="Fill-16"
         mask="none" />
      <path
         transform="matrix(0.26458333,0,0,0.26458333,203.77572,320.5476)"
         style="fill:#df0011;fill-rule:evenodd;stroke:none;stroke-width:1"
         inkscape:connector-curvature="0"
         d="m 101.63066,16.825217 c -0.0249,0.007 -2.48569,0.796195 -4.17038,0.776265 -0.796018,-0.009 -1.19353,0.541094 -1.22541,1.049303 -0.01594,0.226203 0.0807,0.467354 0.269989,0.666652 0.249067,0.263073 0.612705,0.435465 0.926529,0.439451 2.894162,0.01893 5.076982,-0.95065 5.094922,-0.964601 h 0.006 c 0.54596,-0.252112 0.99827,-0.859971 0.7482,-1.486762 -0.3736,-0.937697 -1.63886,-0.484294 -1.64982,-0.480308"
         id="Fill-18"
         mask="none" />
      <path
         transform="matrix(0.26458333,0,0,0.26458333,203.77572,320.5476)"
         style="fill:#df0011;fill-rule:evenodd;stroke:none;stroke-width:1"
         inkscape:connector-curvature="0"
         d="m 86.403491,15.232229 c 0,0.06079 -0.01,0.188337 -0.08169,0.269052 -0.05181,0.05082 -0.121544,0.07872 -0.211209,0.07872 H 80.439827 V 8.4222209 h 5.626926 c 0.115567,0 0.202242,0.027902 0.255044,0.088688 0.05778,0.061782 0.06476,0.1494734 0.06476,0.183354 v 0.022919 l 0.01694,6.4851521 z m -8.536029,0.352757 c -0.161396,0 -5.702642,-0.005 -5.702642,-0.005 -0.02391,0 -0.258034,-0.01196 -0.272978,-0.319873 V 8.7131958 c 0,-0.031888 0.003,-0.1375155 0.07273,-0.2122522 0.04981,-0.052814 0.126526,-0.078723 0.218183,-0.078723 0,0 5.523313,0.012954 5.684709,0.012954 z m 9.423705,-9.7317146 h -0.01096 -6.827429 V 4.0007977 c 0,-0.7134863 -0.580825,-1.2944396 -1.294153,-1.2944396 -0.714325,0 -1.291164,0.5809533 -1.291164,1.2944396 v 1.8524737 h -6.799534 c -0.979332,0 -1.774355,0.8131353 -1.774355,1.7906913 l 0.002,8.7152953 c 0,0.975563 0.79303,1.778734 1.772362,1.786706 0,0 6.032407,0.01196 6.799534,0.01196 v 4.174293 c 0,0.714483 0.576839,1.29444 1.291164,1.29444 0.713328,0 1.294153,-0.579957 1.294153,-1.29444 v -4.166321 c 0.154421,0 6.83241,0.01395 6.83241,0.01395 0.990291,0 1.791291,-0.803171 1.791291,-1.786706 V 7.6359908 c 0,-0.9845314 -0.801,-1.7827194 -1.785313,-1.7827194 z"
         id="Fill-19"
         mask="none" />
      <path
         transform="matrix(0.26458333,0,0,0.26458333,203.77572,320.5476)"
         style="fill:#df0011;fill-rule:evenodd;stroke:none;stroke-width:1"
         inkscape:connector-curvature="0"
         d="m 128.35178,14.583116 c 0,-0.136519 0.004,-1.130019 0.004,-1.261556 h 5.10986 c 0,0.131537 -0.0139,1.125037 -0.0159,1.261556 z m 0.004,-4.51609 h 5.10986 c 0,0.131537 -0.0139,1.128026 -0.0159,1.259563 h -5.09791 c 0,-0.131537 0.004,-1.128026 0.004,-1.259563 z m -2.63713,1.265542 H 120.551 c 0,-0.134526 0.002,-1.130019 0.003,-1.264545 h 5.16465 z m 0,3.262506 H 120.551 c 0,-0.135523 0.002,-1.12703 0.003,-1.262552 h 5.16465 z m 10.85933,5.907188 h -0.002 c -0.0349,-0.01295 -3.47598,-1.452881 -6.78559,-3.765733 h 4.25407 c 0.97734,0 1.76838,-0.794202 1.76838,-1.763786 l -0.007,-0.119578 v -0.137516 c 0,-0.813135 -0.0149,-4.9106995 -0.0149,-4.9106995 0,-0.9506508 -0.74322,-1.7219336 -1.69465,-1.7598002 0,0 -5.13378,-0.00299 -5.8212,-0.00299 V 6.8413902 c 0.15442,0 7.6095,-0.015944 7.6095,-0.015944 0.71532,0 1.27821,-0.5400972 1.27821,-1.2316608 0,-0.6935566 -0.58481,-1.2575696 -1.29614,-1.2575696 h -7.59157 V 4.0930726 c 0,-0.7025249 -0.57684,-1.2725168 -1.28021,-1.2725168 -0.70436,0 -1.27622,0.5699919 -1.27622,1.2725168 V 4.336216 h -7.58857 c -0.69839,0 -1.28021,0.564013 -1.28021,1.2575696 0,0.6885741 0.58182,1.2476046 1.28021,1.2476046 h 7.58857 v 1.2007697 h -5.83913 c -1.1198,0.040856 -1.76339,0.6845881 -1.76339,1.7767405 l -0.008,5.1259416 c 0.011,0.008 0.011,0.03089 0.011,0.03089 0,0.972573 0.79303,1.765779 1.76538,1.765779 0,0 3.78184,-0.005 4.22119,-0.005 -2.41296,1.793681 -6.81646,3.658113 -6.86429,3.678042 -0.43636,0.223214 -0.70436,0.663662 -0.70436,1.147956 0,0.707508 0.57086,1.278496 1.2822,1.278496 l 0.32777,-0.04684 c 0.0568,0 4.73427,-1.409036 7.5567,-4.480216 0.004,0.363718 0,4.253016 0,4.253016 0,0.708504 0.5868,1.278496 1.29116,1.278496 0.70337,0 1.26726,-0.569992 1.26726,-1.278496 0,0 0.004,-3.46579 0,-4.355655 2.06128,2.311856 7.08446,4.582855 7.14025,4.608764 0.19129,0.116589 0.72628,0.191326 0.95543,0.191326 0.66949,0 1.19353,-0.579957 1.19353,-1.319352 0,-0.534119 -0.50312,-0.966595 -0.97336,-1.189809 z"
         id="Fill-20"
         mask="none" />
      <path
         transform="matrix(0.26458333,0,0,0.26458333,203.77572,320.5476)"
         style="fill:#df0011;fill-rule:evenodd;stroke:none;stroke-width:1"
         inkscape:connector-curvature="0"
         d="m 176.96611,9.2786038 h -0.1624 l -0.0618,0.011958 -0.0568,0.00399 c -0.89266,0 -1.60499,0.7523492 -1.65182,1.7548172 v 6.127413 c -0.11158,2.555995 -1.18456,4.053719 -1.40374,4.331739 -0.006,0.003 -0.0458,0.0568 -0.0458,0.0568 l -0.0329,0.04783 c -0.0199,0.03488 -0.22018,0.418525 -0.22018,0.714483 0,0.684588 0.5599,1.246608 1.24434,1.246608 0.39652,0 0.76015,-0.182358 0.99727,-0.497248 0.004,-0.004 2.14596,-2.232136 2.14596,-5.73679 v -0.03388 c 0.004,-0.551059 -0.0289,-5.430867 -0.0289,-5.430867 h 2.17385 c 0,0.56202 0.003,4.12148 0.003,6.70438 0,1.403057 0,2.514143 -0.003,2.690521 0.013,1.035353 0.65655,2.081667 1.86502,2.077681 l 1.52828,-0.002 c 0.0428,0.006 1.31108,0.112603 1.98855,-2.188291 0,-0.01 0.0468,-0.190329 0.0468,-0.190329 l 0.0787,-0.475326 0.002,-0.07773 c 0.0199,-0.258091 0.0558,-0.800181 -0.84782,-1.076208 -0.54795,-0.168407 -0.99827,0.07274 -1.21147,0.644728 l -0.12752,0.362722 c -0.1066,0.354751 -0.15641,0.480308 -0.3467,0.495256 0,0 -0.33076,0.002 -0.47721,0.004 v -9.808445 c 0,-0.01694 -0.0458,-1.6561651 -1.71857,-1.7578071 h -3.67722"
         id="Fill-21"
         mask="none" />
      <path
         transform="matrix(0.26458333,0,0,0.26458333,203.77572,320.5476)"
         style="fill:#df0011;fill-rule:evenodd;stroke:none;stroke-width:1"
         inkscape:connector-curvature="0"
         d="m 177.20551,4.1150951 v 1.4997164 h -2.33227 c -0.74421,0 -1.34994,0.5630165 -1.34994,1.2486011 0,0.6905671 0.60573,1.2545801 1.34994,1.2545801 h 7.9313 c 0.73724,0 1.34197,-0.564013 1.34197,-1.2545801 0,-0.6855846 -0.60473,-1.2486011 -1.34197,-1.2486011 h -3.09043 c -0.004,-0.1395085 0,-1.5056954 0,-1.5056954 0,-0.6885741 -0.56189,-1.2555765 -1.2553,-1.2555765 -0.69439,0 -1.2533,0.5670024 -1.2533,1.2615555"
         id="Fill-22"
         mask="none" />
      <path
         transform="matrix(0.26458333,0,0,0.26458333,203.77572,320.5476)"
         style="fill:#df0011;fill-rule:evenodd;stroke:none;stroke-width:1"
         inkscape:connector-curvature="0"
         d="m 170.62127,12.491883 c -0.12553,0 -0.92155,0.004 -1.15667,0.004 0.17036,-0.199298 0.28194,-0.441444 0.28194,-0.719465 0,-0.06776 -9.9e-4,-0.13353 -0.013,-0.196308 l -0.27497,-1.7528251 c -0.0408,-0.3069187 -0.20025,-0.564013 -0.43138,-0.7274372 -0.22018,-0.1554524 -0.49814,-0.2102593 -0.77111,-0.1574454 -0.51806,0.1006455 -0.87572,0.567999 -0.87572,1.1090927 0,0.05979 0.003,0.122568 0.0119,0.184351 l 0.27298,1.754817 c 0.0309,0.201291 0.10162,0.361726 0.19626,0.50522 -0.21419,0 -0.97036,0 -1.09489,9.97e-4 V 8.1282566 c 0.14944,0 3.70113,-0.00897 3.85456,-0.00897 z m 2.67199,-0.01295 h -0.12354 V 6.8208625 c 0,-0.7095004 -0.5609,-1.2844747 -1.24732,-1.2844747 0,0 -1.87498,0.00698 -2.06527,0.00698 0.0408,-0.1594383 0.22117,-0.8749176 0.22117,-0.8749176 l 0.0717,-0.193319 c 0.0249,-0.1026384 0.0399,-0.2042803 0.0399,-0.3039292 0,-0.2252066 -0.0618,-0.4444342 -0.17833,-0.6367567 -0.17036,-0.2859924 -0.44334,-0.4912692 -0.76513,-0.5729813 -0.32479,-0.079719 -0.65953,-0.029895 -0.94446,0.1424979 -0.28494,0.1703997 -0.48419,0.4404483 -0.56389,0.7672968 0,0 -0.39453,1.5714637 -0.42541,1.6830705 -0.11357,0 -1.73749,0.00996 -1.73749,0.00996 -0.015,-0.00996 -0.0518,-0.00996 -0.0518,-0.00996 -0.69041,0 -1.25032,0.5809533 -1.25032,1.2864677 V 12.49986 c -0.71033,0.006 -1.28518,0.557038 -1.28518,1.23465 0,0.674624 0.56986,1.224686 1.27921,1.227675 -0.003,0.132533 -0.01,0.717473 -0.01,0.717473 0.003,-0.006 -0.008,0.126554 -0.008,0.126554 l 0.001,0.04285 c -0.0199,0.982538 -0.0807,1.889344 -0.17634,2.718423 0,-0.007 -0.0129,0.122568 -0.0129,0.122568 -0.28792,2.423462 -0.76215,3.379095 -0.76513,3.388064 -0.0498,0.173389 -0.0837,0.345781 -0.0837,0.518174 0,0.678609 0.55891,1.235647 1.24334,1.235647 0.4802,0 0.92653,-0.283999 1.12877,-0.720462 0.0548,-0.101642 0.61271,-1.139984 0.94447,-4.124469 l 0.0169,-0.180365 c 0.0917,-0.910791 0.1604,-1.919238 0.19627,-2.99445 0,-0.006 0.0169,-0.629781 0.0169,-0.847016 0.12753,0 0.78407,-0.003 0.91159,-0.003 v 3.082142 c 0,0.671634 0.41943,1.15792 1.00026,1.15792 0.5858,0 1.02914,-0.497248 1.02914,-1.15792 v -3.094099 c 0.12653,0 0.84583,-0.005 0.97734,-0.005 v 5.964985 c 0,0.105628 -0.0319,0.184351 -0.10162,0.24414 -0.26202,0.217235 -0.93649,0.09865 -1.19054,0.05381 l -0.13749,-0.01993 c -0.67447,0.0279 -1.13375,0.513192 -1.13375,1.198776 0,0.54508 0.20523,0.720462 0.4284,0.90282 l 0.0578,0.04783 c 0.30386,0.260084 0.80498,0.282007 0.87074,0.278021 1.61395,0.06278 2.49465,-0.13054 3.02965,-0.649711 0.46327,-0.453403 0.66949,-1.179844 0.66949,-2.339757 V 20.420949 14.94524 h 0.12354 c 0.68145,0 1.18257,-0.517178 1.18257,-1.233654 0,-0.714483 -0.50112,-1.232657 -1.18257,-1.232657 z"
         id="Fill-23"
         mask="none" />
      <path
         transform="matrix(0.26458333,0,0,0.26458333,203.77572,320.5476)"
         style="fill:#1b1d80;fill-rule:evenodd;stroke:none;stroke-width:1"
         inkscape:connector-curvature="0"
         d="m 107.91273,29.636582 c -0.2132,0.258091 -0.3188,0.651704 -0.3188,1.182833 v 6.790078 c -0.27597,-0.467353 -3.9512,-6.661531 -3.9512,-6.661531 -0.6685,-1.131016 -1.35792,-1.704993 -2.04634,-1.704993 -0.59577,0 -1.02217,0.146484 -1.25829,0.430483 -0.23512,0.284996 -0.3467,0.796195 -0.3467,1.563492 v 9.143786 c 0,0.539101 0.09963,0.943675 0.30984,1.192798 0.21121,0.257094 0.54994,0.387634 1.00324,0.387634 0.44633,0 0.78207,-0.132533 1.00125,-0.39461 0.22117,-0.256098 0.32578,-0.656686 0.32578,-1.185822 v -6.770149 c 0.27896,0.463368 4.12555,6.938556 4.12555,6.938556 0.36762,0.621809 0.67946,1.005457 0.94945,1.165892 0.26301,0.162428 0.63163,0.246133 1.08792,0.246133 0.52802,0 0.90661,-0.152463 1.12379,-0.444434 0.2152,-0.291972 0.3198,-0.791213 0.3198,-1.523632 v -9.173681 c 0,-0.535115 -0.1046,-0.9367 -0.3198,-1.190805 -0.2122,-0.257094 -0.54994,-0.385641 -0.99627,-0.385641 -0.45529,0 -0.79103,0.128547 -1.00922,0.393613"
         id="Fill-24"
         mask="none" />
      <path
         transform="matrix(0.26458333,0,0,0.26458333,203.77572,320.5476)"
         style="fill:#1b1d80;fill-rule:evenodd;stroke:none;stroke-width:1"
         inkscape:connector-curvature="0"
         d="m 95.176235,29.597619 c -0.223165,0.236168 -0.335743,0.593908 -0.335743,1.06724 v 9.877203 c 0,0.461374 0.120549,0.814131 0.340724,1.057275 0.224161,0.240154 0.561896,0.361725 0.997265,0.361725 0.446328,0 0.787052,-0.121571 1.011213,-0.361725 0.218182,-0.232182 0.331757,-0.587929 0.331757,-1.057275 v -9.877203 c 0,-0.46536 -0.115567,-0.826089 -0.335742,-1.062257 -0.226153,-0.239158 -0.564885,-0.358737 -1.007228,-0.358737 -0.442343,0 -0.776093,0.119579 -1.002246,0.353754"
         id="Fill-25"
         mask="none" />
      <path
         transform="matrix(0.26458333,0,0,0.26458333,203.77572,320.5476)"
         style="fill:#1b1d80;fill-rule:evenodd;stroke:none;stroke-width:1"
         inkscape:connector-curvature="0"
         d="m 90.031005,29.597619 c -0.218183,0.236168 -0.33375,0.593908 -0.33375,1.06724 V 33.9742 h -4.893671 v -3.309341 c 0,-0.46536 -0.110586,-0.826089 -0.335743,-1.062257 -0.22416,-0.239158 -0.563888,-0.358737 -1.002246,-0.358737 -0.446329,0 -0.783067,0.119579 -1.006232,0.353754 -0.223164,0.236168 -0.329765,0.593908 -0.329765,1.06724 v 9.877203 c 0,0.461374 0.106601,0.814131 0.329765,1.057275 0.223165,0.237164 0.559903,0.361725 1.006232,0.361725 0.442343,0 0.790041,-0.121571 1.007227,-0.361725 0.223165,-0.232182 0.330762,-0.587929 0.330762,-1.057275 v -4.157354 h 4.893671 v 4.157354 c 0,0.464364 0.115567,0.819114 0.340724,1.057275 0.224161,0.240154 0.561896,0.361725 1.004239,0.361725 0.446328,0 0.791037,-0.121571 1.016194,-0.359732 0.220175,-0.234175 0.334746,-0.589922 0.334746,-1.059268 v -9.877203 c 0,-0.46536 -0.116563,-0.826089 -0.343712,-1.062257 -0.22715,-0.239158 -0.563889,-0.358737 -1.007228,-0.358737 -0.445332,0 -0.788049,0.119579 -1.011213,0.353754"
         id="Fill-26"
         mask="none" />
      <path
         transform="matrix(0.26458333,0,0,0.26458333,203.77572,320.5476)"
         style="fill:#1b1d80;fill-rule:evenodd;stroke:none;stroke-width:1"
         inkscape:connector-curvature="0"
         d="m 70.865486,30.855886 c -1.043093,1.182833 -1.572112,2.845974 -1.572112,4.950559 0,1.956109 0.524038,3.515615 1.551191,4.647627 1.031138,1.125036 2.46975,1.698017 4.262037,1.698017 0.850813,0 1.610966,-0.118582 2.255552,-0.343788 0.647575,-0.231186 1.266258,-0.603873 1.835127,-1.104111 0.34969,-0.31788 0.631634,-0.66964 0.844836,-1.041331 0.211209,-0.386638 0.323787,-0.745374 0.323787,-1.063254 0,-0.340799 -0.127522,-0.629781 -0.379578,-0.864953 -0.254049,-0.239157 -0.556914,-0.358736 -0.916567,-0.358736 -0.238109,0 -0.457288,0.06079 -0.649568,0.169403 -0.182317,0.104632 -0.388544,0.301937 -0.604735,0.580953 l -0.195268,0.33781 -0.272978,0.425501 c -0.223164,0.262077 -0.517063,0.467354 -0.874724,0.613838 -0.359653,0.138512 -0.770116,0.210259 -1.224414,0.210259 -1.029146,0 -1.833134,-0.356743 -2.386063,-1.064251 -0.558907,-0.705514 -0.841847,-1.733891 -0.841847,-3.044275 0,-1.284474 0.281944,-2.299897 0.836865,-3.028331 0.552929,-0.717472 1.322049,-1.083184 2.282452,-1.083184 0.458283,0 0.869742,0.07673 1.223418,0.226204 0.350686,0.145487 0.659529,0.37169 0.917563,0.67263 l 0.240101,0.345782 c 0.118556,0.193319 0.219179,0.328841 0.320798,0.422511 0.187299,0.176379 0.38456,0.313894 0.574847,0.399592 0.196265,0.08271 0.402493,0.13353 0.620676,0.13353 0.387548,0 0.695395,-0.122568 0.927526,-0.356743 0.23213,-0.231186 0.346701,-0.548069 0.346701,-0.929725 0,-0.348771 -0.108593,-0.713486 -0.332753,-1.089163 -0.222168,-0.369697 -0.527027,-0.701528 -0.911586,-0.987521 -0.552929,-0.430483 -1.144713,-0.74936 -1.763396,-0.949654 -0.61669,-0.206273 -1.302123,-0.306919 -2.039362,-0.306919 -1.869996,0 -3.348459,0.600883 -4.398526,1.781723"
         id="Fill-27"
         mask="none" />
      <path
         transform="matrix(0.26458333,0,0,0.26458333,203.77572,320.5476)"
         style="fill:#1b1d80;fill-rule:evenodd;stroke:none;stroke-width:1"
         inkscape:connector-curvature="0"
         d="m 115.5317,37.068399 c 0.0618,-0.190329 1.44857,-4.455303 1.58506,-4.869843 0.13549,0.410554 1.53027,4.679514 1.59303,4.869843 z m 7.08845,3.394043 c -0.0389,-0.122568 -0.10361,-0.340799 -0.10361,-0.340799 l -3.4441,-9.536403 c -0.21121,-0.567003 -0.43637,-0.918763 -0.6944,-1.083184 -0.25903,-0.158442 -0.65356,-0.235172 -1.20848,-0.235172 -0.59079,0 -0.99726,0.08072 -1.2533,0.250119 -0.25306,0.164421 -0.47423,0.530133 -0.67747,1.099128 l -3.38133,9.507505 c 0,-0.002 -0.0996,0.338806 -0.0996,0.338806 l -0.0289,0.33781 c 0,0.355747 0.12154,0.645725 0.36165,0.857977 0.2391,0.219228 0.54993,0.326849 0.93051,0.326849 0.33275,0 0.60274,-0.08171 0.82292,-0.239158 0.2122,-0.161431 0.36762,-0.404574 0.47721,-0.72644 0,0 0.45828,-1.433948 0.54396,-1.700011 h 4.62867 c 0.0349,0.104631 0.56289,1.700011 0.56289,1.700011 0.1056,0.326848 0.26301,0.573977 0.47422,0.733416 0.20922,0.152463 0.47921,0.232182 0.80798,0.232182 0.38456,0 0.70436,-0.107621 0.93948,-0.326849 0.24807,-0.220224 0.3726,-0.511199 0.3726,-0.857977 0,0 0.007,-0.214245 -0.0309,-0.33781 z"
         id="Fill-28"
         mask="none" />
      <path
         transform="matrix(0.26458333,0,0,0.26458333,203.77572,320.5476)"
         style="fill:#1b1d80;fill-rule:evenodd;stroke:none;stroke-width:1"
         inkscape:connector-curvature="0"
         d="m 205.89536,29.636582 c -0.21221,0.258091 -0.32479,0.651704 -0.32479,1.182833 v 6.790078 c -0.27397,-0.467353 -3.94622,-6.661531 -3.94622,-6.661531 -0.66949,-1.131016 -1.35692,-1.704993 -2.04633,-1.704993 -0.59976,0 -1.02018,0.146484 -1.2563,0.430483 -0.23811,0.284996 -0.35268,0.796195 -0.35268,1.563492 v 9.143786 c 0,0.547073 0.10461,0.938693 0.31383,1.192798 0.21021,0.257094 0.54794,0.387634 1.00424,0.387634 0.44433,0 0.77908,-0.132533 1.00025,-0.39461 0.21619,-0.260084 0.32678,-0.656686 0.32678,-1.185822 v -6.770149 c 0.27497,0.460378 4.12056,6.938556 4.12056,6.938556 0.36862,0.621809 0.68444,1.005457 0.95542,1.163899 0.26103,0.164421 0.63164,0.248126 1.08693,0.248126 0.52603,0 0.90362,-0.152463 1.11782,-0.444434 0.21818,-0.291972 0.32378,-0.791213 0.32378,-1.523632 v -9.173681 c 0,-0.535115 -0.10959,-0.9367 -0.31681,-1.190805 -0.21619,-0.257094 -0.55193,-0.385641 -1.00623,-0.385641 -0.44633,0 -0.78506,0.128547 -1.00025,0.393613"
         id="Fill-29"
         mask="none" />
      <path
         transform="matrix(0.26458333,0,0,0.26458333,203.77572,320.5476)"
         style="fill:#1b1d80;fill-rule:evenodd;stroke:none;stroke-width:1"
         inkscape:connector-curvature="0"
         d="m 176.20187,29.405895 c -0.59378,0 -1.02018,0.145487 -1.2563,0.433473 -0.23312,0.287985 -0.34969,0.80018 -0.34969,1.574453 v 8.396419 c 0,0.771282 0.11657,1.283478 0.34969,1.568474 0.23612,0.284996 0.66252,0.429487 1.2563,0.429487 h 6.46777 c 0.46526,0 0.82193,-0.101642 1.06701,-0.301936 0.24707,-0.20727 0.37858,-0.507213 0.37858,-0.89983 0,-0.399592 -0.12653,-0.706511 -0.36563,-0.90282 -0.24708,-0.200294 -0.60773,-0.296953 -1.07996,-0.296953 h -5.43165 v -3.006409 h 4.58084 c 0.46227,0 0.80897,-0.09367 1.05306,-0.283003 0.25106,-0.192322 0.37758,-0.475325 0.37758,-0.836054 0,-0.378666 -0.12254,-0.667648 -0.36463,-0.855984 -0.2411,-0.187341 -0.59477,-0.280014 -1.06601,-0.280014 h -4.58084 v -2.451364 h 5.10587 c 0.46626,0 0.82491,-0.09666 1.068,-0.283999 0.25007,-0.192323 0.37759,-0.469347 0.37759,-0.841037 0,-0.382652 -0.12752,-0.672631 -0.37759,-0.867943 -0.24209,-0.198301 -0.60174,-0.29496 -1.068,-0.29496 z"
         id="Fill-30"
         mask="none" />
      <path
         transform="matrix(0.26458333,0,0,0.26458333,203.77572,320.5476)"
         style="fill:#1b1d80;fill-rule:evenodd;stroke:none;stroke-width:1"
         inkscape:connector-curvature="0"
         d="m 164.14891,29.432202 c -0.42341,0 -0.75218,0.101642 -0.97335,0.293964 -0.22317,0.201291 -0.33973,0.490273 -0.33973,0.876911 0,0.380659 0.11258,0.671634 0.33175,0.865949 0.21221,0.188337 0.54596,0.282007 0.98133,0.282007 h 2.46776 v 8.791029 c 0,0.461374 0.11656,0.816124 0.33873,1.057275 0.22615,0.242147 0.56389,0.361725 1.01022,0.361725 0.43935,0 0.77609,-0.119578 0.99826,-0.361725 0.21818,-0.232182 0.33375,-0.587929 0.33375,-1.057275 v -8.791029 h 2.47273 c 0.42641,0 0.75617,-0.09666 0.97137,-0.290975 0.22416,-0.193319 0.33375,-0.482301 0.33375,-0.856981 0,-0.386638 -0.10959,-0.67562 -0.33375,-0.876911 -0.2152,-0.192322 -0.54496,-0.293964 -0.97137,-0.293964 z"
         id="Fill-31"
         mask="none" />
      <path
         transform="matrix(0.26458333,0,0,0.26458333,203.77572,320.5476)"
         style="fill:#1b1d80;fill-rule:evenodd;stroke:none;stroke-width:1"
         inkscape:connector-curvature="0"
         d="m 130.89555,29.405895 c -0.59875,0 -1.01719,0.145487 -1.26028,0.433473 -0.23312,0.287985 -0.35267,0.80018 -0.35267,1.574453 v 8.396419 c 0,0.771282 0.11955,1.283478 0.35267,1.568474 0.24309,0.284996 0.65754,0.429487 1.26028,0.429487 h 6.46081 c 0.46525,0 0.82291,-0.101642 1.068,-0.301936 0.24807,-0.20727 0.3726,-0.507213 0.3726,-0.89983 0,-0.399592 -0.11955,-0.706511 -0.37061,-0.900827 -0.23711,-0.202287 -0.60075,-0.298946 -1.06999,-0.298946 h -5.42269 v -3.006409 h 4.57486 c 0.4533,0 0.80798,-0.09367 1.04808,-0.283003 0.25106,-0.192322 0.37858,-0.475325 0.37858,-0.834061 0,-0.380659 -0.12454,-0.669641 -0.36862,-0.857977 -0.23612,-0.187341 -0.59178,-0.280014 -1.05804,-0.280014 h -4.57486 v -2.451364 h 5.0999 c 0.46326,0 0.82192,-0.09666 1.06301,-0.283999 0.24708,-0.192323 0.3736,-0.469347 0.3736,-0.841037 0,-0.382652 -0.12652,-0.672631 -0.3736,-0.867943 -0.24109,-0.195311 -0.59975,-0.29496 -1.06301,-0.29496 z"
         id="Fill-32"
         mask="none" />
      <path
         transform="matrix(0.26458333,0,0,0.26458333,203.77572,320.5476)"
         style="fill:#1b1d80;fill-rule:evenodd;stroke:none;stroke-width:1"
         inkscape:connector-curvature="0"
         d="m 153.64385,30.077429 c -0.83088,0.660672 -1.25231,1.588404 -1.25231,2.77024 0,1.041332 0.28892,1.850481 0.85779,2.397553 0.56588,0.547073 1.65879,1.003465 3.25282,1.36818 l 0.17235,0.04285 c 2.00549,0.459382 3.02468,1.040335 3.02468,1.726916 0,0.493263 -0.1873,0.859971 -0.56489,1.114075 -0.38556,0.256098 -0.9604,0.385642 -1.72554,0.385642 -0.4802,0 -0.89963,-0.07175 -1.25031,-0.212252 -0.33873,-0.141502 -0.63164,-0.354751 -0.86775,-0.640743 l -0.34073,-0.490273 c -0.39552,-0.597893 -0.82989,-0.903816 -1.29814,-0.903816 -0.36064,0 -0.65853,0.126555 -0.88468,0.370695 -0.21918,0.244139 -0.33176,0.565009 -0.33176,0.944671 0,0.364715 0.11258,0.739395 0.33873,1.122047 0.21918,0.37767 0.52802,0.704518 0.89664,0.97357 0.54596,0.388631 1.1218,0.668645 1.70462,0.842034 0.57883,0.177375 1.27821,0.263073 2.07323,0.263073 1.4964,0 2.69491,-0.367705 3.56366,-1.083184 0.87273,-0.716476 1.31109,-1.708979 1.31109,-2.945622 0,-0.672631 -0.12155,-1.25757 -0.3736,-1.720937 -0.25007,-0.474329 -0.63961,-0.864953 -1.16265,-1.16091 -0.29191,-0.157446 -0.64658,-0.310905 -1.05505,-0.446428 -0.40548,-0.136519 -1.05405,-0.31489 -1.92977,-0.533121 l -0.78307,-0.18734 c -1.34994,-0.317881 -2.03039,-0.781248 -2.03039,-1.378145 0,-0.449417 0.16538,-0.78623 0.5061,-1.038342 0.34172,-0.24414 0.84185,-0.368701 1.47448,-0.368701 0.43935,0 0.82491,0.06079 1.1467,0.183354 0.31383,0.121572 0.57884,0.307915 0.78606,0.547073 l 0.2391,0.311901 c 0.42143,0.553051 0.87174,0.834061 1.33301,0.834061 0.35667,0 0.65057,-0.11061 0.87473,-0.326848 0.21718,-0.217235 0.32578,-0.507213 0.32578,-0.863957 0,-0.319873 -0.11358,-0.663661 -0.33375,-1.026384 -0.22317,-0.353753 -0.51308,-0.663661 -0.87074,-0.910791 -0.44733,-0.31788 -0.95542,-0.558034 -1.51234,-0.714483 -0.55293,-0.154455 -1.1746,-0.231185 -1.85007,-0.231185 -1.47348,0 -2.63912,0.331831 -3.46403,0.985528"
         id="Fill-33"
         mask="none" />
      <path
         transform="matrix(0.26458333,0,0,0.26458333,203.77572,320.5476)"
         style="fill:#1b1d80;fill-rule:evenodd;stroke:none;stroke-width:1"
         inkscape:connector-curvature="0"
         d="m 192.74102,34.388341 c -0.28294,0.246133 -0.7472,0.371691 -1.36787,0.371691 h -2.87623 v -3.083138 h 2.99478 c 0.55293,0 0.97435,0.134526 1.25729,0.39162 0.27697,0.256098 0.41644,0.643732 0.41644,1.151942 0,0.536111 -0.13947,0.924742 -0.42441,1.167885 z m 2.86926,5.15185 c -0.0269,-0.133529 -0.0478,-0.380659 -0.0598,-0.740391 l -0.0488,-0.891858 c -0.0508,-0.568996 -0.20224,-1.024391 -0.44533,-1.36818 -0.21519,-0.302933 -0.53201,-0.515185 -0.91756,-0.679606 0.52105,-0.200294 0.93051,-0.527143 1.22441,-0.987521 0.31881,-0.506216 0.4802,-1.150945 0.4802,-1.911266 0,-1.194791 -0.33375,-2.099603 -0.99128,-2.678564 -0.65256,-0.58195 -1.66776,-0.87691 -3.0187,-0.87691 h -4.40649 c -0.59577,0 -1.01719,0.145487 -1.25331,0.433473 -0.23811,0.287985 -0.35368,0.80018 -0.35368,1.574453 v 9.128838 c 0,0.461375 0.11059,0.813136 0.32977,1.056279 0.22715,0.242147 0.56488,0.362722 1.00723,0.362722 0.44433,0 0.78307,-0.120575 1.00822,-0.362722 0.21818,-0.232182 0.33176,-0.588925 0.33176,-1.056279 v -3.494688 h 2.5893 c 0.61769,0 1.05405,0.109614 1.28519,0.323859 0.2391,0.214246 0.39153,0.80616 0.4543,1.759801 0.0847,1.273513 0.2401,2.041806 0.4782,2.35869 0.23612,0.319873 0.63762,0.48828 1.18855,0.48828 0.39851,0 0.7223,-0.112604 0.96838,-0.328842 0.2401,-0.22122 0.36762,-0.521164 0.36762,-0.895844 0,-0.112603 -0.0349,-0.305922 -0.0956,-0.590918 z"
         id="Fill-34"
         mask="none" />
      <path
         transform="matrix(0.26458333,0,0,0.26458333,203.77572,320.5476)"
         style="fill:#1b1d80;fill-rule:evenodd;stroke:none;stroke-width:1"
         inkscape:connector-curvature="0"
         d="m 144.02797,37.068399 c 0.0638,-0.190329 1.44957,-4.455303 1.58606,-4.869843 0.13848,0.410554 1.53027,4.679514 1.59303,4.869843 z m 7.08945,3.394043 c -0.0379,-0.122568 -0.10162,-0.340799 -0.10162,-0.340799 l -3.4461,-9.536403 c -0.20921,-0.567003 -0.43835,-0.918763 -0.6944,-1.083184 -0.25803,-0.158442 -0.65355,-0.235172 -1.20947,-0.235172 -0.58979,0 -0.99626,0.08072 -1.2533,0.250119 -0.25206,0.164421 -0.47422,0.530133 -0.67547,1.099128 l -3.38333,9.507505 c 0,-0.002 -0.0996,0.338806 -0.0996,0.338806 l -0.0289,0.33781 c 0,0.355747 0.12454,0.645725 0.36165,0.857977 0.24209,0.219228 0.55093,0.326849 0.93151,0.326849 0.33176,0 0.60374,-0.08171 0.82092,-0.239158 0.21321,-0.161431 0.37062,-0.404574 0.4812,-0.72644 0,0 0.45629,-1.433948 0.54098,-1.700011 h 4.62966 c 0.0359,0.104631 0.56189,1.700011 0.56189,1.700011 0.1066,0.326848 0.266,0.573977 0.47522,0.733416 0.20822,0.152463 0.47821,0.232182 0.80897,0.232182 0.38356,0 0.70337,-0.107621 0.93948,-0.326849 0.24608,-0.220224 0.37261,-0.511199 0.37261,-0.857977 0,0 0.004,-0.214245 -0.0319,-0.33781 z"
         id="Fill-35"
         mask="none" />
    </g>
  </g>
</svg>
