<?xml version="1.0" encoding="utf-8"?>
<svg version="1.1" id="Layer_1" xmlns="http://www.w3.org/2000/svg" xmlns:xlink="http://www.w3.org/1999/xlink" x="0px"
	y="0px" viewBox="0 0 923.1 207" style="enable-background:new 0 0 923.1 207;" xml:space="preserve">
	<style type="text/css">
		.easyjet-1 {
			fill: #FF6600;
		}
	</style>
	<path class="easyjet-1" d="M110.3,112H54.1c-2.6,0-3.7,1.2-3.7,3.3c0,5.1,2.8,10,8.4,14.6c5.6,4.6,11.6,7,18.1,7c3.7,0,8.1-0.7,12.8-2.1
	c4.6-1.4,8.6-3.3,11.6-5.3c2.8-1.9,4.9-2.8,6.5-2.8c2.1,0,4.2,1.2,6,3.7c2.1,2.6,3,5.1,3,7.9c0,5.8-3.5,11.1-10.7,16.5
	c-12.5,9.5-27.2,14.2-43.7,14.2c-16.7,0-30.7-4.9-42-14.6c-5.6-4.9-10-10.5-13.5-17.2c-4.6-9.1-7-18.4-7-28.3
	c0-13.2,3.9-25.3,12.1-36c7-9.3,15.8-16,26.7-20.7c8.1-3.5,17-5.1,26.2-5.1c15.1,0,27.9,4.2,38.6,12.8c5.3,4.2,9.5,9.3,12.8,15.3
	c3.7,6.7,5.6,13.2,5.6,19.5c0,5.1-1.2,9.3-3.3,12.8C116.4,110.3,113.6,112,110.3,112z M57.4,89.7h12.1c5.1,0,7.7-2.3,7.7-7
	c0-4.2-1.2-7.9-3.7-10.5c-2.6-2.8-5.6-3.9-9.8-3.9c-4.4,0-7.9,1.9-10.5,5.3c-2.3,3.3-3.5,6.5-3.5,10c0,2.3,0.5,3.9,1.6,5.1
	C52.5,89.2,54.4,89.7,57.4,89.7z M197.7,46.5c13.9,0,25.6,3.5,35.1,10.5c5.1,3.7,8.6,7.9,10.7,12.8s3,11.4,3,19.7l-0.2,17.7
	c0,12.3,0.9,20.2,2.6,23.9c0.9,1.9,1.6,2.8,2.6,3.3c0.7,0.5,2.6,0.9,5.1,1.4c2.6,0.5,3.7,2.1,3.7,5.1c0,3.7-1.6,7.9-4.6,11.8
	c-3,4.2-7,7.7-11.8,10.5c-6,3.5-12.3,5.3-18.8,5.3c-8.4,0-14.9-2.8-19.7-8.6c-1.6-2.1-3.3-3-4.6-3c-1.6,0-3.7,0.9-6.3,3
	c-7.9,5.8-17,8.6-26.9,8.6c-10.5,0-18.8-2.3-25.3-6.7c-4.2-3-7.4-6.7-10-11.6c-2.6-4.6-3.7-9.8-3.7-14.9c0-8.4,3.3-15.6,10-21.8
	c10.5-10,26-15.1,46.7-15.1c4.6,0,7.4-0.5,8.6-1.4c1.2-0.9,1.9-3,1.9-6.3c0-8.4-0.9-14.6-2.6-18.4c-1.9-3.7-4.6-5.6-8.6-5.6
	c-2.3,0-4.4,0.7-6.3,2.1s-4.2,3.9-7,7.9c-7,10-14.4,15.1-22.1,15.1c-3.9,0-7-1.2-9.5-3.5c-2.6-2.3-3.7-5.3-3.7-9.1s1.6-7.7,4.6-11.4
	c3-3.7,7.2-7.2,12.5-10C167,50.2,181.9,46.5,197.7,46.5L197.7,46.5z M189.5,115.4c-3.5,0-6.5,1.4-9.1,4.2c-2.6,2.8-3.9,6.3-3.9,10.2
	c0,3.7,0.9,7,2.8,9.3s4.2,3.5,7.2,3.5c6.3,0,9.5-5.3,9.5-16c0-4.4-0.5-7.2-1.4-8.8C194,116.4,192.1,115.4,189.5,115.4z M315.7,46.5
	c3.9,0,10.5,0.9,19.5,2.6c1.9,0.2,3.3,0.5,4.4,0.5c1.4,0,3.9-0.7,7.9-2.1c1.9-0.7,3.5-1.2,4.6-1.2c3.7,0,7.4,2.3,11.1,7
	c3,3.7,5.6,7.9,7.4,12.3s2.8,8.4,2.8,11.6c0,3.3-1.2,5.8-3.3,7.9c-2.3,2.1-5.1,3.3-8.4,3.3c-2.8,0-5.3-0.7-7.4-2.1
	c-2.1-1.4-5.8-4.4-10.5-8.8c-5.1-4.9-9.3-7.4-12.5-7.4c-2.3,0-4.2,0.9-5.8,2.6c-1.6,1.6-2.6,3.5-2.6,5.8c0,3.9,3.7,7.4,11.1,10.9
	c13.5,6,23.7,12.5,30.9,19.7c6,6,9.1,13.5,9.1,22.1c0,11.1-4.9,20.2-14.6,27.6c-8.4,6.5-18.6,9.8-30.7,9.8c-3,0-8.8-0.5-17-1.6
	c-7.7-0.9-12.1-1.4-13-1.4c-0.9,0-2.3,0.2-3.5,0.5c-2.3,0.2-3.9,0.5-5.1,0.5c-3.7,0-6.7-0.9-8.8-2.8c-3.3-3-6.3-7.7-9.1-13.9
	c-2.8-6.3-4.2-11.8-4.2-16.3c0-7.2,2.8-10.9,8.6-10.9c2.3,0,4.2,0.7,6,2.1c1.9,1.4,5.8,5.3,11.8,11.8c3.3,3.5,6,5.8,8.1,7.2
	c2.1,1.4,4.4,1.9,7,1.9s4.6-0.7,6.3-2.1s2.3-3.3,2.3-5.6c0-3.5-3-6.7-9.3-9.8c-12.8-6.3-22.1-12.8-27.6-19.5
	c-5.6-6.7-8.6-14.4-8.6-23.2c0-9.5,2.8-17.7,8.6-24.4C289.9,51.6,301.3,46.5,315.7,46.5L315.7,46.5z M497.8,105.2L482,148.4
	c-3.9,10.7-7.9,19.5-11.8,26.2c-3.9,6.7-8.4,12.5-13.5,17.4c-10.2,9.8-22.8,14.9-37.4,14.9c-11.8,0-21.4-3-28.6-9.3
	c-5.6-4.9-8.4-10.9-8.4-18.1c0-6,1.9-11.1,5.8-15.3c3.9-4.2,8.8-6.3,14.4-6.3c5.8,0,10.2,1.9,13.9,5.8c1.6,1.9,2.8,3.3,3.3,4.6
	c0.5,1.4,1.4,4.4,2.6,8.8c0.9,3.5,2.8,5.3,6,5.3c2.6,0,4.4-1.2,6.3-3.3s2.6-4.9,2.6-7.9c0-3.7-2.1-10-6.3-18.8l-28.8-61.1
	c-3-6.3-5.3-10.2-6.7-11.8c-1.6-1.6-4.9-3.5-10-5.8c-1.6-0.7-3-1.9-4.2-3.7c-1.2-1.9-1.6-3.7-1.6-5.3c0-7,7-11.8,21.1-14.4
	c9.3-1.6,20-2.6,32.1-2.6c8.4,0,15.1,0.9,20,2.6c6.5,2.3,9.8,6.3,9.8,11.8c0,2.1-0.9,4.4-2.8,7s-2.6,4.9-2.6,6.7s0.5,3.9,1.2,6
	c0.9,2.1,2.6,5.6,5.3,10.5c3,5.6,5.6,8.4,7.9,8.4c2.6,0,5.1-2.6,7.7-7.4s3.9-9.5,3.9-14.2c0-3.7-0.9-6.7-3-8.8
	c-3-3.5-4.6-6.7-4.6-9.3c0-3.9,2.8-7.2,8.1-9.8c5.3-2.3,12.5-3.7,21.6-3.7c17,0,25.3,3.9,25.3,12.1c0,3-0.9,5.3-2.6,7.2
	c-1.6,1.9-4.9,3.5-9.3,5.1c-3.7,1.4-6.7,3.7-9.1,7.2C506.4,84.1,502.4,92.9,497.8,105.2L497.8,105.2z M633.9,0
	c8.8,0,17.9,0.7,27.2,2.3c7.4,1.2,13,3,16.3,5.3s4.9,5.3,4.9,9.3c0,2.6-0.7,4.4-1.9,5.8c-1.2,1.4-3.7,3-7.7,5.1
	c-4.6,2.3-7.2,5.1-7.9,8.4c-0.7,3.3-1.4,15.8-1.9,37.4c-0.2,21.1-0.5,33.7-0.7,37.9c-0.2,4.2-0.7,8.4-1.4,12.3
	c-2.3,11.6-7,20.7-13.9,27.4c-5.8,5.3-13,9.8-22.1,12.8c-9.1,3-18.4,4.6-28.3,4.6c-8.8,0-17.7-1.2-26.5-3.5
	c-8.8-2.3-16.5-5.6-23-9.5c-5.3-3.3-9.8-7.9-12.8-13.5c-3.3-5.6-4.9-11.8-4.9-18.1c0-7.9,2.6-14.6,7.4-19.7
	c5.1-5.1,11.4-7.9,18.8-7.9s13.7,2.1,18.8,6.5c5.1,4.4,7.7,10,7.7,16.5c0,1.6-0.5,4.4-1.4,8.4c-0.2,0.7-0.2,1.6-0.2,2.6
	c0,2.6,0.9,4.6,2.8,6.3c1.9,1.6,4.2,2.3,7.2,2.3c5.3,0,9.5-2.3,12.8-7.2c3.3-4.9,4.9-11.1,4.9-18.8l-0.2-10.9l-0.2-29.3
	c-0.7-17.7-1.2-28.1-1.6-31.4c-0.5-3.3-1.2-5.8-2.8-7.7c-1.2-1.6-2.3-2.6-3.3-3s-3.5-1.2-7.4-2.3c-1.9-0.5-3.5-1.4-4.9-3.3
	c-1.4-1.9-2.1-3.7-2.1-5.8c0-4.2,1.6-7.7,5.1-10.2s8.8-4.6,16.5-6.3C616,0.9,624.8,0,633.9,0z M798.6,112h-56
	c-2.6,0-3.7,1.2-3.7,3.3c0,5.1,2.8,10,8.4,14.6c5.6,4.6,11.6,7,18.1,7c3.7,0,8.1-0.7,12.8-2.1s8.6-3.3,11.6-5.3
	c2.8-1.9,4.9-2.8,6.5-2.8c2.1,0,4.2,1.2,6,3.7c2.1,2.6,3,5.1,3,7.9c0,5.8-3.5,11.1-10.7,16.5c-12.5,9.5-27.2,14.2-43.7,14.2
	c-16.7,0-30.7-4.9-42-14.6c-5.6-4.9-10-10.5-13.5-17.2c-4.6-9.1-7-18.4-7-28.3c0-13.2,3.9-25.3,12.1-36c7-9.3,15.8-16,26.7-20.7
	c8.1-3.5,17-5.1,26.2-5.1c15.1,0,27.9,4.2,38.6,12.8c5.3,4.2,9.5,9.3,12.8,15.3c3.7,6.7,5.6,13.2,5.6,19.5c0,5.1-1.2,9.3-3.3,12.8
	C804.8,110.3,802.1,112,798.6,112L798.6,112z M745.6,89.7h12.1c5.1,0,7.7-2.3,7.7-7c0-4.2-1.2-7.9-3.7-10.5
	c-2.6-2.8-5.6-3.9-9.8-3.9c-4.4,0-7.9,1.9-10.5,5.3c-2.3,3.3-3.5,6.5-3.5,10c0,2.3,0.5,3.9,1.6,5.1
	C740.7,89.2,742.8,89.7,745.6,89.7z M887.1,77.8V118c0,4.9,1.2,8.6,3.5,11.6c2.3,3,5.3,4.6,9.1,4.6c3,0,7.2-1.4,12.3-4.2
	c1.2-0.7,2.3-1.2,3.5-1.2c1.9,0,3.7,1.2,5.3,3.5c1.6,2.3,2.3,4.9,2.3,7.4c0,4.9-2.8,9.8-8.1,14.2c-11.4,9.5-24.9,14.4-41.1,14.4
	c-12.8,0-23-3.5-30.7-10.7c-7.7-7.2-11.6-16.7-11.6-28.3V74.3c0-1.9-0.2-3-0.7-3.5c-0.5-0.5-1.6-0.7-3.5-0.7h-11.8
	c-2.3,0-3.7-0.5-4.4-1.2c-0.7-0.7-0.9-2.6-0.9-5.3v-5.3c0-2.3,0.9-4.2,2.8-5.3l54.6-34.4c1.4-0.7,3-1.2,5.1-1.2h9.8
	c2.1,0,3.3,0.5,3.9,1.4c0.7,0.9,0.9,2.8,0.9,5.3v16c0,2.3,0.5,3.9,1.2,4.6c0.7,0.7,2.3,1.2,4.9,1.2h22.1c3,0,4.9,0.5,5.8,1.6
	s1.4,3.3,1.4,7v7c0,3.7-0.5,6.5-1.6,7.9c-1.2,1.4-3.3,2.1-6,2.1h-21.6c-2.3,0-3.7,0.5-4.4,1.2C887.5,74.1,887.1,75.5,887.1,77.8
	L887.1,77.8z" />
</svg>