<?xml version="1.0" encoding="utf-8"?>
<!-- Generator: Adobe Illustrator 26.0.3, SVG Export Plug-In . SVG Version: 6.00 Build 0)  -->
<svg version="1.1" id="Layer_1" xmlns="http://www.w3.org/2000/svg" xmlns:xlink="http://www.w3.org/1999/xlink" x="0px"
    y="0px" viewBox="0 0 115 48.8" style="enable-background:new 0 0 115 48.8;" xml:space="preserve">
    <style type="text/css">
        .ita-0 {
            fill: #FFFFFF;
        }

        .ita-1 {
            fill: #BE210C;
        }
    </style>
    <g id="logo_ita_negative_desktop">
        <g id="Assets_x2F_Glyphs_x2F_Logo_x2F_Color">
            <g id="_x32_1JE_x5F_SKTlogoITA_x5F_RGB">
                <path id="Shape" class="ita-0" d="M9.4,21.6V0.8l-4.6,1C1.9,2.3-0.1,4.7,0,7.6v20.8l4.6-1C7.4,26.9,9.4,24.5,9.4,21.6 M66.4,5.8
				c-1.3,1.7-3.3,2.7-5.4,2.7H44.6v19.9h-9.4v-20H12.4V0.8H70L66.4,5.8z M101.7,25.7L84.4,2L65,28.4H53.8L72,3.5
				c1.3-1.7,3.3-2.7,5.4-2.7h17.4L115,28.4h-7.9C105,28.4,103,27.4,101.7,25.7 M104.6,40.8l-2.1-0.9c-0.6-0.3-1.2-0.8-1.2-1.5
				c0-1.2,0.9-1.6,1.9-1.6c1.4,0,2.7,0.8,3.7,1.8v-2.5c-1-0.8-2.3-1.3-3.6-1.3c-2.4,0-4.4,1.2-4.4,3.8c0,1.8,1.1,2.7,2.6,3.4l2.3,1
				c0.8,0.3,1.4,0.8,1.4,1.6c0,1.3-1.2,1.7-2.3,1.7c-1.6,0-2.7-0.6-4.1-1.8v2.5c1.2,0.9,2.6,1.4,4,1.4c2.5,0,4.7-1.6,4.7-4
				C107.6,42.5,106.2,41.5,104.6,40.8 M85.7,35H83l4.9,7.3v6h2.5v-6l5-7.3h-2.8l-3.3,5.1L85.7,35z M70.4,48.3l1.4-2.9h5.7l1.3,2.9
				h2.6l-6.8-13.9l-6.8,13.9L70.4,48.3z M74.6,39.4l2,4.1h-3.9L74.6,39.4z M57.7,34.6l-3.6,8.6L50.9,35h-2.6l5.6,13.8l3.8-8.9
				l3.6,8.9L67,35h-2.5l-3.3,8.2L57.7,34.6z M41.5,39.1c0,1.5-1.1,2-2.5,2h-1.4V37H39C40.4,37,41.5,37.7,41.5,39.1 M44.1,39.1
				c0-2.7-2.3-4.1-4.9-4.1h-4v13.3h2.4v-5.2h1.2l3.8,5.2h2.8l-4.1-5.6C43,42.3,44.1,40.8,44.1,39.1 M28.5,35H26v13.3h2.5V35z
				 M9.9,48.3l1.4-2.9h5.7l1.3,2.9h2.7l-6.8-13.9L7.3,48.3H9.9z M14.1,39.4l2,4.1h-3.9L14.1,39.4z" />
            </g>
            <path id="Path" class="ita-1" d="M74.5,20.7l-5.6,7.7h11.3l7.5-10.3h-7.8C77.8,18.1,75.8,19.1,74.5,20.7" />
        </g>
    </g>
</svg>