<?xml version="1.0" encoding="utf-8"?>
<svg version="1.1" id="layer" xmlns="http://www.w3.org/2000/svg" xmlns:xlink="http://www.w3.org/1999/xlink" x="0px"
	y="0px" viewBox="0 0 600.1 164.8" style="enable-background:new 0 0 600.1 164.8;" xml:space="preserve">
	<style type="text/css">
		.jetstar-0 {
			fill: #FF5111;
		}
	</style>
	<path class="jetstar-1"
		d="M194.7,80.8h-14.8v31.9c0,5.8,3.4,7,8.6,7c2,0,4.1-0.3,6.2-0.3V137c-4.4,0.1-8.7,0.7-13.1,0.7c-20.5,0-25.7-5.9-25.7-25.8
	V80.7h-12.1v-16h12.1v-23h24v23h14.8V80.8L194.7,80.8z M315.5,80.8h-14.8v31.9c0,5.8,3.4,7,8.6,7c2,0,4.1-0.3,6.2-0.3V137
	c-4.4,0.1-8.7,0.7-13.1,0.7c-20.5,0-25.7-5.9-25.7-25.8V80.7h-12.1v-16h12.1v-23h24v23h14.8V80.8L315.5,80.8z M66.9,106.6
	c0,21.4-11,32.2-33.5,32.2C8.1,138.8,0,124.2,0,102.9v-4.1h23.4v8.8c0,6.3,3.5,9.8,9.6,9.8c5.8,0,9-3.2,9-12.4V41.3h24.9V106.6
	L66.9,106.6z M93.3,106.2c0.4,9.9,6.1,16.5,16.2,16.5c5.7,0,11.3-2.7,13.6-8h22.2c-4.3,16.8-19.8,24-36.1,24
	c-23.6,0-39.7-14.3-39.7-38.6c0-22.2,17.8-38.2,39.2-38.2c26,0,39,19.6,37.9,44.2L93.3,106.2L93.3,106.2z M122.8,92.9
	c-0.4-8.1-6.2-14.8-14.1-14.8c-8.4,0-14,6-15.4,14.8H122.8L122.8,92.9z M218.1,112.9c0,3.6,1.5,6.3,3.9,8.1c2.2,1.7,5.5,2.5,8.8,2.5
	c4.6,0,11.2-2,11.2-7.7c0-5.6-7.4-6.7-11.6-7.7c-14.9-3.8-33.6-4.2-33.6-23.7c0-17.4,18.8-22.2,33.1-22.2c15.9,0,32.5,4.6,33.3,23.4
	h-21.9c0-3.1-1.1-5-3.1-6.3c-1.9-1.2-4.6-1.8-7.5-1.8c-3.9,0-10.2,0.4-10.2,5.5c0,6.8,15.9,8.1,26.8,10.5
	c14.6,2.9,18.4,13.5,18.4,19.5c0,19.4-18.4,25.8-34.7,25.8c-17.2,0-34.7-5.7-35.4-25.9L218.1,112.9L218.1,112.9z M319.8,86.8
	c0.4-9.5,4.9-15.6,11.3-19.3c6.4-3.6,14.8-5,23-5c17.1,0,33.7,3.8,33.7,24.2v31.6c0,6.1,0,12.8,2.8,18.5h-23.9
	c-0.8-2.2-1.1-4.5-1.4-6.8c-6.1,6.4-15.2,8.9-23.8,8.9c-13.8,0-24.6-6.9-24.6-21.8c0-23.5,25.6-21.7,42-25c4-0.8,6.3-2.2,6.3-6.7
	c0-5.4-6.5-7.5-11.4-7.5c-6.5,0-10.7,2.9-11.8,9.1L319.8,86.8L319.8,86.8z M350.4,124.2c11.3,0,15-6.4,14.5-21.3
	c-3.3,2.1-9.5,2.5-14.6,3.9c-5.3,1.3-9.7,3.5-9.7,9.2C340.5,121.9,345.1,124.2,350.4,124.2L350.4,124.2z M424.1,66.8
	c-3.6,2.4-6.4,5.8-8.1,10.3h-0.3V64.4h-23v72.4h23.7V101c0-9.1,6.1-17.2,17.8-17.2c2.7,0,5.2,0.4,7.7,1.1L424.1,66.8L424.1,66.8z" />
	<path class="jetstar-0"
		d="M528.4,0l3.1,49.6h68.6l-65.7,43.5l14.5,71.7l-55.8-48.5l-75.1,39l44.8-61.4l-42.5-44.2h68.8L528.4,0z" />
</svg>