<?xml version="1.0" encoding="utf-8"?>
<!-- Generator: Adobe Illustrator 26.0.3, SVG Export Plug-In . SVG Version: 6.00 Build 0)  -->
<svg version="1.1" id="Layer_1" xmlns="http://www.w3.org/2000/svg" xmlns:xlink="http://www.w3.org/1999/xlink" x="0px"
	y="0px" viewBox="0 0 923.1 107.5" style="enable-background:new 0 0 923.1 107.5;" xml:space="preserve">
	<style type="text/css">
		.ryanair-0 {
			fill: #2B4779;
		}

		.ryanair-1 {
			fill: #F4CA35;
		}
	</style>
	<path class="ryanair-0" d="M199,106.8l-28.9-37h-10.9v37h-33.1V9.3h49.3c36,0,59.1,10.2,59.1,30.4c0,13.6-13.2,22.1-31.2,26.6l31.8,40.5
	L199,106.8L199,106.8L199,106.8z M173.9,26.3h-14.6v27.2h16.4c17,0,25.7-4.6,25.7-13.5C201.4,31.2,193.7,26.3,173.9,26.3L173.9,26.3
	z M317.4,70v36.8h-33.1V70.3l-47.7-61h36.6l14.3,19.8c6.1,8.5,12.2,18.1,13.8,22.7c1.9-4.6,7.9-14.6,13.8-22.7l14.3-19.8h36
	L317.4,70L317.4,70z M442.6,106.8l-8.7-20.3h-41.6l-8.7,20.3h-33.9l47.4-97.5h32.3l47.4,97.5H442.6z M421.7,58.6
	c-3.2-7.5-7.4-18.8-8.7-23.7c-1.3,5-5,15.5-8.5,23.4l-5,11.8h27.3L421.7,58.6L421.7,58.6z M566.8,106.8l-34.2-43.4
	c-4.8-6.1-10.6-14.1-14-19.8c0.3,6,0.5,16,0.5,22.1v41.1H489V9.3h33.4l32.6,42.8c4.5,5.8,11.1,14.9,14.6,20.3
	c-0.3-6-1.1-16.6-1.1-22.7V9.3h30.2v97.5L566.8,106.8L566.8,106.8z M705.5,106.8l-8.7-20.3h-41.6l-8.7,20.3h-33.9l47.4-97.5h32.3
	l47.4,97.5H705.5z M684.6,58.6c-3.2-7.5-7.4-18.8-8.7-23.7c-1.3,5-5,15.5-8.5,23.4l-5,11.8h27.3L684.6,58.6L684.6,58.6z M752.6,9.3
	h33.1v97.5h-33.1V9.3z M887.1,106.8l-28.9-37h-10.9v37h-33.1V9.3h49.3c36,0,59.1,10.2,59.1,30.4c0,13.6-13.2,22.1-31.2,26.6
	l31.8,40.5L887.1,106.8L887.1,106.8L887.1,106.8z M861.9,26.3h-14.6v27.2h16.4c16.9,0,25.7-4.6,25.7-13.5
	C889.4,31.2,881.8,26.3,861.9,26.3L861.9,26.3z" />
	<g>
		<path class="ryanair-1"
			d="M72,5.8c6.9,2.3,14.1,4,21.5,4.9l5.2,0.1l0.2-0.1c3.1,0.1,5.4-1.3,8.4-1.9c0.3-0.1,1.1-0.3,1.4,0.2
		c0.2,0.6-0.1,1.2-0.7,1.6c-3.7,2.8-8.1,4.9-12.2,6.4v-0.1c-1.4,0.3-2.8,0.8-4.2,1.3c-5.1,1.5-10.9,2.5-16.4,2.1
		c-10.5-0.5-19.4-4.3-28.7-3.8c-9.1-0.5-17.7,2.9-22.6,9.8c-2.5,3.6-4.5,7.4-5.1,11.5c0.3,3.8,5.6,5.2,7.5,8.3
		c1.1,1.9,1.7,4,2.6,5.9c2.2,3.9,4.4,7.9,7.1,11.6L36,63.6c1.6,2.5,4.1,4.6,7.1,6.1c3.9,2.8,7.3,6.2,9.3,9.9l-0.1,0.1
		c2.3,3.6,3.6,7.4,5.3,11.2c0.8,2.3,1.7,4.4,2.3,6.6c0.2,0.2,0.2,0.6,0.4,0.9c0.6,1.8,1.2,3.7,1.9,5.4c-0.3,0.3,0.3,0.3,0.2,0.6
		c0,1,1,2.5-0.3,3.2c-1.9-1.7-2.9-4.2-3.9-6c-2.3-3.9-4.8-7.7-7.6-11.5l0.1-0.1c-1.7-2.1-3.6-4.6-5.5-6.8
		C36.9,74.2,24.8,68.7,16,60.1l-0.1,0.1c-0.8-0.7-1.2-1.6-1.8-2.3l0.1-0.1c-1.1-1.5-1.7-3.2-2.8-4.8l0.1-0.1
		C8.7,48.8,6,44.5,4.3,40.2c-0.4-1.9-1-3.5-1.2-5.7l-0.2-0.7c0.1-2-4.8-3.1-2.1-6.9c1.7-1.8,8.3-4.1,10.5-7.5
		c0.1-0.5,0.2-1.1-0.3-1.6c0-0.4-0.4-0.8-0.6-1.1c-1.2-1.5-4.6-0.3-4.6-2.6c0.3,0,0-0.3,0.2-0.5c-0.2-1.1-0.3-1.9,0.1-2.8
		c0.7-1.9,1.3-4,1.2-5.9c0.1-0.7,0.8-1.1,1.6-1.4c1.4-0.4,2.6-0.5,4-0.7l0.2,0.1c3.2-0.3,7,0,9.1,2.5c0.9,1.9,0.2,4.1-0.3,6
		c-0.2,1.1-1.4,2-1.1,3.2c0.4,0.4,1.3,0.4,1.9,0.2c4.8-2.9,9-6.9,12.5-11c3.2-3,8-4.1,12.3-3.4C56.3,0.9,63.8,3.8,72,5.8L72,5.8z" />
		<path class="ryanair-1" d="M49.2,21.8c1.2,1.7-0.4,3.1-0.9,4.6c-5.2,7.8-7,16.6-10.4,24.9c-0.3,0.3-0.8,0.4-1.1,0.3
		c-0.9-0.7-0.9-1.7-0.8-2.7c0.7-9,3.1-17.5,6.9-25.6c0.9-1.3,2.4-2.8,4.4-2.5C48,21,48.7,21.2,49.2,21.8L49.2,21.8z M62.9,24.1
		c0.7,3-1.5,5.4-2.4,8.1c-5,10.1-11.1,19.9-14.1,30.7c-0.1,0.3-0.3,0.8-0.7,1c-0.4,0.1-0.8-0.1-0.9-0.4c-1-4.3,0.2-8.7,1.3-12.8
		c2.9-9,6.4-18.3,11.2-26.7c0.6-0.4,0.7-0.8,1.4-1C60.3,22.8,62,22.9,62.9,24.1L62.9,24.1z M77.5,24.6c1.4,1,0.7,3,0.1,4.2
		c-5.9,13.1-15.5,24.4-19.4,38.1c-1.1,2.9-1.8,5.9-2.7,8.9c-0.2,0.5-0.9,0.5-1.5,0.4c-0.5-1.2-0.4-2.8-0.4-4.2
		c1.2-11,3.9-21.7,9.3-31.4c2.5-4.8,4.8-9.1,7.4-13.8c0.7-1.3,1.9-2.5,3.7-3C75.3,23.8,76.5,24.1,77.5,24.6L77.5,24.6z M93.7,25.3
		c0.9,1.6,0,3.3-0.4,4.9C89.5,40.7,82.5,49.4,76.9,59c-4.8,7.9-8,16.6-11.2,25.2c-1.1,2.6-1.5,5.4-2.9,7.9c-0.1,0.3-0.5,0.1-0.7,0.2
		c-0.8-0.7-0.7-1.7-0.9-2.6c0.6-10.7,4.8-20.4,8.6-30c4.8-10.8,11.4-21.1,15.8-32.2c0.6-1.4,1.8-3.1,3.7-3.7
		C91.2,23.4,92.6,24.1,93.7,25.3L93.7,25.3z" />
	</g>
</svg>