<?xml version="1.0" encoding="utf-8"?>
<!-- Generator: Adobe Illustrator 26.0.3, SVG Export Plug-In . SVG Version: 6.00 Build 0)  -->
<svg version="1.1" id="Capa_1" xmlns="http://www.w3.org/2000/svg" xmlns:xlink="http://www.w3.org/1999/xlink" x="0px"
	y="0px" viewBox="0 0 923.1 274.9" style="enable-background:new 0 0 923.1 274.9;" xml:space="preserve">
	<style type="text/css">
		.volotea-0 {
			fill: #432129;
		}

		.volotea-1 {
			fill: #ED164A;
		}
	</style>
	<g id="g4890" transform="translate(-53.616 -47.909)">
		<path id="polygon4860" class="volotea-0"
			d="M105.4,282.2h0.4l24.8-101.5h26.6l-36.2,142.1H90L53.6,180.7h26.7L105.4,282.2z" />
		<path id="path4862" class="volotea-0" d="M169.9,226.3c0-35,18.5-47.6,44.8-47.6c26.4,0,44.9,12.6,44.9,47.6v50.8
		c0,35-18.5,47.6-44.9,47.6c-26.3,0-44.8-12.6-44.8-47.6V226.3z M197.1,280.7c0,15.8,6.9,20,17.7,20c10.8,0,17.7-4.3,17.7-20v-57.9
		c0-15.7-6.9-20-17.7-20c-10.8,0-17.7,4.3-17.7,20L197.1,280.7z" />
		<path id="polygon4864" class="volotea-0" d="M308.8,180.7v118.1h43.7v24h-70.8V180.7H308.8z" />
		<path id="path4866" class="volotea-0" d="M366.6,226.3c0-35,18.5-47.6,44.8-47.6c26.4,0,44.8,12.6,44.8,47.6v50.8
		c0,35-18.5,47.6-44.8,47.6c-26.4,0-44.8-12.6-44.8-47.6V226.3z M393.8,280.7c0,15.8,6.9,20,17.7,20c10.8,0,17.7-4.3,17.7-20v-57.9
		c0-15.7-6.9-20-17.7-20c-10.8,0-17.7,4.3-17.7,20V280.7z" />
		<path id="polygon4868" class="volotea-0" d="M528.9,204.7v118.1h-27.2V204.7h-31.7v-24h90.5v24H528.9z" />
		<path id="polygon4870" class="volotea-0"
			d="M651.1,180.7v24h-47.2v32.7h36v24h-36v37.4h49.2v24h-76.3V180.7H651.1z" />
		<path id="polygon4872" class="volotea-0"
			d="M717.6,221.2h-0.4l-24.8,101.5h-26.5l36.2-142.1h30.9l36.4,142.1h-26.8L717.6,221.2z" />
		<path id="polygon4874" class="volotea-1" d="M844,213.7l33.2-33.2l33.2,33.2l-33.2,33.1L844,213.7z" />
		<path id="polygon4876" class="volotea-1" d="M844,81.1l33.2-33.2l33.2,33.2l-33.2,33.2L844,81.1z" />
		<path id="polygon4878" class="volotea-1" d="M910.4,147.4l33.2-33.2l33.2,33.2l-33.2,33.2L910.4,147.4z" />
		<path id="polygon4880" class="volotea-1" d="M777.7,147.4l33.2-33.2l33.2,33.2l-33.2,33.2L777.7,147.4z" />
		<path id="path4882" class="volotea-1" d="M818.2,187.9v-14.7l-7.4,7.4L818.2,187.9z M825.6,195.3l7.4,7.4v-44.2l-7.4,7.4V195.3z
		 M840.4,151.1v59l3.7,3.7l3.7-3.7v-59l-3.7-3.7L840.4,151.1z M869.8,173.2v14.7l7.4-7.4L869.8,173.2z M855.1,202.7l7.4-7.4v-29.5
		l-7.4-7.4V202.7z" />
		<path id="path4884" class="volotea-1" d="M884.6,121.6v-14.7l-7.4,7.4L884.6,121.6z M891.9,129l7.4,7.4V92.1l-7.4,7.4V129z M906.7,84.8
		v58.9l3.7,3.7l3.7-3.7V84.8l-3.7-3.7L906.7,84.8z M936.1,106.9v14.7l7.4-7.3L936.1,106.9z M921.4,136.3l7.4-7.4V99.5l-7.4-7.4
		V136.3z" />
		<path id="path4886" class="volotea-1" d="M884.6,187.9v-14.7l-7.4,7.4L884.6,187.9z M891.9,195.3l7.4,7.4v-44.2l-7.4,7.4V195.3z
		 M906.7,151.1v59l3.7,3.7l3.7-3.7v-59l-3.7-3.7L906.7,151.1z M936.1,173.2v14.7l7.4-7.4L936.1,173.2z M921.4,202.7l7.4-7.4v-29.5
		l-7.4-7.4V202.7z" />
		<path id="path4888" class="volotea-1" d="M818.2,121.6v-14.7l-7.4,7.4L818.2,121.6z M825.6,129l7.4,7.4V92.1l-7.4,7.4V129z M840.4,84.8
		v58.9l3.7,3.7l3.7-3.7V84.8l-3.7-3.7L840.4,84.8z M869.8,106.9v14.7l7.4-7.3L869.8,106.9z M855.1,136.3l7.4-7.4V99.5l-7.4-7.4
		V136.3z" />
	</g>
</svg>