<?xml version="1.0" encoding="utf-8"?>
<svg version="1.1" id="Layer_1" xmlns="http://www.w3.org/2000/svg" xmlns:xlink="http://www.w3.org/1999/xlink" x="0px"
	y="0px" viewBox="0 0 524 241.8" style="enable-background:new 0 0 524 241.8;" xml:space="preserve">
	<style type="text/css">
		.wizz-air-0 {
			fill: url(#SVGID_1_);
		}
	</style>
	<linearGradient id="SVGID_1_" gradientUnits="userSpaceOnUse" x1="-95.4995" y1="-282.7225" x2="-94.0439"
		y2="-282.7225" gradientTransform="matrix(0 -166.1556 166.1556 0 47237.9258 -15625.9189)">
		<stop offset="0" style="stop-color:#161998" />
		<stop offset="0.13" style="stop-color:#441E93" />
		<stop offset="0.27" style="stop-color:#6E228F" />
		<stop offset="0.41" style="stop-color:#90258C" />
		<stop offset="0.55" style="stop-color:#AB2889" />
		<stop offset="0.69" style="stop-color:#BE2A87" />
		<stop offset="0.84" style="stop-color:#C92B86" />
		<stop offset="1" style="stop-color:#CD2B86" />
	</linearGradient>
	<path class="wizz-air-0" d="M385.1,85.8h50.6l-59.9,78.4h-50.6L385.1,85.8z M381.3,78.2l-63.7,83.4c-1.5,2-1.8,4.5-0.7,6.7
	c1.1,2.2,3.4,3.6,5.8,3.6h56.9l64.2-84c1.4-1.9,1.6-4.3,0.6-6.4c-1-2.1-3.1-3.3-5.5-3.3H381.3z M199.3,37.4c0.3-0.5,0.9-0.9,1.6-0.9
	h33.2l4.8-27.4c0.2-0.9,0.9-1.5,1.8-1.5l31.1,0c0.6,0,1,0.2,1.4,0.5c0.3,0.4,0.5,1,0.4,1.5l-3.1,17.7l146.1,0.1
	c0.8,0,1.4,0.5,1.6,0.9c0.2,0.3,0.4,1-0.1,1.7l-13.2,17.2l108.3,0c0.6,0,1.1,0.4,1.3,0.8c0.2,0.3,0.3,0.8,0,1.3l-90,117.8
	c-1,1.3-1,4.5-0.3,5.9c0.7,1.4,3.3,3.4,4.9,3.4l63.3,0.1c0.7,0,1.2,0.4,1.4,0.6c0.3,0.4,0.5,0.9,0.4,1.4l-4.8,27.5
	c-0.2,0.8-0.9,1.4-1.8,1.4H246.7l-4,0c0.3,1.4,0.4,2.8,0.4,4.2c0,12.4-10,22.4-22.4,22.4c-12.4,0-22.4-10-22.4-22.4
	c0-12.4,10-22.4,22.4-22.4c8.5,0,15.8,4.7,19.7,11.6l98.1-128.6c1.6-3.3,0.8-4.5-0.1-6.5c-0.6-1.5-3-3-5.6-3h-68.7L246.6,163
	c-0.2,0.8-0.9,1.3-1.8,1.3h-31.1c-0.7,0-1.2-0.4-1.4-0.6c-0.2-0.2-0.5-0.7-0.4-1.4l19.1-108.8l-77.5,152c-0.7,1.2-2,2-3.4,2
	l-26.4,0.1c-0.9,0-1.7-0.7-1.8-1.5l-7.3-110.4L57.3,205.6c-0.7,1.2-2,2-3.4,2l-26.8,0c-0.9,0-1.7-0.7-1.8-1.5L7.8,38.4
	c0-0.5,0.1-1,0.5-1.4c0.3-0.3,0.8-0.5,1.4-0.5h36c1,0,1.8,0.8,1.8,1.9l5.4,109.3l53-110.2c0.3-0.6,0.9-0.9,1.6-0.9l32.8-0.1
	c0.9,0,1.7,0.7,1.8,1.5l5.3,110.2L199.3,37.4z M239.1,0c-3.7,0-6.9,2.6-7.5,6.3l-4,22.5h-27.9c-2.9,0-5.4,1.5-6.8,4.2l-39.3,83.8
	l-3.9-81c-0.3-3.9-3.7-7-7.6-7h-35.7c-2.9,0-5.5,1.6-6.8,4.2L59,117.2l-4-80.7c0-4.2-3.4-7.6-7.6-7.6H7.7c-2.2,0-4.2,0.8-5.6,2.4
	c-1.4,1.5-2.1,3.7-2,6l17.8,171.2c0.4,3.9,3.7,6.8,7.6,6.8l29.5,0c3.6,0,6.9-2,8.6-5.2l45.1-86.4l5.6,84.8c0.4,3.9,3.7,6.8,7.6,6.8
	l29.3,0c3.6,0,6.9-2,8.6-5.2l54.8-107.5l-10.6,60.6c-0.4,2.2,0.2,4.5,1.7,6.3c1.4,1.7,3.6,2.7,5.9,2.7h34.8c3.6,0,6.7-2.5,7.5-6.1
	l16.7-95.4h59.7l-90.2,118.1c-5.4-4.5-12.2-7-19.3-7c-16.6,0-30.1,13.5-30.1,30.1c0,16.6,13.5,30.1,30.1,30.1
	c15.2,0,28.2-11.6,30-26.7l238.2,0c3.8,0,6.9-2.7,7.5-6.3l5.5-31c0.4-2.2-0.3-4.5-1.7-6.2c-1.4-1.7-3.6-2.7-5.8-2.7l-61.8-0.1
	L522.7,51c1.5-2.3,1.7-5,0.4-7.4c-1.2-2.4-3.7-3.9-6.4-3.9h-96.4l6.1-8c1.6-2.4,1.8-5.3,0.4-7.9c-1.3-2.5-3.9-4.1-6.7-4.1H279.5
	l1.9-10.8c0.4-2.2-0.3-4.6-1.8-6.3c-1.4-1.7-3.5-2.6-5.8-2.6L239.1,0L239.1,0z" />
</svg>