<?xml version="1.0" encoding="utf-8"?>
<!-- Generator: Adobe Illustrator 26.1.0, SVG Export Plug-In . SVG Version: 6.00 Build 0)  -->
<svg version="1.1" id="Layer_1" xmlns="http://www.w3.org/2000/svg" xmlns:xlink="http://www.w3.org/1999/xlink" x="0px"
  y="0px" viewBox="0 0 40 40" style="enable-background:new 0 0 40 40;" xml:space="preserve">
  <style type="text/css">
    .aeroitalia-0 {
      fill: #FFFFFF;
    }

    .aeroitalia-1 {
      fill: #D82E32;
    }

    .aeroitalia-2 {
      fill: #328040;
    }

    .aeroitalia-3 {
      fill: #4EA047;
    }
  </style>
  <path class="aeroitalia-0" d="M6,0h28c3.3,0,6,2.7,6,6v28c0,3.3-2.7,6-6,6H6c-3.3,0-6-2.7-6-6V6C0,2.7,2.7,0,6,0z" />
  <g>
    <polygon class="aeroitalia-1" points="32.1,32.4 26.6,32.4 17.6,7.6 23.1,7.6 	" />
    <polygon class="aeroitalia-2" points="9.7,32.4 4.2,32.4 17.6,7.6 23.1,7.6 	" />
    <path class="aeroitalia-3" d="M16.1,20.7C16.1,20.7,16,20.7,16.1,20.7c-2.7,1.3-5.3,2.8-7.9,4.3l-4,7.4h5.5l0.4-0.7c0.8-1.5,1.9-3,3.1-4.2
		l0,0c2.3-2.2,4.4-4.3,8-6.7c3.4-2.2,6.2-3.5,8.1-4.4c4-1.8,6.5-2.4,6.4-2.5C35.7,13.9,26.4,15.7,16.1,20.7z" />

  </g>
</svg>