<svg id="b5aa73e3-7d9f-41d7-b8c9-30fd1e4feaba" data-name="Layer 1" xmlns="http://www.w3.org/2000/svg" viewBox="0 0 40 40"><rect width="40" height="40" rx="6" style="fill:#fff"/><g id="a719181e-a1b7-48c4-9e5e-d8ca69db76d8" data-name="layer1"><g id="eab64b3e-a4b2-45b2-b63a-86f7b6ede814" data-name="g3454"><path id="b8996f3f-2495-4594-a3de-5972e5ee5ca0" data-name="Fill-1" d="M37.1,15.75s.1,0,0,.17l-1,.85a1.19,1.19,0,0,1-.61.28c-8.57,1.41-16.1,4.49-16.1,7.6,0,1.64,4.49,3.41,8.92,4.61a.3.3,0,0,1,.18.14l.23.45c.05.08.05.2-.08.18C20.53,29,13.06,27.64,13.06,23.8a3.88,3.88,0,0,1,.12-1.06c1-3.89,11.94-6.64,23.23-7l.69,0Z" style="fill:#1b1d80;fill-rule:evenodd"/><path id="a331b9e0-e253-4738-8773-6a42bc59a786" data-name="Fill-3" d="M24,34.74H16.57c-4.68,0-9.36-3.11-13.72-16.31H6.52A1.63,1.63,0,0,0,8,17.68c2.06-3,6.62-9.79,7.17-10.57,1-1.49,1.59-1.85,4.23-1.85H34.63c.32,0,.23.18,0,.26C23.44,8.76,14.49,15.67,13.15,22.81,12.24,27.7,18.05,33,23.92,34.55c.27.07.16.19.06.19Z" style="fill:#df0011;fill-rule:evenodd"/></g></g></svg>