<svg id="a4b8ca36-c999-470b-ba11-fa767b93851e" data-name="Layer 1" xmlns="http://www.w3.org/2000/svg" viewBox="0 0 174.53 174.53">
  <rect width="174.53" height="174.53" rx="26.18" style="fill: #ffcd0d"/>
  <g id="eb1411ec-b98b-4c19-9ee7-6d8d8e1dd6a0" data-name="Layer1001">
    <g id="f8866215-e93f-46d9-a796-0d8f6d9192a3" data-name="Layer1002">
      <g id="f5440fdb-c95f-4bad-bf47-b3d39cbd0c2f" data-name="Layer1003">
        <path id="a3a17a3a-e9be-4d02-a4d2-a410e79c0b44" data-name="path32" d="M120.23,61.33a4.28,4.28,0,0,0-.67-3.15c-.28-.69-1.35-1.1-1.35-1.89.27-1.53-.95-2.59-1.35-3.85A16.78,16.78,0,0,1,115.11,51c-.54-1.53-1.07-3.67-3-4.1-1-.3-1.08-1.29-1.62-1.94a6,6,0,0,0-4.71-2.84l-1.89-2.5a6.34,6.34,0,0,0-3.63-2c-1.21,0-2.29.52-3.5.68a7.23,7.23,0,0,0-1.75-2.07c-1.62-1.45-4.31-.74-6.2.05a8.62,8.62,0,0,0-1.61-1.11c-2.16-1.12-4.58-.09-6.33,1.11-1.35-1.38-3.77-1-5.52-.68s-3,1.55-3.91,2.9c-.81.22-1.62.29-2.42.44-2.56.45-4.18,2.38-5.39,4.62-2.29-.25-4.31,1.5-5.39,3.4a9.8,9.8,0,0,0-.67,1.84,10.36,10.36,0,0,0-3,1.25l-4.31,11a.51.51,0,0,1-.13.27Z" style="fill-rule: evenodd"/>
        <path id="b7df1e8a-293b-45d9-86d6-fe84a4022dbc" data-name="path33" d="M50.2,61.33c-.4.85-1.48,3.4-1.48,3.4-.41,1.28,1.21,1.38,1.61,2.37a24.19,24.19,0,0,0-.94,4.46c-.27,1.69.94,2.9,1.08,4.5-.27,1.19-1.62,1.89-1.75,3.07-.82,1.46-.95,3.2-1.49,4.77-.27,1.43-1.48,2.43-2.42,3.6h76.35a7.26,7.26,0,0,0-1.34-2.1l.27-1.13c.13-.22.27-.62.4-.68s.8,1.91,1.61,3.91H127c1.21-3.21,2.43-6.39,3.77-9.56l-.27-1.16L127.22,66l-.27-.32c-.68,2.05-1.61,4-2.29,6.06L121,80.63c-.27.33,0,.9-.53,1-.81-1.56.94-2.81.53-4.46,0-.24-.27-.46-.13-.73a3.06,3.06,0,0,0,.54-3.2c.4-1.19,1.48-2.63.4-3.91,0-.63-.54-1.06-.54-1.72a3.77,3.77,0,0,0-.13-4c-.13-.61-1.08-.84-1.08-1.53a1.74,1.74,0,0,0,.14-.84Z" style="fill-rule: evenodd"/>
        <path id="a22705d1-547b-4fe8-80c6-24db574b2923" data-name="path34" d="M44.82,87.51h0A3.52,3.52,0,0,0,44,89.06c-.54,1.24.13,2.6.81,3.67.4.76,1.48,1.25,1.48,2.14a4.84,4.84,0,0,1-1.08,1.8c-.4,1.5.41,2.76,1.22,3.86.4,1.28-.81,1.9-1.22,2.92a3.6,3.6,0,0,0,1.08,3.4,3.68,3.68,0,0,1-.81,2.08c-.81,1.45-2,3-1.35,4.78l2.3,4.36a1.51,1.51,0,0,0,1.07,1l11.72,0a32.32,32.32,0,0,1,5.25.22c.81.42.94,1.43,1.48,2.18l7.14,16.28.94,2,15.49-11.7,10.77-8,9.3-7.07,5.79-4.34v-.15L112,100.41v-.53c.67-.38.94-1.09,1.48-1.59.41-1.38,1.89-2.31,1.76-3.85a4.11,4.11,0,0,0,1.21-1.37,14.58,14.58,0,0,1,1.21-3.3c0-.2.27-.52.54-.39-.54,3.12-2.29,5.77-3.37,8.67l1.08,2.93,4.84,13.39,4.58-10.32,1-2.75a72.55,72.55,0,0,1-3.51-9.13c-.53-1.53-.94-3.18-1.61-4.67Z" style="fill-rule: evenodd"/>
        <path id="a678a5e7-163b-40c4-9430-bb71238d1a4f" data-name="path35" d="M122.12,87.51h0c.8,2.19,1.75,4.49,1.75,4.49l.8,1.64c.81-2,1.62-4.1,2.29-6.13Z" style="fill-rule: evenodd"/>
        <path id="ad969133-3bfd-4982-adeb-7fb3ba402d74" data-name="path36" d="M74.44,60.84,106.9,76.61a104.48,104.48,0,0,1,11.31,5.84v.08a15.12,15.12,0,0,1-1.75,4l-2.83-.85L100.7,81.06l-1.88-.68a25.55,25.55,0,0,0-8.75-7.19c-1.35-.15-2.43,1.06-3.23,2.09-.14,1.35-1.35.14-2,.22l-9.16-3.13L55.73,65.09,52,63.64c1.21-3.89,3-7.62,4.45-11.36l1.48.58Z" style="fill: #ffcb05;fill-rule: evenodd"/>
        <path id="ed091f78-c83b-4133-a698-ddf3537dcc92" data-name="path37" d="M128.18,78.06a49.42,49.42,0,0,1-3.77,9.65c-.67-1.58-.94-3.34-1.49-5,1-3.23,2.16-6.35,3.24-9.52h.13Z" style="fill: #ffcb05;fill-rule: evenodd"/>
        <path id="bb2f1907-f1e1-4787-a162-1bf9f50e51cf" data-name="path38" d="M123.47,101c-.68,2.23-1.62,4.36-2.43,6.56l-.41-.48c-.94-2.89-1.75-5.87-2.55-8.82a16.4,16.4,0,0,1,2-6.14Z" style="fill: #ffcb05;fill-rule: evenodd"/>
        <path id="a8d8c523-aa9e-403d-a6e3-bcee84267e46" data-name="path39" d="M66,71.72a11.84,11.84,0,0,1,3.1,1.5l3.5,10.12A35.79,35.79,0,0,0,75,89.5a2,2,0,0,0,1.89.49c3.23-1.53,6.46-3.1,9.69-4.38.4-1,.4-2.16.81-3.17a37.08,37.08,0,0,1,2-6.53.5.5,0,0,1,.68-.28c2.15.53,3.63,2.5,5.25,4,2.29,2.43,2.42,6.48,1.21,9.43A13.93,13.93,0,0,1,95,92.17c-1.07,2.43-2.83,4.59-3.77,7.06-.8,1.49-1.62,4.1-4,3.65l-.53-.18a34.67,34.67,0,0,1-.82,3.74,4.56,4.56,0,0,1-1.07-3c-.41-1.58,1.35-2.24,1.62-3.52-.14-.55.4-1.31-.27-1.69h-.82a7.78,7.78,0,0,0-2.82,7.41c.27,1.48,1.48,2.66,2.42,3.8-.27,1.4-.67,2.75-.94,4.13-1.21.24-2.83-.31-3.77.44v.48l3.91,11.73.13.64a27.58,27.58,0,0,1-8.89.1l-5.25-12.44c-.54-.58-1.22.06-1.89-.2a9.42,9.42,0,0,0-2.42,0c-.81-.17-1.49.14-2.43,0H53.3l-1.35,0a12.29,12.29,0,0,1-1.07-2.22,41.75,41.75,0,0,1,4.71-2.15,2.43,2.43,0,0,0,.81-2.21,47.15,47.15,0,0,1-2.3-7.44,9.39,9.39,0,0,1,2.83-1.56c1.35,2.63,2,5.49,3.1,8.19.67,1.27,1.61,0,2.42-.08l4-1.54a1,1,0,0,0,.54-1.15v-.74l-2.15-6.09L61.51,86.55c2-1.06,4-2,6.06-3l.27-.3A37.84,37.84,0,0,0,65,73.18a25.85,25.85,0,0,0-5.65-2.05,3.48,3.48,0,0,1-.82-1.82c2.57.68,5,1.56,7.42,2.41Z" style="fill: #fff;fill-rule: evenodd"/>
        <path id="ff145ac6-cc72-4ef4-ad2b-243a7e870ef1" data-name="path40" d="M63.13,77.81a29.69,29.69,0,0,0-3.77-1.2l-.13,0a27.46,27.46,0,0,0-1.21,3,11.54,11.54,0,0,1-.81-3.09,10.92,10.92,0,0,0-2.56-1.12,1.49,1.49,0,0,1,.41-1l8.35,2.74Z" style="fill: #fff;fill-rule: evenodd"/>
        <path id="bd2f926e-f91f-4722-a13a-4632b9414d01" data-name="path41" d="M52.63,90.58a15.55,15.55,0,0,1,.13,2.49,2.83,2.83,0,0,1-2.15-1.54c0-.82,1.07-.82,1.61-1.2C52.5,90.22,52.5,90.49,52.63,90.58Z" style="fill: #fff;fill-rule: evenodd"/>
        <path id="bbcde6ec-d4d9-471b-84b5-d5720c983268" data-name="path42" d="M94.78,104.57a7.18,7.18,0,0,1-.94,3.37,7.51,7.51,0,0,1-5.26,2.42,21.6,21.6,0,0,1-3-1c-.14-.41.13-.9.27-1.29.53,0,1.07.52,1.61.64a4.65,4.65,0,0,0,5-1.25,5.68,5.68,0,0,0,1.08-4.44A27.69,27.69,0,0,0,92,99.85a.93.93,0,0,1,.4-.74c1.76,1.17,2.43,3.28,2.43,5.46Z" style="fill: #fff;fill-rule: evenodd"/>
        <path id="a84cf1b5-87dd-478f-a381-f341fef4bf30" data-name="path43" d="M93.7,79.28c1.35,1.91,1.35,4.38,1.76,6.71,0,.5.13,1.14-.27,1.5-.14.06-.14,0-.27.09-.27-.27-.14-.74-.27-1.1a8.29,8.29,0,0,0-3.91-6.4,1.89,1.89,0,0,1-.41-2.3c.14-.41.67-.24,1.08-.22a7.92,7.92,0,0,1,2.29,1.72Z" style="fill-rule: evenodd"/>
        <path id="aa88e2ac-6048-4be7-98de-19c15e7698a6" data-name="path44" d="M89.53,81.92a29.6,29.6,0,0,1,4.17,3.52c.4.55.13,1.23.13,1.89L92.49,95c-1.89,1.32-4,1.92-6.07,2.79A1.42,1.42,0,0,1,85.21,97c.13-1.67.67-3.34.94-5l.27-.25a12.3,12.3,0,0,0,2.29-.68,4.15,4.15,0,0,0,.67-2.29c-.8-1.15-2.15-2.19-1.48-3.81a19.6,19.6,0,0,1,.81-2.75c.14-.24.41-.64.82-.3Z" style="fill-rule: evenodd"/>
        <path id="b215f709-c379-4446-ba0b-9cc9adec238b" data-name="path45" d="M73.91,90.2c-.68,4.26-1.89,8.41-3,12.51a1.24,1.24,0,0,1-.94.57c-1.07-.44-.81-1.71-1.21-2.57-.68-2.62-1.62-5.16-2.43-7.76-.13-.66.54-.62.81-.9,2-.85,4.18-1.26,6.06-2.41C73.64,89.67,73.77,90,73.91,90.2Z" style="fill-rule: evenodd"/>
      </g>
    </g>
  </g>
</svg>
