<svg id="a1a6771c-dae8-456f-b075-a6915b9ad689" data-name="Layer 1" xmlns="http://www.w3.org/2000/svg" viewBox="0 0 40 40">
  <rect width="40" height="40" rx="6" style="fill: #f60"/>
  <g id="ba8149cb-898c-4b82-9c2c-31d4dab5e387" data-name="Layer">
    <path id="aecce99e-aa01-4c37-8e79-406b8be2b665" data-name="Layer" d="M30.14,20.83H18.6c-.53,0-.76.24-.76.68a4,4,0,0,0,1.71,3A5.66,5.66,0,0,0,23.27,26a9.21,9.21,0,0,0,2.62-.43,8.94,8.94,0,0,0,2.38-1.11,2.72,2.72,0,0,1,1.34-.57,1.57,1.57,0,0,1,1.24.76,2.51,2.51,0,0,1,.62,1.63c0,1.19-.72,2.29-2.19,3.38a14.36,14.36,0,0,1-9,2.92,12.73,12.73,0,0,1-8.63-3A11.94,11.94,0,0,1,8.91,26a12.62,12.62,0,0,1-1.43-5.83A11.89,11.89,0,0,1,10,12.78a13.05,13.05,0,0,1,5.48-4.25,13.57,13.57,0,0,1,5.39-1.06,12.17,12.17,0,0,1,7.91,2.63,9.54,9.54,0,0,1,2.63,3.15,8.33,8.33,0,0,1,1.15,4,4.94,4.94,0,0,1-.67,2.62,2.14,2.14,0,0,1-1.71.95ZM19.26,16.25h2.48c1.05,0,1.58-.47,1.58-1.42a3,3,0,0,0-.77-2.15,2.49,2.49,0,0,0-2-.82A2.5,2.5,0,0,0,18.41,13a3.43,3.43,0,0,0-.72,2,1.41,1.41,0,0,0,.33,1,3.23,3.23,0,0,0,1.24.19Z" style="fill: #fff;fill-rule: evenodd"/>
  </g>
</svg>
