<svg id="e8de8073-0b31-409b-a487-ae6105be4786" data-name="Layer 1" xmlns="http://www.w3.org/2000/svg" viewBox="0 0 40 40">
  <rect width="40" height="40" rx="6" style="fill: #073590"/>
  <g id="e72a2408-ca67-4796-98bc-4203ce2edb52" data-name="Layer">
    <g id="aa3f1953-20e4-4a5e-b30c-30656ac05b83" data-name="Layer">
      <path id="f46d9230-c2b8-4389-9388-a54452d4a443" data-name="Layer" d="M24.89,6.72a29.24,29.24,0,0,0,5.95,1.35l1.43,0,0,0a9.42,9.42,0,0,0,2.32-.54c.09,0,.3-.07.39,0a.41.41,0,0,1-.2.45,12.67,12.67,0,0,1-3.37,1.77v0a9.19,9.19,0,0,0-1.17.36,12.73,12.73,0,0,1-4.52.59c-2.91-.15-5.37-1.19-7.93-1.07a7,7,0,0,0-6.25,2.72,7.71,7.71,0,0,0-1.4,3.19c.08,1.05,1.54,1.45,2.09,2.31A13,13,0,0,1,13,19.5a31.31,31.31,0,0,0,2,3.21l0,0a4.93,4.93,0,0,0,2,1.69,8.58,8.58,0,0,1,2.57,2.75l0,0a26.63,26.63,0,0,1,1.48,3.1c.21.64.46,1.21.64,1.84.07.06.07.15.11.23.17.5.32,1,.53,1.49-.09.07.07.1,0,.16,0,.28.28.7-.08.89a5.82,5.82,0,0,1-1.09-1.65A33.55,33.55,0,0,0,19,30.07l0,0c-.47-.59-1-1.26-1.53-1.87-2.27-2.52-5.61-4-8.06-6.43l0,0a5.2,5.2,0,0,1-.51-.65l0,0c-.3-.42-.48-.9-.76-1.32v0a21.54,21.54,0,0,1-2-3.51,11.92,11.92,0,0,1-.32-1.58l-.06-.2c0-.55-1.33-.87-.58-1.92.47-.51,2.29-1.14,2.91-2.09A.49.49,0,0,0,8,10c0-.11-.11-.21-.18-.32C7.5,9.27,6.57,9.61,6.58,9c.1,0,0-.09.07-.13a1.46,1.46,0,0,1,0-.78A4.36,4.36,0,0,0,7,6.43c0-.2.24-.31.43-.39a9,9,0,0,1,1.11-.2l.05,0a2.93,2.93,0,0,1,2.52.68A2.47,2.47,0,0,1,11,8.23c0,.31-.38.56-.3.88a.49.49,0,0,0,.51,0A14.45,14.45,0,0,0,14.68,6.1a4.19,4.19,0,0,1,3.41-.95,40.67,40.67,0,0,1,6.79,1.57Zm-6.3,4.41c.34.46-.12.87-.25,1.27-1.44,2.16-1.94,4.6-2.89,6.91a.31.31,0,0,1-.32.07.74.74,0,0,1-.22-.74,19.78,19.78,0,0,1,1.92-7.09,1.31,1.31,0,0,1,1.22-.68,1,1,0,0,1,.54.26Zm3.78.66c.18.82-.41,1.5-.67,2.23-1.4,2.79-3.07,5.52-3.9,8.51,0,.09-.09.22-.2.26a.21.21,0,0,1-.25-.11,7.22,7.22,0,0,1,.35-3.54,36.72,36.72,0,0,1,3.1-7.4c.15-.12.18-.22.37-.27a1.27,1.27,0,0,1,1.2.32Zm4,.14c.38.28.19.82,0,1.15-1.64,3.63-4.29,6.76-5.38,10.56-.3.81-.5,1.64-.75,2.45,0,.15-.26.15-.41.12a3,3,0,0,1-.11-1.16,22.91,22.91,0,0,1,2.57-8.69c.68-1.33,1.33-2.52,2-3.82a1.66,1.66,0,0,1,1-.82,1.88,1.88,0,0,1,1,.21Zm4.48.19c.27.44,0,.92-.11,1.34-1,2.91-3,5.33-4.54,8a40.19,40.19,0,0,0-3.11,7c-.31.72-.42,1.51-.79,2.18,0,.07-.13,0-.19.05-.23-.19-.2-.47-.26-.72.18-3,1.32-5.64,2.39-8.32,1.34-3,3.14-5.83,4.36-8.92a1.77,1.77,0,0,1,1-1,1.29,1.29,0,0,1,1.22.45Z" style="fill: #f4ca35"/>
    </g>
  </g>
</svg>
