<svg id="a8d91729-f162-425f-96c3-8146dcedf6c6" data-name="Layer 1" xmlns="http://www.w3.org/2000/svg" xmlns:xlink="http://www.w3.org/1999/xlink" viewBox="0 0 40 40"><defs><linearGradient id="b5e1295d-141b-44c1-a768-2da315175eb3" y1="20" x2="40" y2="20" gradientTransform="translate(40) rotate(90)" gradientUnits="userSpaceOnUse"><stop offset="0" stop-color="#c6007f"/><stop offset="0.13" stop-color="#b20081"/><stop offset="0.4" stop-color="#7f0084"/><stop offset="0.78" stop-color="#2d018b"/><stop offset="0.91" stop-color="#10018d"/></linearGradient></defs><rect width="40" height="40" rx="6" style="fill:url(#b5e1295d-141b-44c1-a768-2da315175eb3)"/><path id="b9d4a0be-421e-40dc-8021-52f5ed0eb069" data-name="Layer" d="M20.74,12.41a.47.47,0,0,1,.37.17.49.49,0,0,1,.11.39l-.12.68h8.82a.49.49,0,0,1,.43.26.48.48,0,0,1,0,.49l-.38.5H36a.45.45,0,0,1,.37.71L30.71,23h3.88a.45.45,0,0,1,.36.17.5.5,0,0,1,.11.39l-.34,1.95a.48.48,0,0,1-.47.4H19.3a1.92,1.92,0,0,1-1.89,1.67,1.89,1.89,0,0,1,0-3.78,1.87,1.87,0,0,1,1.22.44l5.66-7.41H20.54l-1.05,6a.48.48,0,0,1-.47.39H16.84a.48.48,0,0,1-.37-.17.46.46,0,0,1-.1-.39L17,18.84l-3.44,6.75a.6.6,0,0,1-.54.33H11.21a.49.49,0,0,1-.48-.43l-.35-5.33L7.55,25.59a.62.62,0,0,1-.54.33H5.15a.48.48,0,0,1-.47-.43L3.56,14.74a.49.49,0,0,1,.12-.37A.48.48,0,0,1,4,14.22H6.53A.48.48,0,0,1,7,14.7l.25,5.07L9.8,14.49a.47.47,0,0,1,.43-.27h2.24a.48.48,0,0,1,.48.44l.24,5.09,2.47-5.27a.49.49,0,0,1,.43-.26h1.75l.25-1.41a.48.48,0,0,1,.47-.4ZM12.8,21.7l-.33-6.91a.11.11,0,0,0-.11-.1H10.3a.13.13,0,0,0-.1.06L6.88,21.68l-.34-6.86a.12.12,0,0,0-.12-.12H4.16a.11.11,0,0,0-.08,0,.16.16,0,0,0,0,.09l1.1,10.52a.1.1,0,0,0,.11.1H6.94a.24.24,0,0,0,.21-.12l3.6-6.9.46,6.94a.1.1,0,0,0,.11.09H13a.23.23,0,0,0,.21-.13l4.87-9.54-1.2,6.83a.11.11,0,0,0,0,.09.09.09,0,0,0,.08,0h2a.11.11,0,0,0,.12-.09l1.1-6.28h4.31a.38.38,0,0,1,.35.18.39.39,0,0,1,0,.41L18.64,25a1.4,1.4,0,1,0,.18.68,1.09,1.09,0,0,0,0-.26H34.15a.11.11,0,0,0,.11-.09l.3-1.73a.11.11,0,0,0-.11-.13h-4a.49.49,0,0,1-.31-.22.47.47,0,0,1,0-.37l5.65-7.39a.07.07,0,0,0,0-.08.1.1,0,0,0-.08,0H29l.83-1.08a.11.11,0,0,0,0-.11.16.16,0,0,0-.11,0H20.53L20.72,13a.1.1,0,0,0,0-.1.11.11,0,0,0-.08,0H18.66a.11.11,0,0,0-.11.09l-.3,1.72H16.16a.13.13,0,0,0-.1.06Zm18.3-4.38a.39.39,0,0,1,.35.21.41.41,0,0,1,0,.4l-4,5.27H23.8a.41.41,0,0,1-.36-.23.4.4,0,0,1,0-.42l4-5.23ZM24,22.72h3.17L30.9,17.8H27.72Z" style="fill:#fff;fill-rule:evenodd"/></svg>