<svg xmlns="http://www.w3.org/2000/svg" viewBox="0 0 1920 1920"><defs><style>.cls-1{fill:#634981;}.cls-2{fill:#80669d;}.cls-3,.cls-4{fill:#fff;}.cls-3{stroke:#000;stroke-miterlimit:10;}</style></defs><g id="Layer_4" data-name="Layer 4"><path class="cls-1" d="M1920,960c0,530.21-429.79,960-960,960S0,1490.21,0,960,429.79,0,960,0,1920,429.8,1920,960Z"/><path class="cls-2" d="M1735.3,858.1c-189,14.37-249.63-96.42-224.72-130.26,43.08-58.63,248.14,83.81,261.69-21.74,2.42-18.52,48.8-66.85,89.61-75.86-93.06-254.33-290.6-458.26-540.62-559.9-8.54,28.79-16.06,52.56-20.21,54.6C1156.92,195,986.63,227.55,884.41,362.24c-14.33,18.91-33.29,54.63-12.77,77.19,25.38,28,93.22-.78,126.5,1.65,92.59,6.65,353.66,67.44,362.12,109.73s-99.09,122.27-204.2,64.27c-30.94-17.07-154.55-38.34-196.53-45.9C930.16,563.93,676.76,595.73,688,897c4.54,122.19,81,200.79,204.2,202.2,102.23,1.17,205.7-10.77,239.14,110.21,28.36,102.53,17.55,208.67,42.85,310.73,10.18,41,31.88,98.7,83.89,103.16,78.88,6.82,131.91-46.21,179.3-101.2,37.75-43.95,85.45-82.09,113.65-133.48,44.65-81.58,32.35-178.71,79.58-260.4C1668.72,1062.3,1795.06,853.52,1735.3,858.1Z"/><path class="cls-2" d="M308.07,1147c-30.08-43.67-64.55-86-95.4-129C183.84,977.82,71.44,795.31,19.35,767.27A964.22,964.22,0,0,0,0,960c0,233.65,83.5,447.81,222.23,614.26,3.52,4.31,86.94-57.65,94.3-63.92,30.79-26.16,56.56-58.12,68.15-97.36C411.54,1321.45,358.67,1220.6,308.07,1147Z"/></g><g id="Layer_2" data-name="Layer 2"><path class="cls-3" d="M1300.46,730.08c-4.39-4.26-10.74-4.49-16.5-4-37.69,3-71.75,25.4-104.3,47.21-100.54,67.4-202.49,134.81-307.18,194.42-.59.35-1.18.68-1.77,1-145.9,82.93-297.14,150.6-457.4,181.83l-1.05.21c112.61,58.88,360.81-34.67,360.81-34.67,34.33-10.45,195.71-110.37,198.44-112.53,18.36-14.52,240-156.63,317.32-233.18C1299.61,759.67,1311.34,740.61,1300.46,730.08Z"/></g><g id="Layer_5" data-name="Layer 5"><path class="cls-4" d="M1541.32,477.87q-20.49-170.74-104.71-242.59t-245.29-46.87L850.05,241.32c-31.21,4.84-55.35,33.52-58.24,69.17L747.12,863.16a154.08,154.08,0,0,1,17.56-11.57c16.11-9.31,32.52-18.31,49-26.76,20.43-10.48,40.75-21.15,61.12-31.79,5-2.59,9.94-5.12,14.93-7.64l27.61-351.63c2.8-35.74,27-64.52,58.25-69.37l216.23-33.53q95.91-14.87,144.38,27.91t60.56,143.61q24.45,203.68-42.11,348.16t-220.41,168.3l-182,28.22c-41.45,6.42-77.57-30.92-76.75-77.62-7.65,4.74-15.83,8.3-23.85,12.37-12.2,6.2-23.68,14-36.07,19.79C788,1014.43,761,1028.08,734.2,1042.9a8.38,8.38,0,0,1-1.67.7L685.75,1622c-4,49.27,33.4,89.94,76.52,83.26h0c31.18-4.84,55.31-33.45,58.23-69.06L851,1265.31c2.93-35.61,27.06-64.23,58.23-69.06l220.09-34.13q229.88-35.62,337.37-223.09T1541.32,477.87Z"/></g><g id="Layer_3" data-name="Layer 3"><path class="cls-3" d="M231.5,873.29l92.89-35.2L576.73,938.41s-188.87,109.11-193.51,170.7Z"/></g></svg>