<?xml version="1.0" encoding="utf-8"?>
<svg version="1.1" id="Layer_1" xmlns="http://www.w3.org/2000/svg" xmlns:xlink="http://www.w3.org/1999/xlink" x="0px"
	y="0px" viewBox="0 0 1025.3 1025.3" style="enable-background:new 0 0 1025.3 1025.3;" xml:space="preserve">
	<style type="text/css">
		.calendar-0 {
			fill: none;
			stroke: #000000;
			stroke-width: 90;
			stroke-linecap: round;
			stroke-linejoin: round;
		}

		.calendar-1 {
			fill: none;
			stroke: #000000;
			stroke-width: 60;
			stroke-linecap: round;
			stroke-linejoin: round;
			stroke-miterlimit: 133.3333;
		}
	</style>
	<path class="calendar-0" d="M71,229.9h881 M252.8,45v103.9 M772.4,45v103.9 M211.2,980.2H814c58.2,0,87.3,0,109.5-11.3
	c19.6-10,35.5-25.9,45.4-45.4c11.3-22.2,11.3-51.3,11.3-109.5V315.2c0-58.2,0-87.3-11.3-109.5c-9.9-19.6-25.8-35.5-45.4-45.5
	c-22.2-11.3-51.3-11.3-109.5-11.3H211.2c-58.2,0-87.3,0-109.5,11.3c-19.6,10-35.5,25.9-45.4,45.4C45,227.9,45,257,45,315.2V814
	c0,58.2,0,87.3,11.3,109.5c10,19.6,25.9,35.5,45.4,45.4C124,980.2,153.1,980.2,211.2,980.2z" />
	<line class="calendar-0" x1="67.5" y1="262.9" x2="948.5" y2="262.9" />
	<g>
		<path class="calendar-1" d="M823.1,460.6l-618.9-0.1 M410.5,645.4l-206.3,0" />
	</g>
</svg>