<svg viewBox="0 0 24 24" fill="none" xmlns="http://www.w3.org/2000/svg">
  <path d="M7 6V20M19 6C19 5.07 19 4.6 18.85 4.23C18.64 3.74 18.26 3.36 17.77 3.15C17.4 3 16.93 3 16 3C15.07 3 14.6 3 14.23 3.15C13.74 3.36 13.36 3.74 13.15 4.23C13 4.6 13 5.07 13 6M17 13C17 14.66 15.66 16 14 16C12.34 16 11 14.66 11 13C11 11.34 12.34 10 14 10C15.66 10 17 11.34 17 13ZM6.2 20H17.8C18.92 20 19.48 20 19.91 19.78C20.28 19.59 20.59 19.28 20.78 18.91C21 18.48 21 17.92 21 16.8V9.2C21 8.08 21 7.52 20.78 7.09C20.59 6.72 20.28 6.41 19.91 6.22C19.48 6 18.92 6 17.8 6H6.2C5.08 6 4.52 6 4.09 6.22C3.72 6.41 3.41 6.72 3.22 7.09C3 7.52 3 8.08 3 9.2V16.8C3 17.92 3 18.48 3.22 18.91C3.41 19.28 3.72 19.59 4.09 19.78C4.52 20 5.08 20 6.2 20Z" stroke="currentColor" stroke-width="1.5" stroke-linecap="round" stroke-linejoin="round"/>
</svg>
