<?xml version="1.0" encoding="utf-8"?>
<!-- Uploaded to: SVG Repo, www.svgrepo.com, Generator: SVG Repo Mixer Tools -->
<svg width="800px" height="800px" viewBox="0 0 24 24" fill="none" xmlns="http://www.w3.org/2000/svg">
    <path
        d="M7 6V20M19 6C19 5.06812 19 4.60218 18.8478 4.23463C18.6448 3.74458 18.2554 3.35523 17.7654 3.15224C17.3978 3 16.9319 3 16 3C15.0681 3 14.6022 3 14.2346 3.15224C13.7446 3.35523 13.3552 3.74458 13.1522 4.23463C13 4.60218 13 5.06812 13 6M17 13C17 14.6569 15.6569 16 14 16C12.3431 16 11 14.6569 11 13C11 11.3431 12.3431 10 14 10C15.6569 10 17 11.3431 17 13ZM6.2 20H17.8C18.9201 20 19.4802 20 19.908 19.782C20.2843 19.5903 20.5903 19.2843 20.782 18.908C21 18.4802 21 17.9201 21 16.8V9.2C21 8.07989 21 7.51984 20.782 7.09202C20.5903 6.71569 20.2843 6.40973 19.908 6.21799C19.4802 6 18.9201 6 17.8 6H6.2C5.0799 6 4.51984 6 4.09202 6.21799C3.71569 6.40973 3.40973 6.71569 3.21799 7.09202C3 7.51984 3 8.07989 3 9.2V16.8C3 17.9201 3 18.4802 3.21799 18.908C3.40973 19.2843 3.71569 19.5903 4.09202 19.782C4.51984 20 5.07989 20 6.2 20Z"
        stroke="#000000" stroke-width="2" stroke-linecap="round" stroke-linejoin="round" />
</svg>