<svg viewBox="0 0 24 24" fill="none" xmlns="http://www.w3.org/2000/svg">
  <path d="M3 22V12C3 10.1144 3 9.17157 3.58579 8.58579C4.17157 8 5.11438 8 7 8C8.88562 8 9.82843 8 10.4142 8.58579C11 9.17157 11 10.1144 11 12" stroke="currentColor" stroke-width="1.5"/>
  <path d="M17 22V16C17 14.1144 17 13.1716 16.4142 12.5858C15.8284 12 14.8856 12 13 12H11C9.11438 12 8.17157 12 7.58579 12.5858C7 13.1716 7 14.1144 7 16V22" stroke="currentColor" stroke-width="1.5"/>
  <path d="M21 22V7.77C21 6.43 21 5.76 20.64 5.25C20.29 4.73 19.66 4.5 18.4 4.03C15.95 3.11 14.72 2.65 13.86 3.24C13 3.84 13 5.15 13 7.77V12" stroke="currentColor" stroke-width="1.5"/>
  <path d="M4 8V6.5C4 5.56 4 5.09 4.29 4.79C4.59 4.5 5.06 4.5 6 4.5H8C8.94 4.5 9.41 4.5 9.71 4.79C10 5.09 10 5.56 10 6.5V8" stroke="currentColor" stroke-width="1.5" stroke-linecap="round"/>
  <path d="M7 4V2" stroke="currentColor" stroke-width="1.5" stroke-linecap="round"/>
  <path d="M22 22H2" stroke="currentColor" stroke-width="1.5" stroke-linecap="round"/>
  <path d="M10 15H14M10 18H14" stroke="currentColor" stroke-width="1.5" stroke-linecap="round"/>
</svg>
