<?xml version="1.0" encoding="iso-8859-1"?>
<!-- Uploaded to: SVG Repo, www.svgrepo.com, Generator: SVG Repo Mixer Tools -->
<svg height="800px" width="800px" version="1.1" id="Layer_1" xmlns="http://www.w3.org/2000/svg" xmlns:xlink="http://www.w3.org/1999/xlink" 
	 viewBox="0 0 512 512" xml:space="preserve">
<circle style="fill:#FFDC64;" cx="256" cy="256" r="256"/>
<circle style="fill:#FFC850;" cx="256" cy="256" r="220.69"/>
<circle style="fill:#FFF082;" cx="256" cy="256" r="194.207"/>
<path style="fill:#E7B452;" d="M291.31,253.95v-93.357c18.276,6.737,30.897,18.294,30.897,30.856c0,7.31,5.931,13.241,13.241,13.241
	s13.241-5.931,13.241-13.241c0-26.968-23.418-49.479-57.379-58.808v-9.054c0-7.31-5.931-13.241-13.241-13.241
	c-7.31,0-13.241,5.931-13.241,13.241v4.71c-2.905-0.18-5.843-0.296-8.828-0.296s-5.922,0.116-8.828,0.296v-4.71
	c0-7.31-5.931-13.241-13.241-13.241s-13.241,5.931-13.241,13.241v9.054c-33.961,9.33-57.379,31.839-57.379,58.808
	c0,35.75,24.744,53.774,57.379,66.601v93.357c-18.276-6.737-30.897-18.294-30.897-30.856c0-7.31-5.931-13.241-13.241-13.241
	s-13.241,5.931-13.241,13.241c0,26.968,23.418,49.479,57.379,58.808v9.055c0,7.31,5.931,13.241,13.241,13.241
	s13.241-5.931,13.241-13.241v-4.71c2.905,0.18,5.843,0.296,8.828,0.296s5.922-0.116,8.828-0.296v4.71
	c0,7.31,5.931,13.241,13.241,13.241c7.31,0,13.241-5.931,13.241-13.241v-9.054c33.961-9.33,57.379-31.839,57.379-58.808
	C348.69,284.801,323.946,266.776,291.31,253.95z M256,154.483c2.985,0,5.921,0.167,8.828,0.405v89.97
	c-1.668-0.514-3.327-1.033-5.009-1.539c-4.502-1.355-8.652-2.679-12.647-3.994v-84.437C250.079,154.649,253.015,154.483,256,154.483
	z M189.793,191.448c0-12.562,12.62-24.118,30.897-30.856v68.591C198.004,218.632,189.793,207.616,189.793,191.448z M256,357.517
	c-2.985,0-5.921-0.167-8.828-0.405v-89.97c1.668,0.514,3.327,1.033,5.009,1.539c4.502,1.355,8.652,2.679,12.647,3.994v84.437
	C261.921,357.351,258.985,357.517,256,357.517z M291.31,351.407v-68.591c22.686,10.552,30.897,21.568,30.897,37.736
	C322.207,333.113,309.587,344.67,291.31,351.407z"/>
</svg>