<?xml version="1.0" encoding="utf-8"?>
<svg version="1.1" id="Layer_1" xmlns="http://www.w3.org/2000/svg" xmlns:xlink="http://www.w3.org/1999/xlink" x="0px"
	y="0px" viewBox="0 0 1122 1122" style="enable-background:new 0 0 1122 1122;" xml:space="preserve">
	<style type="text/css">
		.st0 {
			fill: #4498C5;
		}

		.st1 {
			fill: #95B84C;
		}

		.st2 {
			fill: #A2C24B;
		}

		.st3 {
			opacity: 7.000000e-02;
			fill: #FFFFFF;
			enable-background: new;
		}

		.st4 {
			fill: #C4D8A1;
		}

		.st5 {
			opacity: 8.000000e-02;
		}
	</style>
	<g id="object">
		<g>
			<g>
				<g>
					<circle class="st0" cx="561" cy="561" r="561" />
				</g>
				<path class="st1" d="M694.8,16.1c10,2.4,19.9,5.2,29.7,8.1L694.8,16.1z" />
				<g>
					<path class="st2"
						d="M711,64.2c2.4,0.7,4.8,1.5,7.2,2.3c0.7-0.5,1.4-1,2.1-1.6C717,64.9,713.9,64.6,711,64.2z" />
					<path class="st2" d="M683.5,91.7c17.2,0,43.1,28.6,56.3,19.8c18.2-12.2,13.7-23.7,18.7-30.1c-13.2-5.5-26.6-10.5-40.3-14.9
					C706.7,74.9,695.1,83.3,683.5,91.7z" />
					<path class="st2" d="M711,64.2c-5.5-1.7-10.9-3.3-16.5-4.7C699.4,61.6,704.8,63.3,711,64.2z" />
					<path class="st3" d="M1010,302.7c-25.5-44.3-57.4-84.5-94.4-119.4c-0.5-0.5-1-0.9-1.5-1.4c-3.7-3.5-7.5-6.9-11.3-10.3
					c-0.5-0.5-1.1-0.9-1.7-1.4c-3.8-3.4-7.7-6.7-11.6-9.9c-0.5-0.4-0.9-0.7-1.4-1.1c-4.1-3.3-8.2-6.6-12.4-9.8
					c-0.3-0.2-0.6-0.5-0.9-0.7c-4.4-3.3-8.8-6.6-13.2-9.8c-0.1-0.1-0.3-0.2-0.4-0.3c-4.6-3.3-9.3-6.6-14.1-9.7c0,0,0,0,0,0
					c-9.7-6.5-19.7-12.6-29.8-18.5c0,0,0,0,0,0l0,0c-54.9-31.5-116-53.3-181-63l0,0c0,0,0,0,0,0c-3.8-0.6-7.6-1.1-11.4-1.6
					c-2.1-0.3-4.3-0.5-6.4-0.8c-2.5-0.3-4.9-0.6-7.4-0.9c0,0,0,0,0,0l0,0c-10.4-1-21-1.8-31.6-2.2l0,0c0,0,0,0,0,0
					c-2.3-0.1-4.6-0.2-6.9-0.2c-4.7-0.1-9.4-0.2-14.2-0.2c-4.1,0-8.2,0.1-12.2,0.2c-1.5,0-3,0.1-4.6,0.1c-2.5,0.1-4.9,0.2-7.4,0.3
					c-2,0.1-3.9,0.2-5.9,0.3c-1.9,0.1-3.8,0.2-5.7,0.4c-2.3,0.2-4.6,0.3-6.9,0.5c-1.1,0.1-2.1,0.2-3.2,0.3
					c-13.5,1.2-26.8,2.9-39.9,5c0,0,0,0,0,0l0,0c-3.5,0.6-7,1.2-10.4,1.8h0c0,0,0,0,0,0c-4.5,0.8-8.9,1.7-13.4,2.7
					c-0.2,0-0.3,0.1-0.5,0.1c-4.3,0.9-8.6,1.9-12.8,2.9c-0.2,0.1-0.5,0.1-0.7,0.2c-4.2,1-8.4,2.1-12.6,3.2c-0.2,0.1-0.5,0.1-0.7,0.2
					c-4.2,1.1-8.4,2.3-12.6,3.6c-0.2,0.1-0.3,0.1-0.5,0.2c-4.3,1.3-8.6,2.6-12.8,4c0,0,0,0-0.1,0c-47.6,15.7-92.2,38-132.6,65.9
					c0,0,0,0,0,0l0,0c-136.1,94-225.3,251-225.3,428.9c0,119.5,40.3,229.6,108,317.5c-44-76.4-69.2-165.1-69.2-259.6
					c0-157.2,69.7-298.2,179.8-393.7c0.8-0.7,1.7-1.4,2.5-2.1c2.2-1.9,4.4-3.8,6.6-5.6c1.3-1,2.5-2.1,3.8-3.1c1.8-1.5,3.6-3,5.5-4.4
					c1.4-1.1,2.8-2.2,4.2-3.2c1.8-1.4,3.5-2.7,5.3-4.1c1.4-1.1,2.9-2.2,4.4-3.2c1.8-1.3,3.5-2.6,5.3-3.9c1.5-1.1,3-2.1,4.5-3.2
					c1.8-1.2,3.6-2.5,5.3-3.7c1.5-1,3-2.1,4.6-3.1c1.8-1.2,3.6-2.4,5.5-3.6c1.5-1,3-2,4.6-3c1.9-1.2,3.8-2.4,5.7-3.5
					c1.5-0.9,3-1.9,4.5-2.8c2-1.2,4-2.4,6.1-3.6c1.4-0.8,2.9-1.7,4.3-2.5c2.3-1.3,4.7-2.6,7.1-4c1.1-0.6,2.3-1.3,3.4-1.9
					c3.5-1.9,7-3.7,10.5-5.6c1.1-0.5,2.2-1.1,3.2-1.6c2.5-1.3,5-2.5,7.6-3.8c1.4-0.7,2.9-1.4,4.3-2.1c2.2-1,4.4-2.1,6.6-3.1
					c1.6-0.7,3.2-1.4,4.7-2.1c2.1-0.9,4.2-1.9,6.4-2.8c1.6-0.7,3.3-1.4,4.9-2.1c2.1-0.9,4.2-1.7,6.3-2.6c1.7-0.7,3.4-1.3,5-2
					c2.1-0.8,4.2-1.6,6.4-2.4c1.7-0.6,3.4-1.2,5-1.9c2.2-0.8,4.4-1.5,6.5-2.3c1.7-0.6,3.3-1.2,5-1.7c2.3-0.8,4.5-1.5,6.8-2.2
					c1.6-0.5,3.2-1,4.9-1.5c2.5-0.8,4.9-1.5,7.4-2.2c1.5-0.4,2.9-0.9,4.4-1.3c3.2-0.9,6.3-1.7,9.5-2.6c0.8-0.2,1.6-0.4,2.4-0.6
					c4-1,7.9-2,11.9-2.9c1.2-0.3,2.5-0.5,3.7-0.8c2.8-0.6,5.6-1.3,8.4-1.8c1.6-0.3,3.1-0.6,4.7-0.9c2.5-0.5,5-1,7.5-1.4
					c1.7-0.3,3.4-0.6,5.1-0.9c2.4-0.4,4.8-0.8,7.2-1.2c1.8-0.3,3.5-0.5,5.3-0.8c2.4-0.3,4.7-0.7,7.1-1c1.8-0.2,3.6-0.5,5.4-0.7
					c2.4-0.3,4.8-0.6,7.2-0.8c1.8-0.2,3.6-0.4,5.4-0.6c2.5-0.2,4.9-0.5,7.4-0.7c1.8-0.1,3.5-0.3,5.3-0.4c2.6-0.2,5.1-0.3,7.7-0.5
					c1.7-0.1,3.3-0.2,5-0.3c2.8-0.1,5.7-0.2,8.6-0.3c1.4,0,2.8-0.1,4.2-0.1c4.3-0.1,8.6-0.2,12.9-0.2c1.1,0,2.2,0,3.3,0l0,0
					c77.5,0.5,151,17.9,216.9,48.7c0.7,0.3,1.3,0.6,2,1c3.3,1.6,6.7,3.2,10,4.8c1.4,0.7,2.8,1.4,4.3,2.2c2.6,1.3,5.2,2.7,7.8,4
					c1.4,0.8,2.9,1.5,4.3,2.3c3.1,1.7,6.1,3.4,9.1,5.1c1.2,0.7,2.4,1.3,3.5,2c3.2,1.9,6.5,3.8,9.6,5.7c1.5,0.9,3,1.8,4.5,2.8
					c2.3,1.4,4.5,2.8,6.8,4.3c1.5,1,3.1,2,4.6,3c2.4,1.6,4.9,3.3,7.3,4.9c1.2,0.8,2.4,1.6,3.6,2.4h0
					C938.4,223.2,977.4,260.4,1010,302.7z" />
				</g>
				<g>
					<path class="st4" d="M556.2,52.3c-0.3,0-0.5,0-0.8,0C555.8,52.3,556,52.3,556.2,52.3z" />
					<g>
						<path class="st4" d="M758.1,35.7c-14.9-2-30.4-2-47.6,0.7c7-4.9,11.4-8.9,14-12.1c-9.8-3-19.7-5.7-29.7-8.1
						c-0.7,0.2-1.4,0.5-2.1,0.7c-13.6,4.8-15.5,5.2-13.3,13.8c-5.3-2.1-10.3-4.6-14.9-7.4h-64.9c41.1,45.5-38.6,42.5-67.7,42.6
						c-5.3,0-6.6-10.7-3.5-13.5c1.4-1.3,34.3-0.1,28.1,0c26.5,0,23.2-2.1,23.2-29.1c-26.4,19.4-25.4,0-55.3,0
						c-28,0-41.8,1.5-66.4,12.6c8,6.8,16,13.6,24,20.5c-10.1-2.3-43-15.2-52-11.4c-4.2,1.8-5.3,12.9-10.4,12.9
						c-20.9,0-77.7,11.4-77.7-12.5c0-0.1-0.4-0.2-1-0.3c-51.6,22.1-99.2,51.7-141.4,87.4c27-4.5,55.4-2.9,61-2.9
						c2.5,0,19.7,44.3,19.8,47.8c0.9,19.3-12.3,27-22,45.4c-17.8,33.5-25.7,77.3-23.7,114.9c0.1,1.4,22.4,21.5,22.4,29.4
						c0,33.4,3.5,33.9,26.4,58.5v-40.9c13.7,35.8,30.2,49.6,42.5,84.7c14,39.8,69.4,9.2,88.2,35.4c8.3,11.5,23.7,6.2,31.1,17.5
						l20,30.6c12.1,18.4,26.8,12,48.4,12c20.7,0-18.9,71.6-18.9,77.6c0,24.8,33.9,81.4,33.7,91.3c-0.6,29.5,36.2,33.6,56.2,51.8
						c16,14.6,4.6,56.1,4.1,74.5c-0.4,15.5,2.9,29.4,7.7,42.8l0,0c0,0,0,0,0,0c4.4,12.3,9.9,24.2,14.9,36.4c0.9,2.1,1.7,4.3,2.5,6.4
						c0.4,0.9,0.7,1.9,1,2.8c0.7,1.8,1.3,3.6,1.9,5.4c0.3,1,0.7,2,1,3c0.6,1.9,1.1,3.8,1.7,5.8c0.2,0.9,0.5,1.8,0.7,2.8
						c0.7,2.9,1.4,5.7,1.9,8.7c2.6,15.1-3.2,31.4,0.2,45.8c3.4,14.9,16.2,24.1,16,40.5c-0.3,25.4,71,30.1,84.8,30.1
						c-0.1,0-52.1-27-52.1-23.8c0-24.1,12.4-22.4,12.4-37.1c0-17.4-15.8-31.8-5.9-56.5c10.7-26.7,9.5-25.9,38.4-25.9
						c-0.6-12.3-2.4-24.3-5.6-36.2c25.8-40.3,85.9-79,101.8-89.9c21.6-14.8,9.5-54.6,18.9-75.9c8.2-18.7,33.1-35.9,34.3-58.9
						c0.1-1.2,0-2.4-0.1-3.4c0-0.3-0.1-0.5-0.1-0.8c-0.1-0.8-0.2-1.6-0.4-2.4c-0.1-0.2-0.1-0.4-0.2-0.6c-0.2-0.8-0.5-1.6-0.8-2.3
						c-0.1-0.1-0.1-0.2-0.2-0.3c-0.4-0.8-0.8-1.6-1.3-2.3c0,0,0,0,0,0l0,0c-5-7.4-15.3-9.5-24.4-9.2c-12.8,0.4-14-20.9-23.7-20.9
						c-26.8,0-54.7-4.6-78-21.8c-3.9-2.9-8.2-37.1-14.7-45.6c-9.4-12.2-39.6,9.2-51.3-7.3c-4.4-6.3-14.9-30.8-22-30.8
						c-9.7,0-63.3-10.4-74.6-0.2c1.7-1.6-18.3-7.6-21.1-7.6c1.2,0-68.9,36.3-68.9,17.5c0-24.4,11.9-56-17.1-56
						c-46.6,0-7-12.1-7-33.5c0-27.4-45.1,7.5-68.9,7.5c0.6,0-26.8-44.9-13.6-44.9c9.4,0,10.9-19.2,17.9-27.4
						c18.4-21.5,49.8-23.8,72-19.7c9,1.6,41.4,39.3,41.5,47.1c0-1.9,13.2-10.3,15-13.1c6.4-9.8,2.8-14.1,4.4-23.9
						c5.4-33,6.7-39.5,33.1-59.6c19.3-14.7,46.4-31.7,61.6-50.7c11.6-14.6,22.4-22.1,39.2-30.4c-1.7,0.8,16,10.8,19.7,10.8
						c15.2,0,18.9-12.9,27.2-24.4h-26.4c29.8-22.8-24.2-34.6,35.6-34.6c29.4,0,32.1,0.4,50.1-20.5c-28.6,0-21.6-0.2-21.6-29.3
						c0-4.8-8.1-22.6-15.8-15c-21.1,20.7-20.3-3.8-29.5-17.6c-11.9-17.8-24.8,0.5-29.8,11.3c-6.2,13.4-56.9,34.3-56.8,51.8
						c0.1,10.2-16.7,9.8-16.4-1.6c0.5-17.2-58.8-33.5-59.8-40.2c-1.3-8.8,29.3-32.7,56-32.7c12.2,0,6.2-14.2,10-14.2
						c25.4,0,55.3-7.9,69.2-28.3c-3.5,0-36,0.2-36-0.2c0-11.6-5-18.7,8.4-18.7c31.3,0,40.6,24.4,74.9,24.4
						c-12.3,8.9-24.6,17.8-36.8,26.8c17.2,0,43.1,28.6,56.3,19.8c24.5-16.4,8-31.4,28.3-34.8c2.2,2.3,5.1,4.5,10,6.2
						c6.4,2.2,29.3,6.3,33.2,12.2c4.7,7,16.6,48.5,7.9,52.1c-14.2,5.9-55.9,51-24,62.2c24.6,8.7,30.9-2.3,52.8-16
						c20.4-12.7,25.9-8.1,48.8,0c0.2,0.1,23.8-0.8,32.7,2.3c19.3,6.8,17.9-5.4,20-4.7c8.1,2.9,23.6,4.9,33.7,0.5
						C922.7,122.6,845.6,68.5,758.1,35.7z" />
						<path class="st4" d="M525.3,426.2c-3.8,3.8-7.6,7.6-11.4,11.4c35.3,0,56.9,11.4,88.2,11.4C581.1,416.1,564.6,426.2,525.3,426.2
						z" />
						<path class="st4"
							d="M641.9,454.8c-28.4-0.9-29.7,3.4-47.1,22.9c15,0,29.9,0,44.8,0.1C652.7,477.7,650.9,455,641.9,454.8z" />
						<path class="st4" d="M682.2,484.3C682.2,444.6,641.7,484.3,682.2,484.3L682.2,484.3z" />
					</g>
				</g>
				<g class="st5">
					<path d="M854.5,82.2c55.9,87.2,88.3,190.9,88.3,302.2c0,309.8-251.2,561-561,561c-107.6,0-208.1-30.3-293.5-82.8
					c99.7,155.7,274.2,258.8,472.7,258.8c309.8,0,561-251.2,561-561C1122,358.1,1015,180.9,854.5,82.2z" />
				</g>
			</g>
		</g>
	</g>
</svg>