<?xml version="1.0" encoding="utf-8"?>
<svg version="1.1" id="Layer_1" xmlns="http://www.w3.org/2000/svg" xmlns:xlink="http://www.w3.org/1999/xlink" x="0px"
	y="0px" viewBox="0 0 631.2 625" style="enable-background:new 0 0 631.2 625;" xml:space="preserve">
	<path d="M290.6,0v50h-100v75h-100v147.7l-21.1,4.7v0.8c-45.1,9.8-67.5,62-43.8,101.6l39.8,67.2v124.2c-20.2-5.7-34.4-15.6-34.4-15.6
	L0,594.5c0,0,38.6,30.5,91.4,30.5c36.5,0,59.8-12.1,74.2-21.1c14.6,8.9,39,21.1,75.8,21.1c36.5,0,59.8-12.1,74.2-21.1
	c14.6,8.9,39,21.1,75.8,21.1c36.5,0,59.8-12.1,74.2-21.1c14.6,8.9,39,21.1,75.8,21.1c52.8,0,89.8-30.5,89.8-30.5L600,555.5
	c0,0-13.6,10.8-34.4,16.4v-125l39.8-67.2c23.7-39.6,1.4-91.8-43.8-101.6l-21.1-4.7V125h-100V50h-100V0H290.6z M240.6,100h150v75h100
	v87.5l-169.5-36.7l-5.5-0.8l-5.5,0.8l-169.5,36.7V175h100V100z M315.6,276.6l235.2,50c13.1,2.8,19.4,15.9,12.5,27.3l-43.8,73.4
	l-3.9,5.5v138.3c-20.2-5.7-34.4-15.6-34.4-15.6L465.6,543L450,555.5c0,0-25.1,19.5-58.6,19.5s-60.2-19.5-60.2-19.5L315.6,543
	L300,555.5c0,0-25.1,19.5-58.6,19.5s-60.2-19.5-60.2-19.5L165.6,543L150,555.5c0,0-13.6,10.8-34.4,16.4V432.8l-3.9-5.5L68,353.9
	c-6.9-11.5-0.6-24.5,12.5-27.3L315.6,276.6z M190.6,325c-15,0-25,17.5-25,37.5s10,37.5,25,37.5c15,0,25-17.5,25-37.5
	S205.7,325,190.6,325z M440.6,325c-15,0-25,17.5-25,37.5s10,37.5,25,37.5s25-17.5,25-37.5S455.7,325,440.6,325z" />
</svg>