<svg viewBox="0 0 24 24" fill="none" xmlns="http://www.w3.org/2000/svg">
  <path d="M2 21c.6.5 1.2 1 2.5 1C7 22 7 20 9.5 20c2.6 0 2.5 2 5 2 2.6 0 2.5-2 5-2 1.3 0 1.9.5 2.5 1" stroke="currentColor" stroke-width="1.5" stroke-linecap="round" stroke-linejoin="round"/>
  <path d="M19.38 20A11.6 11.6 0 0 0 21 14l-9-4-9 4c0 2.9.94 5.34 2.61 7" stroke="currentColor" stroke-width="1.5" stroke-linecap="round" stroke-linejoin="round"/>
  <path d="M5 12V7a1 1 0 0 1 1-1h12a1 1 0 0 1 1 1v5" stroke="currentColor" stroke-width="1.5" stroke-linecap="round" stroke-linejoin="round"/>
  <path d="M12 6V4" stroke="currentColor" stroke-width="1.5" stroke-linecap="round"/>
</svg>
