<svg id="Layer_1" data-name="Layer 1" xmlns="http://www.w3.org/2000/svg" viewBox="0 0 1025.27 1025.27">
    <defs>
        <style>
            .future-1 {
                fill-rule: evenodd;
            }

            .future-2 {
                fill: none;
                stroke: #000;
                stroke-linecap: round;
                stroke-linejoin: round;
                stroke-width: 90px;
            }
        </style>
    </defs>
    <path class="future-1"
        d="M385.85,840.92c-.07-12.61,6.93-25,18.44-38.92l-67.88-42c-4.29-1.8-4.18-4.41-1.75-7.5l14.15-12.33a10.19,10.19,0,0,1,8.29-1.56l83.45,13.17L509.12,676,346,568.1c-4.12-2.34-4.52-5.08-.3-8.29l23.15-18.9,211.77,57.16,61.67-67.33c20.75-18.36,41-26.67,56.64-22.95,8.6,2,11.7,4.56,14.42,12.61,5.34,15.74-2.47,37.11-21.17,59.21l-66.07,63.06,61.53,210.55-18.38,23.56c-3.11,4.21-5.86,3.9-8.28-.13L549.74,715.86,475.33,786l14.94,83.14a10.17,10.17,0,0,1-1.36,8.33l-12.07,14.43c-3,2.51-5.65,2.61-7.53-1.61l-43.37-67.13c-13.74,11.87-26,19.13-38.65,19.24-1.15,0-1.43-.42-1.44-1.5Z"
        transform="translate(-25.77 -25.77)" />
    <path class="future-2"
        d="M70.77,382.52H1006M278.6,70.77V174.68M798.2,70.77V174.68M237,1006H839.76c58.2,0,87.31,0,109.53-11.32a103.85,103.85,0,0,0,45.42-45.42C1006,927.07,1006,898,1006,839.76V341c0-58.2,0-87.3-11.32-109.52A103.85,103.85,0,0,0,949.29,186c-22.22-11.33-51.33-11.33-109.53-11.33H237c-58.2,0-87.3,0-109.53,11.33a103.9,103.9,0,0,0-45.42,45.42C70.77,253.65,70.77,282.75,70.77,341V839.76c0,58.2,0,87.31,11.32,109.53a103.9,103.9,0,0,0,45.42,45.42C149.74,1006,178.84,1006,237,1006Z"
        transform="translate(-25.77 -25.77)" />
</svg>