<?xml version="1.0" encoding="utf-8"?>
<!-- Generator: Adobe Illustrator 26.0.3, SVG Export Plug-In . SVG Version: 6.00 Build 0)  -->
<svg version="1.1" id="Layer_1" xmlns="http://www.w3.org/2000/svg" xmlns:xlink="http://www.w3.org/1999/xlink" x="0px"
	y="0px" viewBox="0 0 1025.3 1025.3" style="enable-background:new 0 0 1025.3 1025.3;" xml:space="preserve">
	<style type="text/css">
		.future-0 {
			fill: none;
			stroke: #000000;
			stroke-width: 90;
			stroke-linecap: round;
			stroke-linejoin: round;
		}
	</style>
	<path class="future-0" d="M71,229.9h881 M252.8,45v103.9 M772.4,45v103.9 M211.2,980.2H814c58.2,0,87.3,0,109.5-11.3
	c19.6-10,35.5-25.9,45.4-45.4c11.3-22.2,11.3-51.3,11.3-109.5V315.2c0-58.2,0-87.3-11.3-109.5c-9.9-19.6-25.8-35.5-45.4-45.5
	c-22.2-11.3-51.3-11.3-109.5-11.3H211.2c-58.2,0-87.3,0-109.5,11.3c-19.6,10-35.5,25.9-45.4,45.4C45,227.9,45,257,45,315.2V814
	c0,58.2,0,87.3,11.3,109.5c10,19.6,25.9,35.5,45.4,45.4C124,980.2,153.1,980.2,211.2,980.2z" />
	<line class="future-0" x1="67.5" y1="262.9" x2="948.5" y2="262.9" />
	<g>
		<path d="M660.9,445.9c23.2-16.2,55.2-10.2,71.1,13.3c15.4,22.9,9.7,53.8-12.8,69.7l-67.1,47.5c-5.3,3.7-7.9,5.6-9.8,8
		c-1.7,2.1-2.9,4.6-3.6,7.2c-0.8,2.9-0.7,6.2-0.5,12.6l5.4,156.9c0.2,6.6,0.3,9.9-0.5,12.9c-0.7,2.7-2,5.2-3.7,7.3
		c-2,2.4-4.7,4.3-10.2,8l-8.9,6c-14.5,9.8-21.8,14.7-28.2,14.6c-5.6-0.1-10.9-2.5-14.7-6.7c-4.3-4.8-5.5-13.4-7.7-30.8l-16.7-128.7
		l-80.1,54c-4.8,3.2-7.2,4.8-9,6.9c-1.6,1.9-2.8,4-3.7,6.3c-0.9,2.6-1.2,5.5-1.7,11.2l-2.8,33.9c-0.5,5.7-0.7,8.6-1.7,11.2
		c-0.8,2.3-2.1,4.4-3.7,6.3c-1.8,2.1-4.2,3.7-9,6.9l-4.7,3.2c-11.3,7.6-17,11.5-22.5,11.8c-4.9,0.3-9.7-1.1-13.6-4.1
		c-4.4-3.3-7.1-9.6-12.3-22.2l-22.2-53.3c-0.9-2.3-1.4-3.4-2-4.4c-0.5-0.9-1.1-1.8-1.8-2.7c-0.8-0.9-1.6-1.8-3.4-3.5l-41-40.6
		c-9.7-9.6-14.6-14.4-16-19.8c-1.3-4.7-0.8-9.7,1.3-14.1c2.4-5,8.1-8.8,19.4-16.5l4.7-3.2c4.8-3.2,7.2-4.8,9.8-5.7
		c2.3-0.8,4.8-1.1,7.2-1.1c2.8,0.1,5.5,1,11,2.7l32.4,10.1c5.5,1.7,8.3,2.6,11,2.7c2.4,0.1,4.9-0.3,7.2-1.1c2.6-0.9,5-2.5,9.8-5.7
		l80.1-54L383,495c-15.2-8.6-22.9-12.9-25.6-18.7c-2.4-5.1-2.7-10.9-0.6-16.2c2.3-6,9.6-10.9,24.1-20.7l8.9-6
		c5.5-3.7,8.2-5.5,11.2-6.4c2.7-0.8,5.4-1,8.2-0.7c3.1,0.4,6.1,1.7,12.2,4.4l142.8,63.7c5.9,2.6,8.9,4,11.9,4.3
		c2.9,0.4,5.9,0.1,8.7-0.8c2.9-0.9,5.6-2.8,10.9-6.5L660.9,445.9z" />
	</g>
</svg>