<svg id="Layer_1" data-name="Layer 1" xmlns="http://www.w3.org/2000/svg" viewBox="0 0 1066.05 1053.55"><defs><style>.cls-1{fill-rule:evenodd;}</style></defs><path class="cls-1" d="M527.47,1065.36c-21-14-33.72-39.53-43.89-74.24l-145.74,65.64c-7.78,5.07-12,2-14.41-5.46L318.82,1014c.2-6.09,2.09-11.45,6.73-15.52L441,874.84,392,676,30.17,825.7c-8.55,4.19-13.47,1.76-14.09-8.78l-5.37-59.61L342.86,470,300.27,292.21c-7.17-54.95,1.73-97.86,25.38-119.7,13.05-12,20.69-14.26,37.1-9.8,32.14,8.85,58.85,45.7,74.55,101.48l30.61,180.26L886.17,578.31l18.47,56.93c3.51,9.91-.07,14.07-9.52,13.61L503.6,653.27l33,202.07,154.65,68.37c5.81,1.89,9.69,6,12.28,11.64l10.42,36.16c.78,7.79-2,12.29-11.1,10.67L543,979c4.26,36.07,2.62,64.56-11.36,85.73-1.33,1.9-2.28,1.87-4.16.62Z" transform="translate(-10.71 -12.69)"/><path class="cls-1" d="M575,230.87c0-120.5,97.68-218.18,218.18-218.18,117.53,0,213.36,92.93,218,209.32l28.38-28.39a21.82,21.82,0,0,1,30.86,30.86l-65.46,65.45a21.81,21.81,0,0,1-30.85,0l-65.46-65.45a21.82,21.82,0,1,1,30.86-30.86l28,28a174.52,174.52,0,1,0-38.53,119A21.82,21.82,0,1,1,962.82,368a217.83,217.83,0,0,1-169.69,81C672.63,449.05,575,351.37,575,230.87ZM815,100a21.82,21.82,0,1,0-43.64,0V230.87a21.86,21.86,0,0,0,6.39,15.43l65.46,65.45A21.81,21.81,0,1,0,874,280.9L815,221.83Z" transform="translate(-10.71 -12.69)"/></svg>