<?xml version="1.0" encoding="utf-8"?>
<!-- Generator: Adobe Illustrator 26.0.3, SVG Export Plug-In . SVG Version: 6.00 Build 0)  -->
<svg version="1.1" id="Layer_1" xmlns="http://www.w3.org/2000/svg" xmlns:xlink="http://www.w3.org/1999/xlink" x="0px"
	y="0px" viewBox="0 0 800 800" style="enable-background:new 0 0 800 800;" xml:space="preserve">
	<style type="text/css">
		.language-0 {
			fill: none;
		}
	</style>
	<path class="language-0"
		d="M794.7,738.5L657.3,354.3c-9.7-25.3-31.3-40.9-56.1-40.9c-24.8,0-46,15.6-56.5,41.8l-137,383.4
	c-6.4,17.9,2.8,37.7,20.7,44.1c17.9,6.4,37.7-2.8,44.1-20.7l28.5-79.5h200l28.5,79.5c5.1,14.2,18.4,23,32.6,23
	c3.7,0,7.8-0.5,11.5-1.8c17.9-6.4,27.1-26.2,20.7-44.1L794.7,738.5z M526.3,613.1l75.4-211l75.4,211H526.3z M409.1,209
	C305.2,373.1,211.4,472.4,97.4,538.6c-5.5,3.2-11.5,4.6-17,4.6c-12,0-23.4-6-29.9-17c-9.7-16.5-4.1-37.7,12.4-46.9
	c96.5-56.1,175.6-136.5,264.3-269.8H38.1c-18.8,0-34.5-15.6-34.5-34.5c0-18.8,15.6-34.5,34.5-34.5h172.4v-91
	c0-18.8,15.6-34.5,34.5-34.5c18.8,0,34.5,15.6,34.5,34.5v91h172.4c18.8,0,34.5,15.6,34.5,34.5c0,18.8-15.6,34.5-34.5,34.5h-43.2
	L409.1,209z M410.9,543.2c-6,0-12-1.4-17.5-4.6c-29.9-17.5-58.8-36.8-86-57c-15.2-11.5-18.4-33.1-6.9-48.3
	c11.5-15.2,33.1-18.4,48.3-6.9c24.8,18.8,51.9,36.3,79.5,52.4c16.5,9.7,22.1,30.8,12.4,47.3C434.4,537.2,422.9,543.2,410.9,543.2z" />
</svg>