<svg id="Layer_4" data-name="Layer 4" xmlns="http://www.w3.org/2000/svg" viewBox="0 0 1920 1920"><defs><style>.cls-1{fill:#5d9cec;}.cls-2{fill:#a0d468;}.cls-3{fill:#fff;}.cls-4{fill:#ea4335;}</style></defs><path class="cls-1" d="M1920,960c0,530.21-429.79,960-960,960S0,1490.21,0,960,429.79,0,960,0,1920,429.8,1920,960Z"/><path class="cls-2" d="M1735.3,858.1c-189,14.37-249.63-96.42-224.72-130.26,43.08-58.63,248.14,83.81,261.69-21.74,2.42-18.52,48.8-66.85,89.61-75.86-93.06-254.33-290.6-458.26-540.62-559.9-8.54,28.79-16.06,52.56-20.21,54.6C1156.92,195,986.63,227.55,884.41,362.24c-14.33,18.91-33.29,54.63-12.77,77.19,25.38,28,93.22-.78,126.5,1.65,92.59,6.65,353.66,67.44,362.12,109.73s-99.09,122.27-204.2,64.27c-30.94-17.07-154.55-38.34-196.53-45.9C930.16,563.93,676.76,595.73,688,897c4.54,122.19,81,200.79,204.2,202.2,102.23,1.17,205.7-10.77,239.14,110.21,28.36,102.53,17.55,208.67,42.85,310.73,10.18,41,31.88,98.7,83.89,103.16,78.88,6.82,131.91-46.21,179.3-101.2,37.75-43.95,85.45-82.09,113.65-133.48,44.65-81.58,32.35-178.71,79.58-260.4C1668.72,1062.3,1795.06,853.52,1735.3,858.1Z"/><path class="cls-2" d="M308.07,1147c-30.08-43.67-64.55-86-95.4-129C183.84,977.82,71.44,795.31,19.35,767.27A964.22,964.22,0,0,0,0,960c0,233.65,83.5,447.81,222.23,614.26,3.52,4.31,86.94-57.65,94.3-63.92,30.79-26.16,56.56-58.12,68.15-97.36C411.54,1321.45,358.67,1220.6,308.07,1147Z"/><ellipse class="cls-3" cx="960.5" cy="731.5" rx="308.5" ry="320.5"/><path class="cls-4" d="M861.52,211.55c-204.65,37.66-361.82,185-415.85,390.2-11.46,42.57-13.64,64.94-14.18,122.79,0,111.33,25.1,190.46,100.41,313.8,15.28,25.64,44.2,73.12,63.85,106.41,79.68,133.16,197.56,299.61,335.63,473.7,32.74,40.93,61.66,73.13,64.94,71.49,3.27-2.18,28.92-38.75,57.3-82.41l51.3-78.58L1004.5,1391.42c-55.11-75.85-101.5-140.25-103.14-143-2.18-3.27,18.56-5.45,57.85-5.45,78-.55,132.07-13.1,203.56-46.39,161.53-75.86,269-214.48,298.51-385.84,35.48-201.92-56.75-410.39-232.48-523.9C1122.93,218.1,981.58,189.18,861.52,211.55Zm168.09,272.87c73.13,21.28,143,88.95,167,162.63,32.2,97.68,6,201.37-67.67,270.68-55.66,51.84-105.32,71.49-180.64,71.49-110.78,0-209.56-74.22-245-184.46-7.09-22.37-8.73-42.57-7.09-84.59,1.63-50.75,3.82-59.48,22.37-98.77,34.93-73.13,104.78-128.8,181.18-144.62C934.65,469.68,990.86,473,1029.61,484.42Z"/></svg>