<?xml version="1.0" encoding="utf-8"?>
<svg version="1.1" id="Layer_1" xmlns="http://www.w3.org/2000/svg" xmlns:xlink="http://www.w3.org/1999/xlink" x="0px"
    y="0px" viewBox="0 0 719 686" style="enable-background:new 0 0 719 686;" xml:space="preserve">
    <style type="text/css">
        .map-icon-0 {
            fill: none;
            stroke: #000000;
            stroke-width: 50;
            stroke-linecap: round;
            stroke-linejoin: round;
            stroke-miterlimit: 133.3333;
        }
    </style>
    <path class="map-icon-0" d="M626,241.3v-81c0-35.4-14-69.3-39.1-94.3C561.9,41,528,27,492.7,27H159.3C124,27,90.1,41,65.1,66.1
	C40,91.1,26,125,26,160.3v333.3c0,35.4,14,69.3,39.1,94.3c25,25,58.9,39.1,94.3,39.1h182" />
    <path class="map-icon-0" d="M406,267.7L53.3,79.3" />
    <path class="map-icon-0" d="M78.7,599.7l210.7-394.3" />
    <path class="map-icon-0" d="M542.7,327c-19.7,0-39.2,3.8-57.5,11.3c-18.2,7.5-34.8,18.6-48.7,32.5c-13.9,13.9-25,30.5-32.5,48.7
	c-7.5,18.2-11.4,37.7-11.3,57.5c0,100,112.7,183.3,150,183.3s150-81.7,150-183.3c0-39.8-15.8-77.9-43.9-106.1
	C620.6,342.8,582.5,327,542.7,327L542.7,327z" />
    <path class="map-icon-0" d="M542.7,493.7c-4.4,0-8.8-0.9-12.8-2.6c-4.1-1.7-7.7-4.2-10.8-7.4c-6.2-6.2-9.6-14.6-9.7-23.3c0-4.4,0.8-8.7,2.5-12.8
	c1.7-4.1,4.1-7.8,7.2-10.9c3.1-3.1,6.8-5.6,10.8-7.3c4.1-1.7,8.4-2.6,12.8-2.6c4.4,0,8.8,0.9,12.8,2.6c4.1,1.7,7.8,4.2,10.8,7.3
	c3.1,3.1,5.5,6.8,7.2,10.9c1.7,4.1,2.5,8.4,2.5,12.8c0,8.7-3.5,17.1-9.7,23.3c-3.1,3.1-6.8,5.7-10.8,7.4
	C551.4,492.8,547.1,493.6,542.7,493.7z" />
</svg>