<?xml version="1.0" encoding="utf-8"?>
<!-- Generator: Adobe Illustrator 26.0.3, SVG Export Plug-In . SVG Version: 6.00 Build 0)  -->
<svg version="1.1" id="Layer_1" xmlns="http://www.w3.org/2000/svg" xmlns:xlink="http://www.w3.org/1999/xlink" x="0px" y="0px"
	 viewBox="0 0 15.6 21.9" style="enable-background:new 0 0 15.6 21.9;" xml:space="preserve">
<style type="text/css">
	.st0{fill:#FFFFFF;}
	.st1{fill:#FF3D00;}
</style>
<g>
	<circle class="st0" cx="0" cy="-14.2" r="4.8"/>
	<path class="st1" d="M0-21.9c-4.2,0-7.7,3.4-7.7,7.7C-7.7-10,0,0,0,0s7.7-10,7.7-14.2C7.7-18.5,4.2-21.9,0-21.9L0-21.9z M0-10.4
		c-2.1,0-3.8-1.7-3.8-3.8c0-2.1,1.7-3.8,3.8-3.8c0,0,0,0,0,0c2.1,0,3.8,1.7,3.8,3.8C3.8-12.1,2.1-10.4,0-10.4z"/>
</g>
</svg>
