<svg version="1.1" id="Capa_1" xmlns="http://www.w3.org/2000/svg" xmlns:xlink="http://www.w3.org/1999/xlink" x="0px"
    y="0px" viewBox="0 0 1200 1200" enable-background="new 0 0 1200 1200" xml:space="preserve">
    <g>
        <path fill="#AAA9A9"
            d="M600,50C296.243,50,50,296.243,50,600s246.243,550,550,550s550-246.243,550-550S903.756,50,600,50z
		 M414.261,223.112c-16.39,0-29.677-13.287-29.677-29.676c0-16.39,13.287-29.676,29.677-29.676c16.39,0,29.676,13.287,29.676,29.676
		C443.937,209.825,430.651,223.112,414.261,223.112z M861.384,207.284c-16.39,0-29.677-13.287-29.677-29.676
		c0-16.39,13.287-29.676,29.677-29.676c16.39,0,29.676,13.287,29.676,29.676C891.059,193.998,877.773,207.284,861.384,207.284z" />
        <path fill="#BCB9B8" d="M600,50C296.243,50,50,296.243,50,600s246.243,550,550,550s550-246.243,550-550S903.756,50,600,50z
		 M192.545,729.834c-1.549,0.174-3.103,0.287-4.658,0.26c-34.828-0.607-60.068-50.661-37.312-76.547
		c16.598-39.792,88.274-32.22,108.742,2.995C284.872,700.508,239.761,756.354,192.545,729.834z M296.481,891.317
		c-10.536,2.068-22.266-0.396-30.211-7.546c-7.951-2.342-14.66-10.359-14.108-18.692c0.253-3.827,0.507-7.655,0.76-11.482
		c0.694-10.471,8.389-19.372,19.372-19.372c6.302,0,12.603,0,18.904,0c10.556,0,19.3,8.9,19.372,19.372
		c0.044,6.346,0.088,12.693,0.132,19.039C310.758,880.666,304.688,889.706,296.481,891.317z M359.024,339.205
		c-27.584,11.397-62.847,4.088-84.505-16.34c-14.102-10.598-23.945-25.499-23.354-41.632c1.721-46.962,66.083-52.501,99.112-38.731
		C390.384,259.224,405.942,319.82,359.024,339.205z M567.488,1095.299c-35.716,5.805-79.614,7.239-98.488-30.575
		c-3.93-7.874-2.277-15.404,1.978-20.875c-0.194-7.95,3.777-16.105,13.239-19.463c39.762-14.112,82.121,8.983,96.801,47.083
		C584.489,1080.477,577.148,1093.729,567.488,1095.299z M856.438,143.975c6.707,0,12.874,2.252,17.844,6.004
		c8.84,5.139,14.8,14.688,14.8,25.65c0,16.39-13.287,29.676-29.677,29.676c-6.707,0-12.874-2.252-17.843-6.004
		c-8.84-5.139-14.8-14.688-14.8-25.65C826.761,157.261,840.047,143.975,856.438,143.975z M793.581,326.511
		c8.243-25.035,29.452-45.315,56.687-46.886c27.582-1.591,48.81,18.553,58.727,42.708c11.992,29.212,7.451,64.569-10.413,90.224
		c-0.348,2.539-1.316,5.18-3.057,7.848c-7.887,12.084-19.948,19.137-32.992,21.173c-4.086,1.386-8.036,1.411-11.628,0.469
		c-8.77-0.611-17.564-3.357-25.484-8.364c-16.421-10.38-27.13-28.547-29.703-47.687
		C788.381,367.673,787.203,345.882,793.581,326.511z M896.666,885.593c-22.685,19.583-60.015,19.555-76.399-7.455
		c-8.733-8.288-14.96-19.827-17.243-33.449c-5.401-32.235,9.736-67.461,39.771-82.015c28.337-13.73,65.375-2.297,81.372,24.869
		C942.81,819.206,922.127,863.614,896.666,885.593z" />
        <path fill="#D1CCCB" d="M600,50C296.243,50,50,296.243,50,600s246.243,550,550,550s550-246.243,550-550S903.756,50,600,50z
		 M207.752,769.97c-56.544,1.98-96.574-50.072-106.233-100.95c-8.689-45.764-8.063-108.325,25.317-144.975
		c30.113-33.063,71.855-27.3,105.325-6.538c1.644,0.035,3.365,0.259,5.173,0.759c56.723,15.681,74.34,100.5,68.265,150.777
		C299.502,719.482,261.673,768.082,207.752,769.97z M304.761,917.229c-2.385,6.364-8.101,10.984-17.203,9.99
		c-36.232-3.958-67.65-29.234-71.132-67.19c-3.011-32.818,18.501-74.023,54.476-77.282c34.428-3.119,70.354,32.855,78.059,64.486
		C356.858,879.649,336.75,911.576,304.761,917.229z M265.429,379.018c-25.058-9.234-57.916-22.519-68.642-49.277
		c-12.074-30.122,12.365-59.865,31.108-81.452c20.412-23.509,45.462-42.776,71.075-60.272c37.578-25.67,76.92-56.133,121.282-69.003
		c27.319-7.925,58.308-7.565,76.174,16.993c29.821,41.002,22.802,127.64,6.984,159.893c-26.405,53.843-82.71,88.394-141.254,95.143
		C329.796,394.774,295.968,390.272,265.429,379.018z M610.934,1113.08c-16.214,18.351-40.938,18.603-63.604,16.573
		c-28.717-2.572-56.935-8.847-83.779-19.419c-22.298-8.781-48.548-18.1-54.86-43.901c-5.594-22.865,1.504-48.964,14.171-68.218
		c27.539-41.857,81.487-54.786,126.487-34.615c45.264,20.289,69.599,70.33,63.699,118.674c-0.245,2.009-0.752,3.838-1.436,5.519
		C616.888,1094.645,618.298,1104.746,610.934,1113.08z M729.328,473.223c-4.92,33.894-40.311,61.596-74.737,53.696
		c-33.839-7.764-61.83-48.668-57.726-82.834c3.169-26.38,22.844-50.17,47.781-59.456c15.048-5.603,30.839-0.78,44.678,9.471
		C714.278,412.588,732.883,448.729,729.328,473.223z M876.944,918.699c-47.463,6.939-98.628-17.006-121.635-59.674
		c-23.12-42.879-15.659-98.085,15.942-134.623c33.627-38.879,92.798-48.115,138.564-26.987c37.25,17.197,56.866,50.892,61.06,86.963
		C977.75,843.505,943.19,909.014,876.944,918.699z M928.567,492.623c-55.517,32.67-125.441-7.767-160.09-52.63
		c-17.37-22.492-27.774-48.931-30.196-75.703c-19.179-58.097,16.065-125.006,81.219-134.026
		c62.99-8.72,126.429,34.263,150.578,91.184C993.066,375.635,983.92,460.049,928.567,492.623z" />
    </g>
</svg>