<?xml version="1.0" encoding="utf-8"?>
<!-- Uploaded to: SVG Repo, www.svgrepo.com, Generator: SVG Repo Mixer Tools -->
<svg fill="#ffffff" width="800px" height="800px" viewBox="0 0 24 24" xmlns="http://www.w3.org/2000/svg">
  <path fill-rule="evenodd"
    d="M12,2 C17.5228475,2 22,6.4771525 22,12 C22,17.5228475 17.5228475,22 12,22 C6.4771525,22 2,17.5228475 2,12 C2,6.4771525 6.4771525,2 12,2 Z M12,4 C7.581722,4 4,7.581722 4,12 C4,16.418278 7.581722,20 12,20 C16.418278,20 20,16.418278 20,12 C20,7.581722 16.418278,4 12,4 Z M10.503871,7.1362211 L16.503871,11.1362211 C17.1264642,11.4994005 17.1630874,12.3674256 16.6137404,12.7899986 L10.503871,16.8637789 C9.83721439,17.2526619 9,16.7717908 9,16 L9,8 C9,7.22820917 9.83721439,6.74733806 10.503871,7.1362211 Z" />
</svg>