<?xml version="1.0" encoding="utf-8"?>
<svg version="1.1" id="Layer_1" xmlns="http://www.w3.org/2000/svg" xmlns:xlink="http://www.w3.org/1999/xlink" x="0px"
	y="0px" viewBox="-25 0 743.3 733.3" style="enable-background:new 0 0 733.3 733.3;" xml:space="preserve">
	<g id="Layer_2_00000145738542696213264530000012962005884933482129_">
		<g id="icons_Q2">
			<path d="M700,333.3h-35c-16.1-139.1-125.9-248.9-265-265v-35C400,14.9,385.1,0,366.7,0s-33.3,14.9-33.3,33.3v35
			c-139.1,16.1-248.9,125.9-265,265h-35C14.9,333.3,0,348.3,0,366.7S14.9,400,33.3,400h35c16.1,139.1,125.9,248.9,265,265v35
			c0,18.4,14.9,33.3,33.3,33.3S400,718.4,400,700v-35c139.1-16.1,248.9-125.9,265-265h35c18.4,0,33.3-14.9,33.3-33.3
			S718.4,333.3,700,333.3z M400,596.7v-63.3c0-18.4-14.9-33.3-33.3-33.3s-33.3,14.9-33.3,33.3v63.3
			c-102.3-14-182.7-94.4-196.7-196.7H200c18.4,0,33.3-14.9,33.3-33.3s-14.9-33.3-33.3-33.3h-63.3c14-102.3,94.4-182.7,196.7-196.7
			V200c0,18.4,14.9,33.3,33.3,33.3S400,218.4,400,200v-63.3c102.3,14,182.7,94.4,196.7,196.7h-63.3c-18.4,0-33.3,14.9-33.3,33.3
			s14.9,33.3,33.3,33.3h63.3C582.7,502.3,502.3,582.7,400,596.7z" />
		</g>
	</g>
</svg>