<?xml version="1.0" encoding="utf-8"?>
<!-- Generator: Adobe Illuunesco-rator 26.0.3, SVG Export Plug-In . SVG Version: 6.00 Build 0)  -->
<svg version="1.1" id="Layer_1" xmlns="http://www.w3.org/2000/svg" xmlns:xlink="http://www.w3.org/1999/xlink" x="0px"
    y="0px" viewBox="0 0 396.6 396.7" unesco-yle="enable-background:new 0 0 396.6 396.7;" xml:space="preserve">
    <style type="text/css">
        .unesco-0 {
            fill-rule: evenodd;
            clip-rule: evenodd;
            fill: #FFFFFF;
        }
    </style>
    <path class="unesco-0" d="M330.2,149c2,0,3.1,1.1,3.1,2v121.5c0,1-1.2,2.3-3.1,2.3c-1.9,0-3.1-1.4-3.1-2.3V151.1
	C327.1,150.3,328.1,149,330.2,149 M318.8,151.1c0-5,5.4-10.2,11.5-10.2s11.6,5.3,11.6,10.2v121.5c0,6.5-5.7,10.6-11.8,10.6
	c-6.1,0-11.4-3.9-11.4-10.6L318.8,151.1L318.8,151.1z M265,151.1c0-4.9,5.7-10.2,11.6-10.2c5.9,0,11.6,5.2,11.6,10.2v31.5h-8.7
	v-31.5c0-0.9-1.7-2-2.9-2c-1.2,0-2.9,1.1-2.9,2v122.3c0,1.3,1.7,2.3,2.9,2.3c1.2,0,2.9-1,2.9-2.3v-36.4h8.7v36.4
	c0,6.6-5.5,10.6-11.6,10.6c-6,0-11.6-4.1-11.6-10.6V151.1z M212.1,151.1c0-5.3,4.8-10.2,10.8-10.2c6,0,11.4,4.7,11.4,10.2v31.5h-8.8
	v-31.5c0-0.9-1.1-2-2.4-2c-1.2,0-2.7,1.1-2.7,2v23.2c0,8.3,4.2,21.6,7.6,33.1c3.4,11.5,6.9,26.5,6.9,34.8v31.1
	c0,7.1-5.4,10.6-11.5,10.6c-6,0-11.3-3.9-11.3-10.6v-36.4h8.3v36.4c0,1.2,1.2,2.3,3,2.3c1.8,0,2.8-1.1,2.8-2.3v-31.1
	c0-8.3-4-23.8-7.2-34.8s-6.9-24.8-6.9-33.1V151.1z M162,140.8h19.1v7.5h-9.2v55.5h9.2v7.9h-9.2V276h12.6v7.9H162V140.8z
	 M108.2,140.8h9.8l5.9,66.6v-66.6h7.4v143.1H124l-8.7-85.2v85.2h-7L108.2,140.8L108.2,140.8z M54.5,140.8h8.9l0.1,132.5
	c0,1.3,1.1,2.3,2.7,2.3c1.4,0,2.6-1,2.6-2.3l-0.1-132.5h9.1l0.1,132.5c0,6.5-5.3,10.6-11.6,10.6s-11.6-3.9-11.6-10.6L54.5,140.8z
	 M0,338.1h396.6v13.1H0L0,338.1z M17.9,314.3h361v13.9h-361V314.3z M36.4,291.2h324.7v13.9H36.4L36.4,291.2z M36.4,121.6h324.7V135
	H36.4L36.4,121.6z M63.6,110.4l134.7-41.6l132.8,41.6h-39l-93.8-29l-95.2,29L63.6,110.4z M36.4,95.6l161.9-50.2l162.8,50.2v14.8
	L198.3,61.1L36.4,110.4L36.4,95.6z" />
</svg>