<?xml version="1.0" encoding="utf-8"?><!-- Uploaded to: SVG Repo, www.svgrepo.com, Generator: SVG Repo Mixer Tools -->
<svg width="800px" height="800px" viewBox="0 0 36 36" xmlns="http://www.w3.org/2000/svg" xmlns:xlink="http://www.w3.org/1999/xlink" aria-hidden="true" role="img" class="iconify iconify--twemoji" preserveAspectRatio="xMidYMid meet"><path fill="#003082" d="M32 5H4a4 4 0 0 0-4 4v2.5h36V9a4 4 0 0 0-4-4z"></path><path fill="#EEE" d="M0 11.5h36V18H0z"></path><path fill="#289728" d="M0 18h36v6.5H0z"></path><path fill="#FFCE00" d="M0 24.5V27a4 4 0 0 0 4 4h28a4 4 0 0 0 4-4v-2.5H0z"></path><path fill="#D21034" d="M15 5h6v26h-6z"></path><path fill="#FFCE00" d="M6.878 7.612l-.68-2.094l-.681 2.094H3.316l1.781 1.294L4.417 11l1.781-1.294L7.979 11l-.681-2.094L9.08 7.612z"></path></svg>