<?xml version="1.0" encoding="utf-8"?><!-- Uploaded to: SVG Repo, www.svgrepo.com, Generator: SVG Repo Mixer Tools -->
<svg width="800px" height="800px" viewBox="0 0 36 36" xmlns="http://www.w3.org/2000/svg" xmlns:xlink="http://www.w3.org/1999/xlink" aria-hidden="true" role="img" class="iconify iconify--twemoji" preserveAspectRatio="xMidYMid meet"><path fill="#002B7F" d="M36 27a4 4 0 0 1-4 4H4a4 4 0 0 1-4-4V9a4 4 0 0 1 4-4h28a4 4 0 0 1 4 4v18z"></path><path fill="#EEE" d="M0 9h36v18H0z"></path><path fill="#CE1225" d="M0 13h36v10H0z"></path><ellipse fill="#EEE" cx="8.5" cy="18" rx="3.5" ry="4"></ellipse><path fill="#F4CB58" d="M10.269 19.5c0 .828-.792 2.079-1.769 2.079S6.731 20.328 6.731 19.5c0-.829.792-1.5 1.769-1.5s1.769.671 1.769 1.5z"></path><ellipse fill="#DCA841" cx="8.5" cy="19.5" rx="2.5" ry="1.5"></ellipse><ellipse fill="#89C5E4" cx="8.5" cy="16" rx="1.5" ry="1"></ellipse><ellipse fill="#088930" cx="8.5" cy="18.5" rx="1.5" ry="2.5"></ellipse><ellipse fill="#DCA841" cx="8.5" cy="16.5" rx="1.5" ry=".5"></ellipse><path fill="#89C5E4" d="M10 18c0 1.104-.671 2-1.5 2S7 19.104 7 18s.671-1.498 1.5-1.498S10 16.896 10 18z"></path><ellipse fill="#DCA841" cx="8.5" cy="18.5" rx="1.5" ry=".5"></ellipse></svg>