<?xml version="1.0" encoding="utf-8"?><!-- Uploaded to: SVG Repo, www.svgrepo.com, Generator: SVG Repo Mixer Tools -->
<svg width="800px" height="800px" viewBox="0 0 36 36" xmlns="http://www.w3.org/2000/svg" xmlns:xlink="http://www.w3.org/1999/xlink" aria-hidden="true" role="img" class="iconify iconify--twemoji" preserveAspectRatio="xMidYMid meet"><path fill="#002B7F" d="M0 27a4 4 0 0 0 4 4h28a4 4 0 0 0 4-4v-2H0v2z"></path><path fill="#F9E814" d="M0 21h36v4H0z"></path><path fill="#002B7F" d="M32 5H4a4 4 0 0 0-4 4v12h36V9a4 4 0 0 0-4-4zM4 9.764l-1.176.854l.449-1.382l-1.175-.854h1.453L4 7l.449 1.382h1.453l-1.175.854l.449 1.382L4 9.764zm5.567 5.393L8 14.019l-1.567 1.139l.599-1.843l-1.567-1.139h1.937L8 10.333l.599 1.843h1.937l-1.567 1.139l.598 1.842z"></path><path fill="#FFF" d="M8.599 12.176L8 10.333l-.599 1.843H5.464l1.567 1.139l-.598 1.842L8 14.019l1.567 1.138l-.598-1.842l1.567-1.139zM5.902 8.382H4.449L4 7l-.449 1.382H2.098l1.175.854l-.449 1.382L4 9.764l1.176.854l-.449-1.382z"></path></svg>