<?xml version="1.0" encoding="utf-8"?><!-- Uploaded to: SVG Repo, www.svgrepo.com, Generator: SVG Repo Mixer Tools -->
<svg width="800px" height="800px" viewBox="0 0 36 36" xmlns="http://www.w3.org/2000/svg" xmlns:xlink="http://www.w3.org/1999/xlink" aria-hidden="true" role="img" class="iconify iconify--twemoji" preserveAspectRatio="xMidYMid meet"><path fill="#EDECEC" d="M32 5H18v10h18V9a4 4 0 0 0-4-4z"></path><path fill="#EEE" d="M11 5H4a4 4 0 0 0-4 4v6h11V5z"></path><path fill="#EDECEC" d="M32 31H18V21h18v6a4 4 0 0 1-4 4zm-21 0H4a4 4 0 0 1-4-4v-6h11v10z"></path><path fill="#003580" d="M18 5h-7v10H0v6h11v10h7V21h18v-6H18z"></path></svg>