<?xml version="1.0" encoding="utf-8"?><!-- Uploaded to: SVG Repo, www.svgrepo.com, Generator: SVG Repo Mixer Tools -->
<svg width="800px" height="800px" viewBox="0 0 36 36" xmlns="http://www.w3.org/2000/svg" xmlns:xlink="http://www.w3.org/1999/xlink" aria-hidden="true" role="img" class="iconify iconify--twemoji" preserveAspectRatio="xMidYMid meet"><path fill="#D00C33" d="M0 27a4 4 0 0 0 4 4h28a4 4 0 0 0 4-4v-9H0v9z"></path><path fill="#EEE" d="M32 5H4a4 4 0 0 0-4 4v9h36V9a4 4 0 0 0-4-4z"></path><circle fill="#EEE" cx="13.5" cy="18" r="8"></circle><path fill="#D00C33" d="M13.5 10a8 8 0 0 0-8 8h16a8 8 0 0 0-8-8z"></path></svg>