<?xml version="1.0" encoding="utf-8"?><!-- Uploaded to: SVG Repo, www.svgrepo.com, Generator: SVG Repo Mixer Tools -->
<svg width="800px" height="800px" viewBox="0 0 36 36" xmlns="http://www.w3.org/2000/svg" xmlns:xlink="http://www.w3.org/1999/xlink" aria-hidden="true" role="img" class="iconify iconify--twemoji" preserveAspectRatio="xMidYMid meet"><path fill="#CE1126" d="M0 27a4 4 0 0 0 4 4h28a4 4 0 0 0 4-4v-3H0v3zM32 5H4a4 4 0 0 0-4 4v3h36V9a4 4 0 0 0-4-4z"></path><path fill="#002868" d="M0 24h36V12H0v12zm18-11a5 5 0 1 1-.001 10.001A5 5 0 0 1 18 13z"></path><circle fill="#FFF" cx="18" cy="18" r="5"></circle></svg>