<?xml version="1.0" encoding="utf-8"?><!-- Uploaded to: SVG Repo, www.svgrepo.com, Generator: SVG Repo Mixer Tools -->
<svg width="800px" height="800px" viewBox="0 0 36 36" xmlns="http://www.w3.org/2000/svg" xmlns:xlink="http://www.w3.org/1999/xlink" aria-hidden="true" role="img" class="iconify iconify--twemoji" preserveAspectRatio="xMidYMid meet"><path fill="#D21034" d="M32 5H4a4 4 0 0 0-4 4v18a4 4 0 0 0 4 4h28a4 4 0 0 0 4-4V9a4 4 0 0 0-4-4z"></path><path fill="#007E3A" d="M6 11h24v14H6z"></path><path fill="#FFF" d="M19.64 22.344c.279 0 .551-.027.814-.077a4.344 4.344 0 0 1 0-8.532a4.344 4.344 0 1 0-.814 8.609z"></path></svg>