<?xml version="1.0" encoding="utf-8"?><!-- Uploaded to: SVG Repo, www.svgrepo.com, Generator: SVG Repo Mixer Tools -->
<svg width="800px" height="800px" viewBox="0 0 36 36" xmlns="http://www.w3.org/2000/svg" xmlns:xlink="http://www.w3.org/1999/xlink" aria-hidden="true" role="img" class="iconify iconify--twemoji" preserveAspectRatio="xMidYMid meet"><path fill="#CE2540" d="M32 5H4a4 4 0 0 0-4 4v18a4 4 0 0 0 4 4h28a4 4 0 0 0 4-4V9a4 4 0 0 0-4-4z"></path><path fill="#0F6433" d="M0 9v18h36V9z"></path><path fill="#FFC514" d="M14.936 12.664l1.894 1.375l-.722 2.221l-.002.005l.007-.005L18 14.889l1.887 1.371l.006.005l-.001-.005l-.722-2.221l1.894-1.375h-2.341L18 10.437l-.723 2.227z"></path><path fill="#FFC514" d="M26.1 13.641c-.019 4.458-3.638 8.067-8.1 8.067s-8.081-3.609-8.1-8.067a8.373 8.373 0 0 0-.294 2.173a8.395 8.395 0 1 0 16.79 0a8.417 8.417 0 0 0-.296-2.173z"></path></svg>