<?xml version="1.0" encoding="utf-8"?><!-- Uploaded to: SVG Repo, www.svgrepo.com, Generator: SVG Repo Mixer Tools -->
<svg width="800px" height="800px" viewBox="0 0 36 36" xmlns="http://www.w3.org/2000/svg" xmlns:xlink="http://www.w3.org/1999/xlink" aria-hidden="true" role="img" class="iconify iconify--twemoji" preserveAspectRatio="xMidYMid meet"><path fill="#EA2839" d="M0 27a4 4 0 0 0 4 4h28a4 4 0 0 0 4-4v-4H0v4z"></path><path fill="#34B232" d="M0 13h36v10H0z"></path><path fill="#FECB01" d="M32 5H4a4 4 0 0 0-4 4v4h36V9a4 4 0 0 0-4-4z"></path><path fill="#FFF" d="M18 8.76L20.353 16h7.613l-6.159 4.333l2.352 7.169L18 22.992l-6.159 4.458l2.353-7.107L8.035 16h7.613z"></path></svg>