<?xml version="1.0" encoding="utf-8"?><!-- Uploaded to: SVG Repo, www.svgrepo.com, Generator: SVG Repo Mixer Tools -->
<svg width="800px" height="800px" viewBox="0 0 36 36" xmlns="http://www.w3.org/2000/svg" xmlns:xlink="http://www.w3.org/1999/xlink" aria-hidden="true" role="img" class="iconify iconify--twemoji" preserveAspectRatio="xMidYMid meet"><path fill="#00853F" d="M4 5a4 4 0 0 0-4 4v18a4 4 0 0 0 4 4h8V5H4z"></path><path fill="#FDEF42" d="M12 5h12v26H12z"></path><path fill="#E31B23" d="M32 5h-8v26h8a4 4 0 0 0 4-4V9a4 4 0 0 0-4-4z"></path><path fill="#00853F" d="M18.869 16.674L18 14l-.869 2.674H14.32l2.274 1.652L15.726 21L18 19.348L20.274 21l-.868-2.674l2.274-1.652z"></path></svg>