<?xml version="1.0" encoding="utf-8"?><!-- Uploaded to: SVG Repo, www.svgrepo.com, Generator: SVG Repo Mixer Tools -->
<svg width="800px" height="800px" viewBox="0 0 36 36" xmlns="http://www.w3.org/2000/svg" xmlns:xlink="http://www.w3.org/1999/xlink" aria-hidden="true" role="img" class="iconify iconify--twemoji" preserveAspectRatio="xMidYMid meet"><path fill="#6CF" d="M32 5H4a4 4 0 0 0-4 4v18a4 4 0 0 0 4 4h28a4 4 0 0 0 4-4V9a4 4 0 0 0-4-4z"></path><path fill="#FFF" d="M9.333 28.747l2.346-2.909L18 10.2l6.321 15.638l2.346 2.909L18 7.34z"></path><path d="M24.321 25.838L18 10.2l-6.321 15.638L18 18z" fill="#000000"></path><path fill="#FCD116" d="M18 18l-6.321 7.838l-2.346 2.909h17.334l-2.346-2.909z"></path></svg>