<?xml version="1.0" encoding="utf-8"?><!-- Uploaded to: SVG Repo, www.svgrepo.com, Generator: SVG Repo Mixer Tools -->
<svg width="800px" height="800px" viewBox="0 0 36 36" xmlns="http://www.w3.org/2000/svg" xmlns:xlink="http://www.w3.org/1999/xlink" aria-hidden="true" role="img" class="iconify iconify--twemoji" preserveAspectRatio="xMidYMid meet"><path fill="#009E60" d="M32 5h-5v26h5a4 4 0 0 0 4-4V9a4 4 0 0 0-4-4z"></path><path fill="#0072C6" d="M4 5a4 4 0 0 0-4 4v18a4 4 0 0 0 4 4h5V5H4z"></path><path fill="#FCD116" d="M9 5h18v26H9z"></path><path d="M15.833 23.526L18 27.859l2.167-4.333L18 19.193l-2.167 4.333zm-2.708-5.417l2.167 4.333l2.167-4.333l-2.167-4.333l-2.167 4.333zm5.417 0l2.167 4.333l2.167-4.333l-2.167-4.333l-2.167 4.333z" fill="#009E60"></path></svg>