<?xml version="1.0" encoding="utf-8"?><!-- Uploaded to: SVG Repo, www.svgrepo.com, Generator: SVG Repo Mixer Tools -->
<svg width="800px" height="800px" viewBox="0 0 36 36" xmlns="http://www.w3.org/2000/svg" xmlns:xlink="http://www.w3.org/1999/xlink" aria-hidden="true" role="img" class="iconify iconify--twemoji" preserveAspectRatio="xMidYMid meet"><path fill="#C10000" d="M32 5H15v13H0v9a4 4 0 0 0 4 4h28a4 4 0 0 0 4-4V9a4 4 0 0 0-4-4z"></path><path fill="#EEEDED" d="M15 5H4a4 4 0 0 0-4 4v9h15V5zm-3 8H9v3H6v-3H3v-3h3V7h3v3h3v3z"></path><path fill="#C10000" d="M9 7H6v3H3v3h3v3h3v-3h3v-3H9z"></path></svg>