<?xml version="1.0" encoding="utf-8"?><!-- Uploaded to: SVG Repo, www.svgrepo.com, Generator: SVG Repo Mixer Tools -->
<svg width="800px" height="800px" viewBox="0 0 36 36" xmlns="http://www.w3.org/2000/svg" xmlns:xlink="http://www.w3.org/1999/xlink" aria-hidden="true" role="img" class="iconify iconify--twemoji" preserveAspectRatio="xMidYMid meet"><path fill="#ED2939" d="M32 5H18v12H0v10a4 4 0 0 0 4 4h28a4 4 0 0 0 4-4V9a4 4 0 0 0-4-4z"></path><path fill="#EEE" d="M0 16h19v2H0z"></path><path fill="#002395" d="M6 17H0V9a4 4 0 0 1 4-4h2v12z"></path><path fill="#EEE" d="M6 5h6v12H6zm11 0h2v13h-2z"></path><path fill="#ED2939" d="M12 5h6v12h-6z"></path><path d="M24.38 22.32h6.24L27.5 19.2zM30.62 14h-6.24l3.12 3.12zm1.04 7.28v-6.24l-3.12 3.12zm-8.32-6.24v6.24l3.12-3.12z" fill="#FFF"></path></svg>