<svg id="Layer_4" data-name="Layer 4" xmlns="http://www.w3.org/2000/svg" viewBox="0 0 1920 1920"><defs><style>.cls-1{fill:#634981;}.cls-2{fill:#80669d;}</style></defs><path class="cls-1" d="M1920,960c0,530.21-429.79,960-960,960S0,1490.21,0,960,429.79,0,960,0,1920,429.8,1920,960Z"/><path class="cls-2" d="M1735.3,858.1c-189,14.37-249.63-96.42-224.72-130.26,43.08-58.63,248.14,83.81,261.69-21.74,2.42-18.52,48.8-66.85,89.61-75.86-93.06-254.33-290.6-458.26-540.62-559.9-8.54,28.79-16.06,52.56-20.21,54.6C1156.92,195,986.63,227.55,884.41,362.24c-14.33,18.91-33.29,54.63-12.77,77.19,25.38,28,93.22-.78,126.5,1.65,92.59,6.65,353.66,67.44,362.12,109.73s-99.09,122.27-204.2,64.27c-30.94-17.07-154.55-38.34-196.53-45.9C930.16,563.93,676.76,595.73,688,897c4.54,122.19,81,200.79,204.2,202.2,102.23,1.17,205.7-10.77,239.14,110.21,28.36,102.53,17.55,208.67,42.85,310.73,10.18,41,31.88,98.7,83.89,103.16,78.88,6.82,131.91-46.21,179.3-101.2,37.75-43.95,85.45-82.09,113.65-133.48,44.65-81.58,32.35-178.71,79.58-260.4C1668.72,1062.3,1795.06,853.52,1735.3,858.1Z"/><path class="cls-2" d="M308.07,1147c-30.08-43.67-64.55-86-95.4-129C183.84,977.82,71.44,795.31,19.35,767.27A964.22,964.22,0,0,0,0,960c0,233.65,83.5,447.81,222.23,614.26,3.52,4.31,86.94-57.65,94.3-63.92,30.79-26.16,56.56-58.12,68.15-97.36C411.54,1321.45,358.67,1220.6,308.07,1147Z"/></svg>