<?xml version="1.0" encoding="iso-8859-1"?>
<!-- Uploaded to: SVG Repo, www.svgrepo.com, Generator: SVG Repo Mixer Tools -->
<svg height="800px" width="800px" version="1.1" id="Layer_1" xmlns="http://www.w3.org/2000/svg" xmlns:xlink="http://www.w3.org/1999/xlink" 
	 viewBox="0 0 511.982 511.982" xml:space="preserve">
<path style="fill:#434A54;" d="M501.326,469.391H10.671C4.781,469.391,0,464.61,0,458.72c0-5.891,4.781-10.656,10.671-10.656
	h490.655c5.891,0,10.656,4.766,10.656,10.656C511.982,464.61,507.217,469.391,501.326,469.391z"/>
<path style="fill:#5D9CEC;" d="M468.609,261.937c-7.891-12.258-16.672-21.687-17.047-22.085c-1.141-1.219-2.562-2.156-4.141-2.727
	l-309.27-112.567l-24.702-52.997c-1.203-2.562-3.359-4.547-6.015-5.508L44.748,43.234c-3.625-1.312-7.656-0.586-10.593,1.914
	c-2.922,2.5-4.266,6.382-3.531,10.156l29.921,152.87c0.719,3.672,3.312,6.695,6.828,7.976l342.332,124.606
	c1.172,0.422,2.406,0.641,3.656,0.641c0.422,0,0.844-0.031,1.266-0.078c0.547-0.062,13.327-1.641,27.249-5.953
	c20.812-6.469,33.577-15.812,37.937-27.78C484.155,295.632,480.389,280.273,468.609,261.937z"/>
<path style="fill:#E6E9ED;" d="M348.629,249.054l-146.261-53.24c-2.953-1.078-6.234-0.789-8.953,0.781L61.669,272.351
	c-3.593,2.062-5.671,6.031-5.312,10.155c0.359,4.141,3.078,7.688,6.984,9.109l62.669,22.812c1.188,0.422,2.422,0.641,3.656,0.641
	c0.734,0,1.469-0.078,2.203-0.219l215.322-45.334c4.656-0.984,8.093-4.938,8.437-9.688
	C355.956,255.078,353.112,250.679,348.629,249.054z"/>
<g style="opacity:0.2;">
	<path style="fill:#FFFFFF;" d="M468.609,261.937c-7.891-12.258-16.672-21.687-17.047-22.085c-1.141-1.219-2.562-2.156-4.141-2.727
		l-3.297-1.203c1.047,1.5,2.109,3.07,3.141,4.68c11.797,18.328,15.562,33.687,11.203,45.655
		c-4.344,11.969-17.109,21.312-37.921,27.766c-13.921,4.328-26.702,5.906-27.249,5.969c-0.422,0.047-0.844,0.078-1.281,0.078
		c-1.234,0-2.469-0.219-3.641-0.641l-146.917-53.483l-130.933,27.562c-0.719,0.156-1.453,0.234-2.188,0.234
		c-1.25,0-2.484-0.219-3.656-0.641l-46.811-17.046c-1.156,1.906-1.719,4.156-1.516,6.452c0.359,4.141,3.078,7.688,6.984,9.109
		l62.669,22.812c1.188,0.422,2.422,0.641,3.656,0.641c0.734,0,1.469-0.078,2.203-0.219l130.918-27.562l146.916,53.468
		c1.172,0.422,2.406,0.641,3.656,0.641c0.422,0,0.844-0.031,1.266-0.078c0.547-0.062,13.327-1.641,27.249-5.953
		c20.812-6.469,33.577-15.812,37.937-27.78C484.155,295.632,480.389,280.273,468.609,261.937z"/>
	<path style="fill:#FFFFFF;" d="M58.841,199.478l1.703,8.695c0.719,3.672,3.312,6.695,6.828,7.976l56.295,20.5l14.453-8.312
		L58.841,199.478z"/>
</g>
</svg>